<?xml version="1.0" standalone="no"?>
<!DOCTYPE svg PUBLIC "-//W3C//DTD SVG 20010904//EN"
 "http://www.w3.org/TR/2001/REC-SVG-20010904/DTD/svg10.dtd">
<svg version="1.0" xmlns="http://www.w3.org/2000/svg"
 width="480.000000pt" height="270.000000pt" viewBox="0 0 480.000000 270.000000"
 preserveAspectRatio="xMidYMid meet">
<metadata>
Created by potrace 1.16, written by Peter Selinger 2001-2019
</metadata>
<g transform="translate(0.000000,270.000000) scale(0.100000,-0.100000)"
fill="#000000" stroke="none">
<path d="M1530 2454 c-14 -37 -12 -113 5 -170 17 -58 71 -118 120 -134 55 -18
135 -28 135 -17 0 26 -73 158 -112 202 -24 27 -36 45 -28 40 40 -23 118 -99
145 -139 17 -25 33 -46 36 -46 3 0 2 24 -2 53 -15 117 -76 177 -217 216 l-73
20 -9 -25z"/>
<path d="M2053 2370 c-49 -10 -112 -41 -135 -67 -21 -22 -48 -85 -48 -110 0
-12 13 -5 48 28 48 47 104 89 117 89 5 0 -14 -24 -41 -52 -48 -51 -100 -126
-93 -132 2 -2 34 0 71 4 130 14 185 85 179 228 -1 24 -21 27 -98 12z"/>
<path d="M132 2243 c-11 -29 -7 -195 6 -240 15 -51 66 -120 112 -151 38 -26
113 -48 183 -55 60 -6 60 0 2 120 -31 64 -65 113 -108 160 -53 57 -57 64 -28
47 47 -27 171 -151 206 -207 17 -26 33 -47 37 -47 9 0 -1 77 -19 143 -19 67
-72 134 -136 172 -39 22 -202 75 -233 75 -8 0 -18 -8 -22 -17z"/>
<path d="M2818 2233 c-13 -14 -19 -65 -28 -246 -7 -126 -10 -271 -8 -323 5
-82 9 -98 29 -120 20 -21 25 -23 37 -10 13 13 18 13 37 0 20 -13 24 -13 35 1
12 14 15 14 31 -1 18 -16 20 -16 37 -1 17 15 19 15 35 0 16 -16 18 -16 34 0
16 15 18 15 35 0 17 -15 19 -15 37 1 16 15 19 15 31 1 10 -12 16 -13 27 -4 10
9 20 9 38 1 18 -9 26 -8 36 4 10 13 14 12 31 -3 19 -17 21 -17 43 9 34 39 39
117 26 394 -12 249 -16 280 -33 302 -9 10 -15 9 -29 -4 -18 -16 -20 -16 -37
-1 -17 15 -19 15 -35 0 -15 -16 -18 -16 -35 0 -17 15 -19 15 -35 0 -15 -16
-18 -16 -35 0 -17 16 -20 16 -32 2 -12 -14 -15 -14 -31 1 -18 16 -20 16 -38 0
-16 -15 -20 -15 -30 -2 -11 14 -15 14 -36 0 -20 -13 -24 -13 -35 1 -12 14 -15
14 -31 -1 -18 -16 -20 -16 -37 0 -18 15 -20 15 -34 -1z m327 -112 c49 -22 109
-86 125 -135 7 -24 18 -36 30 -36 22 0 30 -27 30 -102 0 -53 -2 -58 -22 -59
-18 0 -30 -14 -53 -62 -39 -79 -92 -118 -168 -125 -89 -7 -164 45 -209 146
-13 29 -25 42 -38 42 -18 0 -20 7 -20 80 0 78 1 80 24 80 17 0 26 7 30 27 10
37 60 107 92 128 58 38 119 44 179 16z"/>
<path d="M3039 2090 c-82 -24 -130 -96 -137 -205 -4 -63 -1 -80 21 -127 67
-148 228 -153 299 -10 32 65 32 179 1 238 -26 48 -86 104 -113 104 -10 0 -24
2 -32 4 -7 2 -25 1 -39 -4z m6 -172 c14 -16 26 -42 26 -56 1 -20 2 -22 6 -7
12 55 28 78 67 96 23 10 47 19 54 19 19 0 14 -61 -8 -97 -18 -30 -32 -37 -85
-45 -17 -3 -21 -13 -26 -68 -6 -74 -11 -70 -13 10 l-1 54 -38 7 c-52 8 -78 37
-84 92 l-5 45 41 -10 c25 -6 51 -22 66 -40z"/>
<path d="M2990 1927 c0 -2 15 -16 33 -33 l32 -29 -29 33 c-28 30 -36 37 -36
29z"/>
<path d="M4034 2155 c-70 -41 -74 -61 -74 -318 0 -216 1 -225 23 -257 50 -74
54 -75 300 -78 214 -3 224 -2 267 20 78 40 84 61 88 297 4 225 -3 273 -47 315
-44 42 -70 46 -299 46 -213 0 -218 -1 -258 -25z m182 -34 c62 -38 82 -131 41
-192 -43 -65 -124 -86 -185 -49 -91 56 -96 187 -9 240 41 26 112 26 153 1z
m334 -16 c118 -113 -8 -299 -156 -229 -93 44 -100 189 -11 245 47 30 127 22
167 -16z m-328 -307 c89 -63 73 -195 -28 -239 -69 -31 -135 -11 -174 54 -48
77 -3 187 85 210 32 8 87 -3 117 -25z m296 12 c33 -15 47 -29 62 -62 24 -54
24 -72 0 -126 -15 -34 -29 -47 -65 -63 -61 -27 -108 -18 -157 31 -35 34 -38
42 -38 93 0 46 5 61 27 88 28 33 74 58 108 58 11 0 39 -8 63 -19z"/>
<path d="M4099 2099 c-8 -15 -7 -29 1 -50 15 -36 30 -38 30 -4 0 14 5 25 10
25 6 0 10 -12 10 -27 l1 -28 19 24 c33 39 22 70 -28 76 -24 3 -34 -1 -43 -16z"/>
<path d="M4108 1970 c-21 -29 -23 -51 -6 -68 16 -16 63 -15 77 2 14 17 5 60
-15 77 -11 9 -14 7 -14 -15 0 -35 -18 -34 -22 2 l-3 27 -17 -25z"/>
<path d="M4470 2081 c-5 -11 -10 -30 -10 -42 0 -21 1 -21 18 -6 29 26 38 20
12 -8 -19 -20 -20 -25 -7 -25 28 0 64 18 71 35 8 23 -24 64 -51 65 -12 0 -27
-9 -33 -19z"/>
<path d="M4378 1989 c-24 -14 -22 -48 4 -70 11 -11 24 -19 28 -19 16 0 39 27
46 53 7 30 -6 36 -26 12 -7 -9 -15 -13 -18 -10 -3 3 3 14 13 25 18 19 17 20
-6 20 -13 0 -32 -5 -41 -11z"/>
<path d="M4058 1761 c-27 -27 -22 -50 17 -68 40 -19 56 -12 32 15 -26 29 -20
38 8 12 l25 -23 0 22 c0 56 -46 79 -82 42z"/>
<path d="M4160 1681 c0 -5 7 -14 15 -21 8 -7 15 -17 15 -23 0 -6 -11 0 -25 13
l-25 23 0 -22 c0 -34 18 -61 41 -61 29 0 62 34 55 58 -9 27 -76 56 -76 33z"/>
<path d="M4354 1718 c-15 -21 -10 -60 8 -71 11 -8 26 -8 44 -2 40 14 41 33 2
38 l-33 4 33 1 c36 2 42 16 13 32 -27 14 -57 13 -67 -2z"/>
<path d="M4488 1716 c-25 -19 -23 -24 15 -29 l32 -4 -32 -1 c-18 -1 -33 -6
-33 -10 0 -15 46 -34 71 -30 21 3 24 8 24 43 0 37 -2 40 -30 42 -16 2 -38 -3
-47 -11z"/>
<path d="M824 2115 c-137 -30 -206 -94 -233 -216 -5 -22 -7 -39 -4 -39 3 0 38
30 77 68 39 37 96 80 126 96 l55 28 -39 -32 c-81 -70 -165 -180 -166 -219 0
-22 139 -8 195 19 88 43 139 140 133 252 l-3 53 -40 2 c-22 1 -68 -4 -101 -12z"/>
<path d="M1587 2064 c-4 -4 -7 -29 -7 -56 l0 -48 258 2 257 3 0 50 0 50 -251
3 c-138 1 -253 -1 -257 -4z"/>
<path d="M1634 1883 c3 -16 13 -80 22 -143 24 -166 16 -160 179 -160 148 0
160 4 170 63 17 104 35 230 35 247 0 19 -6 20 -206 20 l-206 0 6 -27z"/>
<path d="M1861 1103 c-26 -10 -348 -282 -355 -299 -3 -8 -6 -114 -6 -234 l0
-218 26 -31 26 -31 328 0 329 0 28 24 28 24 3 221 c2 167 0 226 -10 244 -13
25 -333 297 -348 297 -5 0 -14 2 -22 4 -7 3 -19 2 -27 -1z m189 -185 l159
-133 1 -211 c0 -150 -3 -213 -12 -222 -17 -17 -609 -17 -626 0 -9 9 -12 72
-12 224 l0 211 158 131 c86 72 160 131 165 132 4 0 79 -60 167 -132z"/>
<path d="M1650 802 c-51 -41 -19 -132 54 -148 40 -8 119 -48 135 -68 7 -9 17
-13 22 -10 28 17 -16 153 -65 203 -43 43 -108 54 -146 23z m125 -71 c39 -27
85 -92 84 -121 0 -11 -3 -10 -12 4 -23 37 -82 99 -122 129 -32 23 -35 28 -15
22 14 -3 43 -19 65 -34z"/>
<path d="M1989 794 c-20 -14 -46 -46 -59 -71 -24 -49 -39 -143 -23 -143 5 0
24 11 43 25 18 13 61 34 96 45 73 25 84 35 91 88 4 32 1 44 -16 61 -30 30 -87
28 -132 -5z m56 -47 c-48 -35 -91 -79 -114 -117 -14 -23 -21 -29 -21 -17 0 42
54 108 115 140 44 23 55 20 20 -6z"/>
<path d="M1840 541 c-72 -23 -145 -85 -138 -118 3 -16 17 -18 163 -21 180 -3
205 0 205 27 0 21 -53 72 -99 96 -37 19 -99 26 -131 16z"/>
<path d="M4447 1069 c-82 -19 -164 -82 -188 -146 -15 -41 -11 -42 28 -5 40 38
125 82 158 82 15 0 12 -5 -15 -21 -58 -35 -121 -101 -146 -154 -23 -48 -24
-58 -24 -297 l0 -248 25 0 25 0 0 240 c0 277 -1 272 89 283 62 7 131 45 161
88 22 30 62 167 53 182 -6 10 -118 7 -166 -4z"/>
<path d="M480 1026 c-191 -41 -326 -226 -306 -417 14 -139 98 -259 224 -321
61 -30 74 -33 162 -33 129 1 193 26 276 109 33 34 70 82 83 108 112 234 -30
510 -288 558 -65 12 -80 12 -151 -4z m215 -85 c62 -28 130 -94 162 -160 24
-48 28 -68 28 -141 0 -73 -4 -92 -28 -138 -34 -65 -93 -123 -155 -154 -39 -19
-63 -23 -137 -23 -109 0 -161 20 -230 90 -70 69 -90 121 -90 230 0 78 4 97 27
140 28 54 96 123 147 149 76 40 195 43 276 7z"/>
<path d="M527 873 c-71 -103 -77 -198 -15 -263 l23 -25 8 95 c4 52 10 102 13
110 9 23 22 -16 23 -66 1 -23 4 -62 7 -88 7 -46 7 -46 26 -29 69 62 62 178
-16 271 -15 17 -31 32 -36 32 -4 0 -19 -17 -33 -37z"/>
<path d="M301 601 c-19 -12 0 -65 39 -113 37 -44 86 -62 131 -46 l30 10 -68
45 c-80 53 -76 50 -66 56 5 3 41 -10 81 -28 55 -26 72 -30 72 -19 0 31 -33 76
-65 90 -38 15 -132 19 -154 5z"/>
<path d="M668 595 c-28 -16 -58 -62 -58 -90 0 -13 5 -13 38 4 122 62 152 55
47 -11 -37 -24 -61 -46 -56 -51 16 -16 92 -10 120 10 30 22 89 128 78 140 -16
15 -141 14 -169 -2z"/>
<path d="M3415 994 c-16 -7 -50 -13 -75 -14 -108 -1 -176 -34 -210 -100 -29
-56 -25 -62 15 -25 37 33 117 65 164 65 22 0 18 -4 -24 -24 -136 -65 -184
-134 -194 -285 -7 -108 0 -102 -98 -86 -102 18 -223 -53 -223 -129 0 -71 97
-112 193 -82 43 13 123 63 115 71 -2 2 -28 -3 -58 -11 -30 -8 -75 -14 -100
-14 l-45 0 69 25 c80 28 139 65 163 101 12 19 19 57 23 125 3 54 9 101 13 105
3 4 39 10 79 14 40 4 85 12 99 18 75 30 132 124 127 211 l-3 48 -30 -13z"/>
<path d="M3867 953 c-10 -3 -16 -11 -13 -18 3 -8 8 -31 12 -52 12 -65 42 -112
91 -144 26 -16 59 -29 74 -29 34 0 81 -17 91 -33 4 -7 8 -99 8 -204 l0 -193
25 0 25 0 0 183 c0 232 -9 268 -86 343 -29 29 -62 55 -74 59 -11 3 -20 11 -20
16 0 24 97 -22 146 -67 l36 -35 -6 27 c-17 68 -88 123 -184 143 -54 11 -93 12
-125 4z"/>
<path d="M2826 901 c9 -56 38 -104 74 -125 30 -18 170 -39 170 -26 0 19 -59
86 -98 111 -26 16 -38 29 -29 29 24 0 87 -27 109 -47 22 -20 23 -11 3 27 -18
35 -76 57 -168 63 l-67 5 6 -37z"/>
<path d="M4487 716 c-45 -16 -74 -40 -93 -78 -21 -40 -17 -45 14 -16 32 30 89
61 104 56 6 -2 -7 -16 -29 -31 -82 -57 -103 -109 -103 -258 0 -102 1 -109 20
-109 19 0 20 7 20 120 0 131 4 140 67 140 35 0 86 31 108 64 9 14 22 48 30 75
l13 51 -56 0 c-32 -1 -74 -7 -95 -14z"/>
<path d="M2825 631 c-9 -16 11 -22 113 -36 128 -19 122 -20 122 15 l0 30 -114
0 c-63 0 -117 -4 -121 -9z"/>
<path d="M3170 610 c0 -29 2 -31 33 -26 32 6 185 26 193 26 2 0 4 7 4 15 0 12
-19 15 -115 15 l-115 0 0 -30z"/>
<path d="M2762 548 c-18 -18 -15 -38 6 -38 21 0 42 18 42 37 0 16 -32 17 -48
1z"/>
<path d="M3177 503 c-15 -14 -7 -43 13 -43 20 0 44 32 33 44 -8 8 -38 8 -46
-1z"/>
<path d="M3336 501 c-8 -13 21 -34 39 -27 20 7 8 36 -15 36 -11 0 -21 -4 -24
-9z"/>
<path d="M3216 407 c-10 -7 -16 -22 -14 -33 2 -15 12 -19 43 -19 34 0 40 3 43
22 3 17 -3 26 -23 33 -32 12 -28 13 -49 -3z"/>
</g>
</svg>
