<?xml version="1.0" standalone="no"?>
<!DOCTYPE svg PUBLIC "-//W3C//DTD SVG 20010904//EN"
 "http://www.w3.org/TR/2001/REC-SVG-20010904/DTD/svg10.dtd">
<svg version="1.0" xmlns="http://www.w3.org/2000/svg"
 width="2250.000000pt" height="3004.000000pt" viewBox="0 0 2250.000000 3004.000000"
 preserveAspectRatio="xMidYMid meet">

<g transform="translate(0.000000,3004.000000) scale(0.100000,-0.100000)"
fill="#000000" stroke="none">
<path d="M0 20260 l0 -9780 68 0 68 0 116 -138 c710 -846 1732 -1661 2898
-2311 227 -127 823 -421 1065 -527 999 -434 2074 -766 3175 -978 102 -20 196
-39 210 -42 l25 -6 -36 -31 c-20 -18 -41 -41 -46 -52 -6 -11 -66 -327 -134
-702 l-124 -683 -732 0 -733 0 0 508 0 507 -466 240 c-257 132 -472 241 -479
243 -6 2 -205 -93 -441 -210 l-429 -213 -946 -5 -946 -5 -49 -30 c-35 -22 -57
-46 -79 -85 -29 -54 -30 -59 -30 -193 l0 -137 -294 2 -294 3 -654 1225 c-360
674 -667 1250 -683 1280 l-29 55 -1 -4097 0 -4098 3279 0 c3115 0 3280 1 3285
18 2 9 262 1428 577 3152 l573 3135 75 66 c588 514 1337 974 2054 1261 168 67
416 153 422 146 2 -2 -5 -33 -16 -68 -50 -158 -111 -511 -148 -850 -68 -618
-107 -1316 -143 -2555 -14 -474 -18 -4228 -5 -4277 7 -28 8 -28 97 -28 l90 0
0 48 c0 26 -5 517 -11 1092 -23 2330 30 4431 142 5540 51 516 122 912 190
1070 l21 49 37 -18 c221 -113 571 -228 861 -282 177 -33 485 -38 645 -11 272
47 496 151 667 310 72 68 70 68 106 -3 129 -259 238 -1128 297 -2380 51 -1083
60 -1651 60 -3613 l0 -1802 91 0 92 0 7 748 c13 1265 -2 2994 -35 3977 -51
1517 -148 2552 -280 2984 -11 35 -20 65 -20 67 0 30 369 -104 710 -258 246
-111 581 -291 845 -455 300 -185 703 -485 968 -719 l46 -40 175 -965 c97 -530
180 -986 186 -1014 5 -27 181 -988 390 -2135 209 -1147 385 -2109 391 -2137
l10 -53 2885 0 2884 0 0 3903 0 3902 -303 -457 c-166 -251 -581 -880 -922
-1397 l-620 -940 -2324 2 -2324 2 -128 695 c-70 382 -128 696 -128 697 -1 2
-302 258 -330 280 l-23 19 148 33 c82 18 302 70 489 116 1984 491 3677 1219
4999 2148 l109 77 679 0 678 0 0 10480 0 10480 -11250 0 -11250 0 0 -9780z
m17310 9065 c82 -43 79 -170 -6 -210 -100 -47 -206 54 -164 156 26 61 107 87
170 54z m-9952 -71 c37 -26 23 -74 -23 -74 -42 0 -59 44 -29 74 19 20 24 20
52 0z m-4859 -489 c95 -49 27 -198 -75 -165 -67 22 -85 100 -35 151 33 32 67
37 110 14z m18872 -1218 c139 -73 138 -276 -1 -347 -88 -45 -195 -16 -255 68
-26 38 -30 53 -30 107 0 54 4 70 30 107 59 84 167 111 256 65z m-12774 -143
c15 -24 15 -29 2 -53 -27 -48 -109 -32 -109 22 0 56 76 77 107 31z m3875 -482
c62 -61 41 -165 -39 -198 -71 -30 -154 13 -168 88 -22 117 123 195 207 110z
m-7715 -467 c12 -8 27 -30 33 -49 25 -77 -44 -147 -123 -125 -106 29 -83 189
27 189 23 0 51 -7 63 -15z m12311 -202 c46 -35 64 -68 65 -120 1 -90 -59 -153
-148 -153 -55 0 -96 19 -124 58 -74 105 6 249 132 239 27 -2 60 -13 75 -24z
m-8048 -1778 c36 -19 60 -62 60 -110 0 -26 -9 -45 -34 -73 -30 -32 -40 -37
-78 -37 -55 0 -95 25 -115 73 -41 98 71 197 167 147z m-7485 -615 c52 -25 75
-64 75 -129 0 -42 -5 -56 -31 -85 -96 -110 -272 -24 -244 120 7 39 63 100 97
107 46 9 62 7 103 -13z m18221 -211 c45 -21 84 -81 84 -127 0 -64 -62 -136
-126 -148 -48 -9 -118 19 -146 59 -32 44 -32 129 -1 173 45 62 116 79 189 43z
m-8986 -1079 c349 -1179 669 -2176 845 -2625 113 -290 164 -379 236 -416 l41
-21 207 93 c1148 513 2128 987 2719 1317 142 79 154 84 169 69 16 -15 -3 -116
-251 -1339 -147 -728 -299 -1474 -337 -1658 -38 -184 -69 -344 -69 -356 0 -24
-9 -21 420 -144 755 -216 1461 -384 1945 -460 147 -24 165 -28 165 -40 0 -4
-37 -32 -82 -61 -592 -378 -1215 -817 -1461 -1028 -184 -158 -244 -237 -254
-335 l-5 -51 503 -272 c1110 -600 1313 -711 1316 -719 4 -16 -509 -387 -872
-631 -309 -207 -543 -342 -688 -395 -49 -18 -92 -39 -94 -45 -5 -14 39 -99
217 -418 257 -460 482 -824 628 -1017 28 -37 48 -70 44 -72 -6 -4 -383 -79
-1319 -263 -108 -21 -133 -29 -133 -43 0 -9 45 -216 100 -461 55 -244 106
-472 114 -507 12 -53 12 -64 1 -69 -19 -7 -532 1 -540 8 -3 4 12 67 35 140
130 425 213 904 236 1372 l7 138 66 34 c114 57 250 154 341 244 228 224 294
456 219 773 -88 375 -336 628 -679 692 l-65 12 -12 85 c-242 1654 -694 2913
-1369 3809 -880 1169 -2103 1633 -3624 1374 -260 -44 -411 -94 -645 -212 -757
-383 -1297 -1144 -1520 -2142 -88 -395 -125 -760 -125 -1240 0 -554 54 -1092
176 -1740 30 -156 105 -508 134 -619 10 -42 35 -168 54 -281 20 -113 47 -261
61 -329 14 -68 25 -129 25 -136 0 -7 -20 -25 -45 -39 -115 -68 -239 -214 -315
-371 -68 -141 -94 -250 -93 -395 1 -137 24 -236 81 -352 l38 -78 -81 -29
c-326 -117 -838 -122 -1305 -11 -118 28 -330 92 -330 99 1 3 73 49 162 101
315 185 552 364 769 580 204 203 346 408 422 611 25 65 25 65 6 113 -43 114
-208 286 -441 461 -383 287 -928 578 -1673 894 -126 54 -252 106 -278 116
l-48 18 231 58 c703 176 1225 435 1566 774 116 117 272 325 252 336 -7 4 -40
12 -73 19 -304 63 -840 536 -1389 1225 -70 88 -137 171 -149 185 -37 43 -783
579 -1224 880 -84 57 -151 106 -148 108 2 3 154 -2 337 -9 441 -18 1411 -19
1571 -1 65 8 173 29 239 48 237 66 467 87 974 88 l382 1 -23 50 c-355 785
-752 1716 -942 2210 -129 335 -178 493 -213 682 -36 197 -117 577 -166 781
-19 79 -34 146 -34 148 0 3 33 -19 73 -47 330 -236 962 -632 1312 -824 169
-92 518 -265 670 -330 102 -45 135 -67 480 -330 501 -382 690 -520 752 -551
46 -23 56 -25 87 -14 41 13 78 53 105 115 10 24 58 157 106 297 286 833 510
1327 808 1788 232 358 371 632 469 925 22 66 42 127 45 135 7 19 -2 48 153
-480z m-4922 426 c32 -30 37 -40 37 -78 0 -84 -70 -142 -145 -119 -135 40
-108 231 33 231 29 0 46 -8 75 -34z m9097 -420 c40 -17 75 -68 75 -111 0 -60
-65 -125 -126 -125 -68 0 -136 90 -115 153 6 19 24 45 39 59 44 41 73 46 127
24z m-11317 -1596 c124 -76 76 -262 -69 -264 -115 -2 -185 131 -119 224 42 59
127 77 188 40z m17952 -75 c70 -36 83 -134 26 -191 -28 -28 -42 -34 -75 -34
-85 0 -138 56 -128 133 11 85 101 131 177 92z m-3988 -504 c29 -26 33 -35 33
-81 0 -46 -4 -55 -33 -81 -89 -80 -227 12 -182 122 31 74 122 94 182 40z
m-16333 -659 c93 -69 81 -211 -22 -263 -132 -68 -273 71 -208 204 44 91 151
118 230 59z m9366 -593 c549 -49 1052 -227 1490 -527 179 -122 290 -216 481
-407 247 -246 426 -473 615 -780 479 -777 832 -1808 1033 -3020 26 -155 80
-539 90 -635 3 -30 12 -116 20 -190 57 -514 83 -1262 56 -1606 -40 -519 -134
-964 -293 -1394 -67 -182 -227 -508 -327 -668 -459 -731 -1136 -1181 -2030
-1351 -221 -41 -359 -54 -580 -54 -267 -1 -419 19 -651 84 -699 194 -1323 748
-1814 1609 -430 755 -783 1801 -960 2843 -19 111 -59 308 -89 437 -459 1979
-352 3548 312 4545 268 403 608 705 1007 896 164 78 273 115 445 149 392 78
817 103 1195 69z m11090 -1894 c30 -30 35 -42 35 -81 0 -86 -47 -134 -131
-134 -35 0 -48 6 -80 39 -33 32 -39 45 -39 80 0 84 47 130 132 131 41 0 52 -5
83 -35z m-17685 -795 c59 -30 84 -73 88 -150 3 -55 0 -70 -20 -100 -37 -55
-82 -80 -145 -80 -72 0 -125 28 -158 83 -89 154 76 328 235 247z m13651 -60
c34 -25 69 -96 69 -141 -1 -47 -32 -112 -66 -136 -92 -66 -207 -42 -261 53
-58 100 4 235 116 254 46 8 106 -5 142 -30z m3018 -1216 c25 -21 31 -34 31
-64 0 -58 -35 -95 -90 -95 -55 0 -90 37 -90 95 0 30 6 43 31 64 17 15 43 26
59 26 16 0 42 -11 59 -26z m-20035 -348 c47 -19 66 -51 66 -109 0 -40 -5 -53
-29 -78 -25 -24 -38 -29 -79 -29 -61 0 -97 25 -113 80 -15 51 11 107 61 132
42 22 51 22 94 4z m13927 -1032 c189 -55 345 -204 426 -406 35 -85 63 -228 63
-319 0 -212 -137 -405 -402 -568 l-68 -41 0 28 c-1 223 -38 817 -70 1122 -11
102 -20 188 -20 193 0 10 9 9 71 -9z m-6888 -1486 c9 -29 47 -168 86 -308 77
-279 193 -657 241 -788 l30 -84 -32 7 c-304 58 -491 177 -582 368 -46 98 -61
165 -60 277 1 143 43 275 131 407 37 56 148 173 164 173 4 0 14 -24 22 -52z
m-2867 -198 c21 -14 39 -36 50 -65 16 -42 16 -48 0 -90 -53 -137 -250 -102
-250 45 0 106 109 166 200 110z m2664 -962 c135 -103 323 -174 539 -205 l116
-16 55 -131 c30 -72 105 -234 168 -360 62 -126 111 -230 109 -232 -14 -14
-289 -164 -457 -248 -314 -159 -591 -272 -718 -292 l-39 -6 13 78 c62 366 88
700 89 1144 l0 385 30 -34 c16 -18 59 -56 95 -83z m8611 -721 c47 -36 51 -97
10 -138 -48 -48 -116 -38 -147 22 -20 39 -11 82 23 109 29 22 89 26 114 7z
m-7373 -622 c65 -99 153 -224 196 -278 42 -54 76 -101 76 -105 0 -7 -251 -136
-254 -130 -4 5 -144 699 -141 696 2 -2 57 -84 123 -183z m3886 -1412 c21 -120
47 -261 57 -315 10 -53 19 -105 19 -115 0 -22 -98 -119 -175 -174 -378 -269
-917 -298 -1562 -83 -133 44 -378 145 -397 164 -9 9 60 448 76 473 5 8 48 7
170 -6 346 -36 535 -32 868 19 266 41 610 135 815 223 39 16 75 30 81 30 6 1
26 -90 48 -216z"/>
<path d="M10445 18151 c-178 -65 -325 -132 -447 -203 -203 -118 -311 -165
-498 -218 -95 -27 -275 -67 -373 -85 -73 -12 -97 -66 -55 -120 20 -26 24 -27
82 -21 90 9 354 73 491 118 136 45 267 104 376 171 147 89 445 222 575 256 50
13 67 32 67 73 0 34 -40 78 -71 78 -9 -1 -75 -22 -147 -49z"/>
<path d="M11090 18093 c-62 -24 -618 -291 -849 -409 -155 -79 -333 -164 -395
-189 -292 -116 -722 -210 -1194 -259 -153 -16 -172 -26 -172 -87 0 -30 6 -42
26 -56 23 -15 38 -15 152 -5 406 39 882 139 1194 253 62 22 282 126 489 229
206 104 476 236 599 295 123 58 228 111 232 118 10 15 10 69 0 83 -8 13 -47
34 -59 33 -4 0 -15 -3 -23 -6z"/>
<path d="M12230 17680 c-286 -15 -600 -75 -975 -185 -187 -55 -316 -99 -642
-221 -475 -177 -886 -306 -1288 -404 -294 -72 -1176 -196 -1525 -214 -156 -8
-301 -134 -288 -251 7 -62 51 -131 104 -165 110 -69 407 -96 769 -70 933 69
1527 191 2241 461 457 172 895 292 1399 383 233 42 486 76 566 76 192 0 306
92 317 255 10 165 -76 273 -255 319 -79 21 -236 27 -423 16z m435 -175 c32
-16 68 -42 78 -56 27 -37 33 -99 13 -141 -27 -56 -63 -70 -205 -79 -246 -15
-828 -117 -1141 -200 -405 -108 -546 -152 -850 -267 -703 -266 -1360 -395
-2297 -452 -273 -16 -521 9 -576 58 -35 31 -38 48 -16 76 34 43 86 63 184 70
366 28 1160 134 1395 187 401 90 950 261 1475 459 456 173 778 266 1133 330
220 40 323 48 557 47 190 -2 190 -2 250 -32z"/>
<path d="M12542 16799 c-56 -11 -62 -15 -62 -49 0 -45 36 -66 123 -73 163 -12
359 -114 526 -273 119 -113 197 -216 266 -349 l47 -90 -43 -7 c-24 -4 -140
-19 -258 -33 -492 -60 -1003 -162 -1454 -291 -193 -55 -529 -169 -657 -222
l-95 -40 -6 36 c-4 20 -3 82 2 137 20 249 97 464 245 686 35 53 64 105 64 116
0 34 -33 66 -69 66 -39 0 -67 -25 -132 -122 -104 -156 -186 -356 -230 -561
-32 -148 -33 -419 -1 -563 103 -468 381 -853 752 -1040 276 -139 641 -172
1021 -91 302 63 515 180 739 404 290 289 420 632 389 1020 -45 562 -347 1049
-786 1269 -147 73 -260 94 -381 70z m970 -1044 c10 -33 27 -116 39 -185 52
-309 -4 -586 -171 -836 -75 -112 -262 -295 -386 -377 -127 -84 -202 -118 -345
-156 -319 -85 -611 -87 -870 -5 -302 94 -551 325 -708 655 -52 109 -104 254
-116 326 l-7 43 59 25 c107 48 396 152 563 204 164 50 496 141 515 141 6 0 18
-14 27 -30 9 -17 25 -30 35 -30 13 0 14 -3 5 -12 -17 -17 -15 -51 6 -70 29
-28 46 -51 48 -66 5 -33 15 -42 44 -42 26 0 33 6 46 35 17 42 41 46 46 8 2
-22 9 -29 31 -31 32 -4 57 13 57 38 0 9 11 22 25 28 15 7 25 20 25 32 0 11 7
32 16 46 22 32 6 74 -28 74 -24 0 -48 37 -48 72 0 10 6 21 13 23 79 29 949
156 1031 152 27 -2 31 -7 48 -62z"/>
<path d="M9440 16130 c-23 -23 -26 -68 -7 -94 8 -10 46 -24 100 -36 262 -57
533 -292 682 -590 38 -75 85 -192 85 -210 0 -6 -31 -10 -69 -10 -89 0 -296
-17 -446 -36 -565 -72 -1256 -282 -1871 -568 -66 -31 -126 -56 -131 -56 -35 0
-48 348 -19 510 43 241 166 494 330 678 63 71 70 99 30 139 -55 55 -119 6
-259 -202 -118 -175 -191 -346 -238 -553 -31 -142 -31 -433 1 -579 32 -147 75
-271 143 -409 164 -337 420 -567 754 -679 152 -51 248 -66 455 -72 373 -10
614 47 870 206 370 230 592 541 655 921 14 79 16 139 12 273 -6 208 -25 321
-82 493 -81 244 -184 414 -355 584 -58 58 -136 126 -175 151 -196 130 -410
194 -465 139z m919 -1165 c17 -106 19 -392 3 -470 -36 -165 -110 -334 -201
-455 -121 -161 -334 -331 -534 -425 -225 -107 -592 -143 -884 -86 -305 59
-541 203 -715 435 -66 89 -197 344 -201 391 -2 28 2 31 163 106 264 122 811
332 826 316 3 -3 1 -14 -5 -25 -20 -38 -13 -62 22 -77 38 -16 87 -70 87 -95 0
-25 26 -43 55 -38 14 3 30 -1 36 -8 14 -17 51 -18 66 -3 6 6 22 17 35 23 12 6
24 22 26 34 2 12 10 22 17 22 18 0 49 45 41 58 -3 6 1 15 9 22 33 27 11 80
-32 80 -16 0 -23 6 -23 18 0 10 -3 22 -7 25 -3 4 -7 20 -7 36 l-1 29 150 35
c184 44 378 80 550 102 126 16 388 34 470 31 l40 -1 14 -80z"/>
<path d="M13573 14071 c-10 -10 -34 -44 -53 -76 -76 -127 -251 -271 -422 -349
-146 -66 -309 -113 -516 -148 -109 -18 -174 -22 -460 -24 -301 -2 -335 -4
-353 -20 -24 -22 -25 -65 -1 -94 16 -20 32 -23 181 -33 180 -12 463 0 645 28
306 47 549 132 751 263 147 95 345 328 345 405 0 57 -79 90 -117 48z"/>
<path d="M11311 13894 c-21 -15 -23 -23 -18 -68 3 -28 21 -127 41 -221 146
-700 120 -1201 -68 -1286 -78 -35 -143 -20 -223 55 -154 143 -287 489 -382
991 -16 88 -35 196 -41 240 -13 91 -36 125 -82 125 -42 0 -68 -32 -68 -84 0
-102 79 -496 144 -723 137 -474 307 -722 526 -763 58 -11 146 2 200 30 48 24
122 106 154 167 58 115 93 357 81 562 -19 328 -122 918 -170 971 -22 24 -62
26 -94 4z"/>
<path d="M10078 13247 c-288 -254 -583 -411 -871 -462 -142 -25 -376 -17 -502
18 -108 30 -199 70 -287 126 -36 23 -72 41 -81 41 -29 0 -69 -44 -69 -75 0
-83 273 -217 532 -260 130 -22 352 -16 481 14 310 71 608 235 907 499 63 56
72 68 72 98 0 42 -30 74 -70 74 -22 0 -49 -17 -112 -73z"/>
<path d="M13740 11940 c-34 -34 -26 -72 30 -137 104 -121 156 -257 147 -387
-9 -142 -65 -245 -210 -387 -80 -78 -88 -89 -85 -119 4 -44 45 -75 85 -65 42
10 211 186 262 272 24 40 54 107 68 150 22 69 24 91 21 193 -3 92 -9 130 -30
188 -32 88 -100 200 -162 265 -51 53 -91 62 -126 27z"/>
<path d="M12325 11583 c-262 -14 -661 -65 -935 -119 -717 -142 -1451 -426
-1940 -750 -114 -76 -130 -93 -130 -145 0 -29 7 -43 31 -63 46 -39 75 -34 176
32 215 142 486 284 756 396 209 87 199 85 221 39 29 -62 103 -159 149 -196 60
-49 116 -75 198 -92 93 -20 147 -44 198 -90 57 -52 77 -88 95 -179 9 -43 32
-127 52 -185 107 -322 286 -447 497 -347 91 44 146 121 167 235 14 76 7 145
-27 271 -21 79 -26 118 -26 230 -2 214 32 307 135 373 115 74 169 171 172 309
l1 76 105 9 c58 4 292 8 520 8 335 0 453 -4 615 -20 264 -26 272 -25 301 9 36
41 33 97 -7 130 -17 14 -36 26 -42 26 -7 0 -79 7 -162 15 -316 31 -827 44
-1120 28z m-317 -285 c-7 -114 -31 -150 -158 -241 -51 -37 -101 -115 -127
-196 -14 -45 -18 -92 -18 -236 0 -165 2 -186 25 -255 34 -105 35 -246 2 -307
-31 -58 -89 -95 -158 -101 -69 -6 -105 9 -153 64 -74 84 -139 241 -176 424
-35 176 -162 295 -357 336 -126 26 -182 66 -258 182 l-50 76 23 12 c35 19 341
110 515 153 261 66 518 112 847 154 17 2 34 5 39 6 5 0 6 -32 4 -71z"/>
<path d="M9011 10963 c-40 -37 -97 -155 -121 -250 -82 -319 101 -558 513 -668
95 -26 127 -23 146 14 33 62 -1 99 -119 130 -172 44 -317 137 -377 239 -22 37
-28 61 -31 131 -5 100 16 176 74 274 42 71 44 108 8 136 -36 28 -58 26 -93 -6z"/>
<path d="M12237 10255 c-60 -15 -100 -53 -138 -130 -62 -127 -50 -226 40 -315
83 -83 164 -113 256 -96 44 9 109 65 137 119 18 35 19 46 8 104 -17 99 -58
197 -102 248 -64 72 -119 92 -201 70z m114 -134 c37 -40 72 -124 85 -207 5
-37 3 -43 -30 -72 -20 -18 -44 -32 -54 -32 -33 0 -118 47 -150 84 -27 31 -32
45 -32 87 0 84 62 179 116 179 19 0 39 -13 65 -39z"/>
<path d="M10806 10177 c-31 -41 -53 -91 -67 -156 -15 -70 2 -125 55 -177 100
-100 216 -72 260 63 26 81 24 115 -11 159 -70 88 -147 144 -197 144 -8 0 -26
-15 -40 -33z m154 -200 c0 -37 -26 -87 -46 -87 -9 0 -29 13 -45 29 -34 34 -37
70 -13 132 l17 40 43 -42 c32 -31 44 -51 44 -72z"/>
<path d="M9893 7445 c-30 -13 -46 -42 -169 -292 -805 -1643 -1328 -2975 -1464
-3727 -25 -138 -26 -200 -2 -223 9 -10 65 -58 125 -106 76 -63 107 -95 107
-110 0 -12 -74 -478 -164 -1036 -140 -868 -166 -1015 -182 -1024 -37 -21 -64
-57 -64 -84 0 -15 10 -55 22 -89 l21 -60 -52 -325 c-28 -178 -54 -334 -56
-346 -5 -23 -4 -23 89 -23 89 0 94 1 99 23 3 12 15 86 27 164 13 79 26 141 30
138 4 -2 33 -76 66 -165 l59 -160 101 0 101 0 -131 342 c-121 317 -131 348
-130 406 1 39 7 69 15 77 8 8 169 114 358 237 l344 223 33 78 c117 274 372
558 632 704 69 38 92 65 92 103 -1 43 -22 65 -145 155 -220 160 -929 724
-1179 939 l-50 42 28 139 c147 738 661 2034 1430 3609 80 164 146 305 146 313
0 30 -31 71 -61 82 -39 13 -36 13 -76 -4z m-896 -4847 c180 -145 374 -297 430
-338 56 -41 102 -77 103 -80 0 -3 -13 -13 -29 -23 -60 -35 -189 -147 -276
-239 -117 -124 -191 -228 -273 -385 l-67 -127 -250 -162 c-191 -125 -251 -159
-253 -146 -1 9 61 407 138 885 77 477 140 870 140 872 0 3 2 5 4 5 3 0 152
-118 333 -262z"/>
<path d="M13324 7450 c-31 -12 -54 -49 -54 -87 0 -22 32 -96 91 -215 517
-1032 1023 -2213 1276 -2976 114 -346 236 -823 220 -864 -13 -35 -967 -802
-1232 -991 -60 -44 -115 -89 -122 -101 -30 -53 -7 -97 79 -147 168 -98 347
-259 471 -424 39 -52 96 -148 136 -228 l68 -138 364 -235 c200 -130 368 -240
373 -244 5 -6 -52 -170 -137 -397 -81 -214 -147 -392 -147 -396 0 -4 44 -7 98
-7 l98 0 74 198 c40 108 76 201 80 205 4 5 22 -84 40 -197 l33 -206 93 0 c52
0 94 3 94 8 0 4 -27 173 -60 377 -45 280 -58 382 -53 423 5 44 2 58 -14 80
-16 22 -52 228 -187 1072 -92 575 -169 1052 -171 1060 -3 9 34 45 96 95 126
101 134 114 119 208 -116 752 -643 2118 -1461 3785 -149 304 -160 323 -193
337 -40 17 -43 17 -72 5z m1346 -4571 c0 -6 65 -416 145 -911 80 -495 144
-904 143 -909 -2 -5 -127 72 -278 170 l-274 178 -56 110 c-31 60 -85 151 -120
203 -80 116 -247 292 -365 383 -49 38 -91 72 -93 76 -1 4 78 68 175 144 98 75
297 233 443 351 146 118 268 215 273 215 4 1 7 -4 7 -10z"/>
</g>
</svg>
