<?xml version="1.0" standalone="no"?>
<!DOCTYPE svg PUBLIC "-//W3C//DTD SVG 20010904//EN"
 "http://www.w3.org/TR/2001/REC-SVG-20010904/DTD/svg10.dtd">
<svg version="1.0" xmlns="http://www.w3.org/2000/svg"
 width="600.000000pt" height="564.000000pt" viewBox="0 0 600.000000 564.000000"
 preserveAspectRatio="xMidYMid meet">
<metadata>
Created by potrace 1.16, written by Peter Selinger 2001-2019
</metadata>
<g transform="translate(0.000000,564.000000) scale(0.100000,-0.100000)"
fill="#000000" stroke="none">
<path d="M949 5384 c-58 -18 -133 -83 -164 -143 -46 -93 -52 -218 -14 -318 8
-21 4 -31 -26 -65 -32 -38 -45 -69 -74 -175 -15 -56 -55 -87 -129 -102 -189
-37 -291 -235 -210 -409 50 -105 194 -181 322 -169 135 13 263 76 382 190 75
70 155 179 175 236 12 35 17 36 104 19 155 -28 315 55 365 189 14 37 17 60 11
66 -17 17 -36 0 -54 -51 -21 -61 -87 -123 -154 -146 -47 -16 -157 -20 -203 -7
-24 7 -24 8 -25 121 0 105 -3 120 -27 166 -38 73 -69 106 -130 139 -46 26 -63
30 -133 30 -57 0 -89 -5 -113 -18 l-32 -18 -12 28 c-7 15 -12 71 -13 123 0 84
3 101 27 146 31 60 87 110 138 124 89 25 203 -3 257 -61 29 -31 59 -102 68
-159 10 -60 73 -125 130 -135 133 -21 198 -79 239 -208 4 -11 13 -17 23 -15
24 5 19 47 -12 107 -43 85 -122 140 -225 156 -63 10 -105 54 -114 120 -17 109
-86 195 -190 234 -65 24 -121 26 -187 5z m116 -493 c168 -78 197 -316 64 -522
-184 -285 -518 -406 -696 -254 -150 128 -81 389 110 420 109 18 157 63 179
170 25 125 120 205 242 205 38 0 76 -7 101 -19z"/>
<path d="M3130 5384 c-30 -8 -77 -27 -105 -43 -36 -20 -70 -30 -122 -35 -284
-25 -516 -226 -584 -506 -17 -71 -17 -219 0 -290 33 -136 125 -281 230 -363
268 -211 632 -189 871 52 115 116 190 284 190 424 0 36 9 68 35 121 60 121 67
228 26 349 -76 221 -318 351 -541 291z m181 -34 c133 -25 246 -111 303 -230
29 -61 31 -72 31 -175 0 -107 -1 -112 -36 -180 -28 -55 -37 -86 -42 -149 -9
-97 -51 -223 -101 -298 -78 -119 -219 -218 -357 -254 -78 -20 -214 -22 -289
-5 -223 54 -399 228 -456 453 -12 47 -15 91 -11 173 6 134 29 206 99 311 107
159 267 253 466 270 49 4 86 13 103 25 33 23 70 38 134 55 63 16 89 16 156 4z"/>
<path d="M3233 5204 c-8 -21 13 -42 28 -27 13 13 5 43 -11 43 -6 0 -13 -7 -17
-16z"/>
<path d="M3353 5144 c-8 -21 13 -42 28 -27 13 13 5 43 -11 43 -6 0 -13 -7 -17
-16z"/>
<path d="M2769 4951 c-108 -35 -180 -100 -233 -211 -27 -58 -31 -75 -31 -155
0 -85 2 -96 38 -167 43 -87 98 -143 186 -185 49 -24 68 -27 156 -28 93 0 105
2 166 32 80 39 150 111 187 191 24 50 27 69 27 157 0 94 -2 105 -33 168 -34
68 -55 88 -73 70 -6 -6 5 -37 28 -82 35 -67 38 -81 38 -155 0 -72 -4 -89 -33
-148 -60 -122 -168 -191 -302 -192 -112 -1 -211 47 -275 134 -48 65 -67 122
-67 205 0 159 103 291 261 331 79 20 159 8 245 -36 32 -16 62 -27 67 -24 53
32 -118 114 -235 113 -34 0 -86 -8 -117 -18z"/>
<path d="M3395 4510 c-8 -14 3 -30 21 -30 8 0 14 9 14 20 0 21 -24 28 -35 10z"/>
<path d="M4912 5386 c-23 -8 -54 -22 -68 -31 -21 -13 -31 -14 -56 -6 -42 15
-64 14 -105 -6 -53 -25 -75 -66 -70 -132 3 -48 8 -59 40 -87 l37 -31 0 -146
c0 -137 -1 -148 -21 -159 -48 -30 -75 -114 -63 -195 5 -35 16 -54 45 -83 48
-46 54 -98 16 -119 -47 -25 -62 -67 -62 -176 0 -82 4 -106 20 -134 32 -54 69
-76 129 -76 64 0 118 35 137 90 l13 35 96 0 96 0 13 -35 c19 -55 73 -90 137
-90 60 0 97 22 129 76 16 28 20 52 20 134 0 109 -15 151 -62 176 -38 21 -32
73 16 119 29 29 40 48 45 83 12 81 -15 165 -63 195 -20 11 -21 22 -21 159 l0
146 37 31 c32 28 37 39 40 87 5 66 -17 107 -70 132 -40 20 -65 21 -102 7 -22
-9 -37 -6 -81 16 -65 32 -159 40 -222 20z m43 -106 c0 -17 -8 -29 -27 -37 -24
-12 -62 -52 -99 -104 -20 -28 -49 -19 -49 15 0 51 115 161 160 153 9 -1 15
-13 15 -27z m71 -595 c8 -19 -13 -45 -34 -45 -38 0 -52 -30 -52 -110 0 -81
-13 -109 -45 -96 -21 8 -21 165 0 206 26 50 117 81 131 45z m-252 -26 c33 -26
36 -79 6 -109 -30 -30 -83 -27 -109 6 -28 35 -26 69 4 99 30 30 64 32 99 4z
m551 -4 c30 -30 32 -64 4 -99 -26 -33 -79 -36 -109 -6 -30 30 -27 83 6 109 35
28 69 26 99 -4z m-207 -287 c4 -37 -23 -85 -58 -103 -60 -31 -137 -10 -165 46
-22 42 -16 83 13 87 18 3 23 -2 28 -28 7 -32 37 -60 65 -60 28 0 59 33 62 66
2 28 5 30 27 24 17 -4 26 -14 28 -32z m-314 -129 c33 -15 59 -71 51 -109 -9
-41 -58 -80 -102 -80 -27 0 -43 8 -69 34 -38 38 -43 72 -17 116 27 47 84 63
137 39z m489 0 c30 -13 57 -59 57 -94 0 -41 -59 -95 -103 -95 -44 0 -93 39
-102 80 -8 36 17 93 48 108 29 14 70 15 100 1z"/>
<path d="M3220 3457 c-34 -75 -56 -158 -66 -245 l-7 -62 -33 21 c-42 26 -126
35 -183 19 -36 -9 -66 -33 -157 -122 -65 -63 -122 -129 -134 -153 -28 -59 -27
-139 4 -197 l24 -46 -61 -6 c-34 -4 -89 -14 -121 -22 -72 -19 -189 -70 -184
-81 2 -5 16 -33 31 -64 34 -71 63 -100 133 -134 50 -24 59 -34 86 -91 16 -35
42 -71 57 -80 24 -17 132 -74 139 -74 2 0 16 28 32 63 34 74 56 158 66 244 l6
61 46 -24 c58 -31 138 -32 197 -4 60 29 258 234 275 284 16 51 9 133 -18 184
l-21 40 62 7 c87 9 170 32 244 65 35 16 63 30 63 32 0 7 -57 114 -73 139 -9
14 -47 41 -83 59 -61 30 -68 37 -96 96 -17 35 -42 71 -57 80 -24 17 -132 74
-139 74 -2 0 -16 -28 -32 -63z m-167 -350 c18 -8 38 -22 46 -31 12 -15 12 -19
-1 -33 -15 -14 -18 -14 -39 1 -13 9 -39 16 -59 16 -20 0 -46 -7 -59 -16 -21
-15 -24 -15 -39 -1 -13 14 -13 18 -1 33 17 21 66 43 97 44 12 0 37 -6 55 -13z
m-176 -103 c7 -19 -93 -124 -119 -124 -32 0 -19 33 34 87 54 55 74 64 85 37z"/>
<path d="M4855 3504 c-146 -31 -273 -114 -320 -209 -19 -38 -20 -62 -20 -475
0 -492 -3 -472 83 -558 79 -80 255 -142 402 -142 147 0 323 62 402 142 86 86
83 66 83 558 0 413 -1 437 -20 475 -82 166 -360 261 -610 209z m238 -34 c202
-29 347 -139 347 -263 0 -68 -22 -109 -94 -172 -45 -40 -58 -57 -49 -66 15
-15 46 2 101 54 l42 41 0 -340 0 -340 -28 -45 c-76 -120 -297 -196 -492 -169
-155 21 -277 83 -332 169 l-28 45 0 340 0 339 41 -41 c50 -49 142 -96 230
-117 164 -38 469 2 413 55 -5 4 -40 0 -79 -10 -136 -36 -330 -19 -445 40 -56
29 -130 98 -146 137 -39 91 0 192 98 258 116 76 267 107 421 85z"/>
<path d="M4690 2769 c0 -25 33 -22 38 4 2 12 -3 17 -17 17 -15 0 -21 -6 -21
-21z"/>
<path d="M5301 2480 c-17 -10 -7 -40 14 -40 8 0 15 9 15 19 0 24 -12 32 -29
21z"/>
<path d="M5227 2364 c-14 -15 -6 -34 14 -34 14 0 19 5 17 17 -3 18 -20 27 -31
17z"/>
<path d="M1349 3487 c-19 -12 -49 -29 -68 -37 -40 -16 -71 -63 -71 -107 0 -30
-3 -33 -30 -33 -67 0 -120 -53 -120 -120 0 -27 -3 -30 -30 -30 -67 0 -120 -53
-120 -120 0 -27 -3 -30 -30 -30 -67 0 -120 -53 -120 -120 0 -27 -3 -30 -30
-30 -104 0 -154 -110 -91 -198 16 -22 35 -43 41 -47 8 -5 -60 -79 -184 -204
-205 -206 -215 -222 -176 -261 39 -39 55 -29 260 176 174 173 198 193 210 179
40 -48 129 -60 176 -22 15 12 42 27 58 32 38 12 76 68 76 109 0 29 3 32 34 33
18 1 43 6 55 13 30 16 61 69 61 106 0 28 3 30 35 31 20 1 47 9 61 18 28 18 54
70 54 107 0 19 6 23 34 25 19 1 44 7 56 13 29 16 60 69 60 105 0 27 3 30 36
32 73 4 123 67 109 139 -5 31 -26 59 -103 138 -128 130 -174 150 -243 103z
m146 -67 c16 -17 26 -30 23 -30 -3 0 -37 14 -75 31 -56 26 -64 33 -48 39 28
10 67 -6 100 -40z m-20 -63 c162 -76 175 -85 175 -132 0 -45 -29 -75 -72 -74
-49 1 -299 128 -317 160 -24 44 13 105 66 108 6 1 73 -27 148 -62z m-135 -158
c68 -33 132 -67 142 -76 41 -36 5 -123 -51 -123 -13 0 -83 27 -155 61 -179 83
-208 119 -146 181 38 37 44 36 210 -43z m-150 -150 c68 -33 132 -67 142 -76
28 -25 23 -77 -8 -102 -37 -29 -52 -27 -152 20 -48 23 -110 52 -139 65 -86 39
-104 85 -53 136 38 37 44 36 210 -43z m-250 -144 c58 -30 67 -42 46 -63 -14
-14 -20 -14 -66 8 -63 30 -77 45 -60 65 17 20 22 19 80 -10z m-52 -152 c128
-60 147 -72 159 -100 11 -29 11 -37 -1 -62 -16 -31 -34 -41 -71 -41 -30 0
-294 125 -311 148 -37 48 1 119 65 121 8 1 80 -29 159 -66z m-152 -194 c7 -13
-353 -379 -373 -379 -7 0 -13 6 -13 12 0 13 359 378 372 378 4 0 10 -5 14 -11z
m128 -16 c53 -26 64 -43 27 -43 -18 0 -90 49 -91 63 0 11 5 9 64 -20z"/>
<path d="M1210 1627 c-213 -62 -339 -270 -286 -476 l16 -65 -30 -31 c-33 -34
-37 -52 -16 -81 14 -18 -5 -39 -290 -325 -329 -331 -331 -333 -279 -384 51
-52 53 -50 384 279 286 285 307 304 325 290 29 -21 47 -17 81 16 l31 30 65
-16 c191 -49 395 60 465 249 26 71 26 193 0 264 -38 103 -133 199 -233 236
-63 24 -176 31 -233 14z m245 -66 c72 -36 149 -118 175 -187 16 -44 20 -75 18
-133 -3 -70 -5 -76 -26 -79 -52 -8 -187 39 -304 104 -115 64 -150 74 -155 44
-2 -10 35 -35 109 -75 143 -76 215 -104 289 -112 35 -3 59 -11 59 -18 0 -20
-61 -105 -94 -129 -75 -57 -116 -70 -211 -71 -51 0 -110 6 -137 15 l-48 14
-34 -33 -34 -33 -45 37 c-25 21 -55 51 -67 67 l-22 30 24 26 c12 15 27 30 32
33 5 4 6 17 3 30 -3 13 -11 45 -17 70 -6 26 -10 73 -8 105 l3 59 78 -3 c66 -3
77 -1 77 12 0 20 -39 36 -90 36 -21 0 -41 3 -43 8 -10 15 65 114 109 145 79
55 119 67 219 64 72 -2 100 -7 140 -26z m-491 -674 c9 -15 -29 -57 -284 -312
-163 -162 -301 -295 -307 -295 -7 0 -17 10 -24 21 -10 20 14 46 283 315 161
162 299 293 307 292 8 -2 19 -11 25 -21z"/>
<path d="M1003 1014 c-6 -17 42 -74 64 -74 27 0 26 31 -3 61 -31 32 -52 37
-61 13z"/>
<path d="M5143 1625 c-181 -49 -307 -190 -336 -376 -13 -87 0 -166 45 -258
l30 -63 -291 -292 c-315 -317 -318 -320 -266 -371 51 -52 54 -49 371 267 l293
292 48 -26 c58 -32 155 -58 215 -58 58 0 146 23 210 56 158 80 261 284 231
459 -45 264 -303 436 -550 370z m157 -76 c0 -5 4 -7 10 -4 6 4 7 -2 1 -17 -7
-20 -18 -24 -74 -30 -70 -8 -163 -46 -193 -79 -22 -25 -51 -24 -59 2 -5 15 1
27 22 45 36 32 113 72 160 83 54 13 133 13 133 0z m118 -33 c60 -31 105 -77
96 -99 -8 -21 -37 -22 -54 -2 -7 8 -37 29 -66 46 -62 35 -72 65 -26 78 1 1 24
-10 50 -23z m-228 -404 c0 -10 -7 -28 -17 -41 -13 -19 -14 -27 -4 -43 7 -11 8
-17 2 -14 -5 4 -13 1 -16 -5 -4 -5 -14 -8 -23 -4 -11 4 -36 -14 -78 -56 -63
-62 -87 -70 -101 -33 -4 11 23 44 96 115 98 96 141 121 141 81z m-254 -243
c18 -20 16 -22 -267 -305 -286 -285 -306 -301 -324 -256 -4 11 74 95 277 299
155 156 285 283 289 283 3 0 14 -9 25 -21z"/>
<path d="M3105 1538 c-76 -62 -137 -154 -151 -226 -6 -28 -10 -33 -28 -28 -61
17 -166 18 -238 2 -218 -49 -388 -259 -388 -481 0 -233 184 -448 417 -487 263
-44 517 138 566 406 l13 69 64 16 c80 20 140 55 203 116 61 61 96 120 119 204
20 74 23 138 8 193 -10 35 -13 37 -66 44 -69 8 -140 -1 -211 -27 -30 -12 -55
-19 -56 -17 -1 1 -17 32 -35 68 -18 36 -40 74 -50 85 -28 32 -105 95 -117 95
-6 0 -28 -15 -50 -32z m517 -218 l30 0 -4 -92 c-7 -147 -67 -250 -189 -328
-41 -27 -156 -68 -164 -58 -1 2 -5 19 -8 39 -5 35 -2 39 144 185 82 82 149
157 149 166 0 40 -42 11 -174 -121 l-139 -139 -30 60 c-30 61 -30 61 -12 95
28 51 118 131 181 160 55 25 145 44 172 37 8 -2 27 -4 44 -4z"/>
</g>
</svg>
