<?xml version="1.0" standalone="no"?>
<!DOCTYPE svg PUBLIC "-//W3C//DTD SVG 20010904//EN"
 "http://www.w3.org/TR/2001/REC-SVG-20010904/DTD/svg10.dtd">
<svg version="1.0" xmlns="http://www.w3.org/2000/svg"
 width="1200.000000pt" height="720.000000pt" viewBox="0 0 1200.000000 720.000000"
 preserveAspectRatio="xMidYMid meet">
<metadata>
Created by potrace 1.16, written by Peter Selinger 2001-2019
</metadata>
<g transform="translate(0.000000,720.000000) scale(0.100000,-0.100000)"
fill="#000000" stroke="none">
<path d="M4190 7169 c118 -16 265 -38 325 -49 219 -39 341 -59 410 -65 39 -4
108 -13 155 -22 95 -17 220 -36 387 -58 61 -8 155 -23 210 -34 54 -10 159 -26
233 -35 74 -9 180 -23 235 -32 55 -9 156 -24 225 -35 69 -11 181 -28 250 -40
69 -11 152 -24 185 -30 32 -5 63 -13 67 -17 4 -4 5 -52 1 -106 -5 -74 -10 -99
-21 -104 -22 -8 -293 23 -457 53 -201 37 -225 40 -225 26 0 -6 60 -111 134
-234 181 -302 216 -363 216 -379 0 -14 -98 -73 -240 -143 -41 -21 -105 -58
-143 -83 -56 -36 -66 -47 -55 -57 7 -7 72 -27 143 -45 72 -18 139 -38 150 -44
11 -7 43 -20 70 -30 28 -11 56 -23 62 -29 10 -7 -20 -45 -117 -147 -72 -76
-130 -144 -130 -153 0 -20 56 -41 212 -78 73 -18 137 -35 142 -39 9 -9 -10
-94 -53 -225 -16 -49 -27 -93 -24 -98 5 -9 144 1 233 18 36 6 71 10 78 8 8 -3
12 -29 12 -83 0 -121 6 -127 102 -90 70 27 83 25 108 -10 27 -38 123 -112 184
-141 29 -15 46 -29 44 -38 -5 -26 -122 -53 -260 -60 -122 -6 -128 -7 -165 -37
-21 -17 -48 -52 -60 -77 -15 -31 -30 -48 -45 -51 -34 -7 -508 -13 -508 -7 -1
3 -3 44 -5 91 -13 232 -20 286 -63 445 -33 120 -54 178 -110 293 -29 60 -161
206 -236 261 -50 36 -312 171 -333 171 -6 0 -44 15 -84 33 -146 67 -511 167
-678 188 -47 5 -108 14 -136 20 -27 5 -172 12 -320 15 -249 6 -282 5 -415 -16
-80 -12 -181 -31 -225 -43 -44 -11 -106 -23 -137 -27 -32 -4 -79 -15 -105 -23
-26 -9 -88 -28 -138 -42 -49 -15 -116 -36 -148 -46 -31 -11 -62 -19 -69 -19
-14 0 -173 -70 -243 -107 -105 -56 -273 -182 -346 -260 -24 -26 -65 -77 -91
-113 -52 -73 -148 -249 -148 -271 0 -8 -6 -25 -13 -40 -32 -60 -67 -182 -66
-227 1 -26 4 -36 6 -22 8 47 44 165 64 207 10 24 19 51 19 61 0 27 126 249
181 318 58 73 160 170 226 215 26 18 60 42 74 54 25 21 159 89 269 138 61 27
84 35 215 73 50 14 115 34 145 44 30 10 105 28 165 40 61 11 144 29 185 40 41
10 152 29 245 41 140 18 196 21 318 15 424 -18 636 -56 1057 -189 36 -11 74
-26 85 -33 11 -7 56 -26 100 -43 87 -33 247 -112 310 -153 57 -36 216 -204
247 -260 14 -26 32 -64 38 -85 7 -21 16 -42 19 -48 21 -31 95 -307 105 -395 8
-64 10 -299 3 -306 -3 -4 -34 -12 -69 -19 -35 -7 -77 -17 -94 -23 -17 -5 -36
-7 -42 -3 -6 4 -12 87 -14 216 -4 179 -8 221 -27 288 -33 114 -100 243 -165
313 -50 55 -72 70 -228 147 -95 48 -193 93 -218 102 -25 8 -103 35 -175 60
-71 24 -155 51 -185 59 -30 9 -95 27 -145 41 -131 38 -220 52 -426 70 -205 17
-381 19 -479 5 -220 -30 -297 -43 -314 -52 -11 -6 -96 -15 -190 -20 -440 -23
-610 -112 -870 -453 -51 -66 -98 -133 -105 -150 -8 -16 -17 -67 -21 -112 -7
-72 -32 -152 -72 -226 -16 -32 -21 -114 -9 -163 7 -26 8 -50 4 -55 -7 -6 -173
-39 -217 -43 -18 -1 -19 7 -18 119 0 98 -1 110 -8 65 -4 -30 -11 -89 -15 -131
l-6 -76 -48 -35 -47 -35 -56 28 c-82 42 -198 69 -333 79 -201 15 -1635 25
-1635 12 0 -9 138 -12 543 -13 592 0 951 -5 1067 -14 107 -9 255 -42 326 -75
66 -30 81 -44 66 -63 -17 -21 -100 -288 -123 -392 -18 -81 -23 -150 -29 -365
-4 -146 -13 -422 -20 -615 -8 -226 -10 -549 -6 -910 5 -522 11 -644 36 -701 7
-19 3 -24 -31 -39 -35 -16 -41 -17 -57 -2 -32 29 -216 37 -856 36 -340 0 -620
2 -622 4 -3 3 3 38 13 78 15 62 18 117 17 344 -1 286 -13 381 -64 525 -10 30
-24 74 -30 98 -18 69 -38 81 -212 129 -13 3 -18 -1 -18 -16 0 -14 6 -21 20
-21 25 0 125 -26 146 -38 20 -11 87 -205 103 -297 35 -192 40 -416 16 -631
-16 -147 -20 -161 -43 -168 -27 -8 -174 -35 -206 -38 -16 -2 -31 -9 -34 -16
-6 -18 67 -15 177 8 88 19 134 20 731 20 350 0 661 -4 691 -9 30 -5 80 -12
112 -16 31 -4 57 -11 57 -17 0 -6 -21 -35 -46 -65 -48 -56 -56 -76 -81 -208
-11 -63 -13 -128 -8 -310 3 -126 10 -250 15 -275 4 -25 13 -71 19 -103 14 -78
20 -97 33 -97 6 0 8 12 5 27 -40 210 -49 299 -50 498 -2 174 1 224 17 295 23
100 32 119 89 183 38 43 53 52 128 74 81 24 96 25 440 30 l356 6 22 -31 c19
-28 21 -41 19 -134 l-3 -103 -512 4 c-347 3 -513 1 -513 -6 0 -6 10 -13 23
-17 12 -3 241 -6 509 -6 l488 0 4 -22 c3 -13 7 -140 10 -283 3 -165 12 -306
23 -388 l18 -127 232 0 233 0 0 23 c0 12 -5 99 -10 193 -9 164 -8 180 20 374
16 111 35 209 41 216 10 12 248 12 604 0 l90 -3 180 -133 c99 -73 186 -138
193 -144 10 -9 9 -33 -3 -117 -8 -59 -22 -135 -31 -170 -8 -35 -22 -93 -30
-129 -8 -36 -16 -75 -19 -88 l-5 -22 249 0 c216 0 250 2 255 16 24 63 96 437
96 502 0 67 -6 79 -96 178 -41 45 -74 85 -74 88 0 3 27 6 60 6 33 0 60 4 60
10 0 6 -30 10 -70 10 l-70 0 -77 69 c-114 101 -228 219 -220 228 8 7 1339 5
1346 -2 2 -3 -2 -18 -9 -34 -8 -21 -23 -34 -49 -42 -122 -40 -344 -159 -381
-203 -13 -16 -33 -18 -205 -16 -224 3 -225 3 -225 -10 0 -6 70 -10 189 -10
105 0 192 -4 195 -9 3 -5 -1 -23 -10 -40 -28 -56 -29 -106 -5 -130 33 -33 53
-23 78 39 22 56 54 100 71 100 6 0 8 -26 5 -64 -10 -120 57 -239 131 -234 18
1 43 -6 56 -15 30 -21 62 -22 99 -3 48 25 54 39 35 83 -26 60 -23 139 9 199
14 28 33 54 42 58 9 3 52 6 95 6 l78 0 53 -55 c59 -61 88 -74 125 -55 27 15
31 42 9 60 -37 30 -9 34 235 35 182 0 244 -3 247 -12 3 -7 -13 -51 -36 -98
-23 -48 -41 -89 -41 -92 0 -3 -7 -19 -14 -36 -33 -72 -83 -256 -120 -441 -19
-92 -18 -86 -7 -86 5 0 12 15 15 33 46 247 100 433 167 573 21 46 39 87 39 91
0 4 9 25 19 47 10 23 31 70 46 106 14 36 33 78 41 93 29 59 63 153 69 197 4
25 15 88 26 140 14 67 22 170 29 350 6 140 15 302 20 360 6 58 9 279 8 490 -1
360 -2 374 -10 210 -5 -96 -10 -278 -12 -405 -4 -341 -25 -798 -41 -900 -8
-49 -17 -120 -21 -157 -4 -37 -12 -72 -18 -77 -6 -5 -114 -13 -241 -19 -158
-8 -244 -16 -274 -27 -49 -17 -86 -12 -77 12 3 8 9 40 12 71 6 56 87 313 139
442 15 36 33 88 42 115 8 28 18 55 22 60 7 10 22 49 106 280 26 72 67 180 91
242 24 61 44 117 44 125 0 8 4 18 8 23 19 22 54 126 83 244 17 69 36 139 44
157 7 18 19 68 25 111 19 133 44 224 70 253 15 17 20 37 19 74 l0 51 -14 -30
c-26 -56 -66 -200 -80 -285 -25 -159 -114 -459 -194 -653 -6 -16 -11 -30 -11
-33 0 -2 -9 -23 -19 -47 -11 -23 -25 -60 -31 -82 -7 -22 -16 -44 -20 -50 -3
-5 -19 -46 -34 -90 -15 -44 -48 -134 -73 -200 -53 -138 -114 -301 -149 -395
-13 -36 -33 -96 -45 -135 -33 -104 -114 -271 -135 -279 -47 -18 -145 -19 -212
-1 -37 10 -73 22 -79 28 -20 15 -15 55 13 113 14 30 54 136 89 236 35 101 79
224 100 273 42 101 72 177 110 280 14 39 30 79 35 90 5 11 20 49 34 85 13 36
41 108 61 160 21 52 45 118 55 145 10 28 30 82 45 120 15 39 33 90 40 115 7
25 29 90 48 145 19 55 46 141 61 190 15 50 31 99 36 111 4 11 13 47 20 80 6
32 19 82 27 109 8 28 25 86 39 130 13 44 33 113 44 153 11 39 29 103 41 142
11 38 19 78 17 87 -4 20 -36 -77 -73 -217 -13 -52 -37 -133 -54 -180 -16 -47
-34 -112 -41 -145 -6 -33 -15 -71 -20 -85 -5 -14 -23 -72 -40 -130 -42 -140
-158 -488 -171 -513 -6 -11 -26 -63 -44 -116 -19 -52 -38 -97 -43 -99 -6 -2
-11 139 -14 345 -6 381 -34 759 -83 1098 -22 151 -60 254 -109 295 -9 7 -16
18 -16 25 0 23 120 62 260 84 67 11 527 17 537 8 3 -3 -7 -41 -21 -84 -36
-112 -55 -180 -63 -227 -15 -101 24 15 78 229 6 21 14 44 18 50 5 5 14 27 21
48 13 43 11 42 230 121 174 64 210 73 210 54 0 -7 -7 -23 -15 -36 -28 -39 -76
-135 -72 -145 1 -5 22 29 46 74 46 90 67 119 86 119 9 0 9 -13 1 -50 -5 -27
-7 -52 -3 -56 3 -4 80 -7 169 -7 128 -1 175 3 221 16 68 21 77 17 94 -45 20
-71 52 -304 63 -448 5 -74 16 -196 24 -270 8 -74 19 -200 26 -280 16 -198 31
-260 25 -105 -3 66 -10 158 -15 205 -5 47 -14 146 -20 220 -5 74 -16 176 -24
225 -8 50 -17 135 -21 189 -6 99 -34 252 -61 334 -8 23 -14 57 -13 75 0 17 -1
41 -3 51 -2 14 16 32 72 70 75 51 155 139 188 206 16 33 20 35 64 35 25 0 49
3 52 6 4 3 -1 39 -9 79 -8 40 -13 75 -10 78 3 3 61 4 130 3 101 -2 126 0 131
12 3 8 -11 48 -30 90 -52 110 -79 188 -70 196 5 4 34 13 64 21 79 18 171 67
238 124 30 26 28 36 -9 36 -47 0 -192 48 -250 84 -71 42 -76 53 -54 112 15 40
50 81 191 221 96 94 174 176 174 182 0 19 -16 20 -65 6 -60 -19 -136 -19 -245
-1 -94 16 -140 31 -140 45 0 5 15 35 33 68 51 90 59 105 118 243 57 134 53
132 193 105 43 -8 113 -19 155 -24 42 -5 117 -16 166 -24 50 -9 137 -20 195
-26 146 -16 442 -63 570 -92 25 -5 117 -18 205 -29 170 -20 289 -41 475 -85
121 -28 331 -59 474 -71 50 -4 87 -11 88 -18 1 -6 2 -110 3 -231 1 -121 7
-452 13 -735 6 -283 10 -741 8 -1017 l-4 -501 -25 -43 c-24 -39 -31 -43 -99
-61 -40 -10 -95 -32 -121 -48 -27 -17 -53 -28 -58 -24 -5 3 -9 27 -9 54 0 42
-4 52 -25 66 -22 14 -32 15 -64 6 -85 -26 -114 -111 -57 -170 15 -17 24 -32
19 -35 -4 -3 -39 -8 -76 -12 l-68 -7 7 40 c5 35 3 44 -19 66 -30 30 -55 32
-98 10 -38 -19 -64 -76 -49 -104 13 -24 13 -50 0 -50 -6 0 -29 -12 -51 -26
l-41 -26 -30 36 c-21 26 -37 36 -58 36 -31 0 -85 -40 -95 -70 -7 -22 20 -80
38 -80 6 0 18 -4 26 -9 11 -7 6 -19 -28 -57 -23 -26 -44 -58 -47 -71 -16 -63
-44 0 -44 98 0 58 5 80 31 132 39 77 136 227 147 227 5 0 15 -11 22 -25 27
-51 91 -49 123 5 33 55 13 113 -47 134 -13 4 -16 11 -11 24 4 9 12 41 17 70 9
49 27 67 43 42 10 -17 32 -11 64 16 25 20 31 34 31 63 0 47 -24 71 -72 71
l-36 0 14 41 c16 44 79 149 91 149 4 0 19 -12 35 -27 50 -48 117 -28 134 40 5
23 0 33 -30 62 l-37 35 28 37 c15 21 28 40 30 42 1 2 14 -6 29 -18 15 -11 39
-21 55 -21 29 0 69 33 69 56 0 7 3 19 6 28 8 22 -42 69 -67 63 -27 -7 -32 7
-19 49 12 34 12 35 55 28 38 -5 47 -3 69 19 33 33 34 76 2 106 -19 18 -31 21
-55 16 -28 -6 -31 -4 -31 17 0 13 14 43 30 67 37 54 39 99 8 128 -41 37 -65
38 -98 3 -41 -43 -39 -76 6 -122 28 -30 35 -43 32 -70 -2 -27 -7 -32 -23 -30
-11 2 -34 6 -51 9 -25 4 -35 0 -48 -18 -38 -55 -5 -129 57 -129 27 0 29 -2 22
-27 -10 -43 -21 -48 -51 -24 -56 44 -108 11 -102 -66 2 -32 8 -40 35 -53 18
-8 33 -18 33 -22 0 -3 -12 -21 -27 -38 l-26 -32 -24 31 c-19 24 -32 31 -59 31
-28 0 -38 -6 -54 -32 -27 -45 -25 -74 7 -104 l28 -25 -19 -32 c-32 -54 -73
-141 -80 -170 -6 -26 -9 -28 -39 -21 -52 11 -58 10 -78 -16 -31 -41 -35 -90
-8 -124 20 -25 27 -27 61 -22 38 6 38 6 32 -21 -16 -72 -18 -74 -58 -48 -38
25 -93 -7 -111 -63 -5 -17 1 -29 24 -52 l30 -31 -42 -69 c-23 -38 -46 -68 -52
-66 -5 1 -13 27 -18 56 -4 29 -11 58 -16 64 -5 6 -12 25 -15 42 -6 29 -4 32
22 37 41 8 59 54 38 95 -22 43 -80 58 -106 27 -16 -19 -27 -12 -45 32 -21 50
-19 56 15 48 46 -10 68 2 81 44 9 30 8 44 -4 74 -21 48 -56 58 -119 32 -14 -5
-18 1 -23 38 -7 42 12 227 22 227 3 0 18 -11 35 -25 34 -29 59 -31 93 -9 68
45 43 154 -35 154 -10 0 -21 4 -24 9 -5 7 51 157 76 204 8 16 11 16 31 2 33
-23 63 -18 86 14 25 34 27 88 5 119 -17 25 -56 29 -74 7 -34 -41 -41 18 -10
86 35 79 21 159 -28 159 -75 0 -108 -138 -46 -195 31 -29 38 -82 10 -77 -30 5
-76 -19 -91 -49 -32 -61 -10 -107 45 -95 17 3 30 2 30 -3 0 -5 -13 -42 -30
-82 -16 -41 -30 -75 -30 -76 0 -11 -30 1 -45 17 -24 26 -47 25 -73 -3 -63 -67
-42 -147 35 -138 21 3 22 -14 7 -70 -8 -30 -15 -93 -15 -141 -1 -85 -1 -88
-24 -88 -14 0 -44 20 -79 55 -49 48 -56 60 -56 94 0 45 -25 73 -69 75 -16 1
-32 4 -36 8 -5 5 12 76 41 177 3 11 8 10 27 -3 55 -41 89 -33 119 28 33 69 7
128 -56 128 -20 0 -36 5 -36 11 0 26 47 147 77 196 42 70 48 138 16 173 -22
24 -47 23 -80 -6 -25 -22 -28 -31 -27 -83 0 -35 7 -71 18 -92 17 -33 17 -36
-5 -113 -13 -44 -29 -83 -37 -85 -7 -3 -23 4 -36 16 -48 45 -100 17 -112 -61
-8 -46 34 -98 77 -98 16 0 29 -1 29 -3 0 -1 -6 -31 -14 -67 -21 -98 -29 -112
-51 -91 -29 27 -56 23 -90 -13 l-34 -36 -121 25 c-68 15 -187 30 -268 36 -206
13 -261 20 -269 33 -4 6 -10 39 -14 73 -3 34 -14 74 -23 88 -16 24 -20 25
-139 28 -67 1 -205 2 -307 3 -102 0 -201 4 -220 9 l-34 8 16 -24 c29 -41 118
-187 118 -193 0 -12 72 -127 77 -122 5 5 -111 214 -149 269 -15 21 -16 28 -6
32 12 5 323 -97 336 -109 3 -3 14 -6 24 -6 33 0 19 17 -24 29 -24 7 -59 19
-78 26 -19 8 -52 19 -72 25 -81 25 -46 30 190 30 l239 0 16 -37 c8 -21 18 -57
21 -81 8 -52 -1 -57 -79 -47 -51 6 -54 8 -44 27 6 11 26 37 45 58 19 21 31 41
26 44 -12 7 -30 -9 -82 -72 -42 -52 -45 -54 -83 -48 -32 5 -38 4 -35 -10 2
-12 18 -16 73 -18 120 -4 495 -36 615 -52 120 -16 319 -62 407 -94 107 -40
186 -107 239 -205 6 -11 23 -42 39 -70 33 -61 75 -187 75 -228 0 -16 9 -68 19
-116 18 -78 37 -184 62 -346 26 -168 40 -355 46 -591 l6 -262 -299 -5 c-181
-3 -319 -10 -349 -17 -61 -15 -95 -40 -147 -107 -22 -29 -44 -53 -48 -53 -5 0
-16 21 -26 47 -26 71 -101 249 -136 323 -33 69 -58 133 -113 295 -19 55 -48
141 -66 190 -17 50 -37 113 -44 140 -8 28 -28 97 -45 155 -17 58 -37 130 -44
160 -8 30 -28 102 -45 160 -17 58 -39 130 -48 160 -9 30 -20 59 -25 65 -4 5
-8 18 -8 29 0 11 -9 47 -19 80 -11 34 -32 102 -46 151 -32 111 -54 166 -54
141 -1 -19 44 -176 59 -211 5 -11 16 -47 24 -80 18 -71 38 -143 60 -205 8 -25
24 -76 35 -115 32 -114 72 -255 92 -330 32 -113 87 -288 159 -500 53 -156 75
-213 120 -310 21 -44 48 -105 60 -135 12 -30 33 -80 46 -111 13 -31 24 -61 24
-66 0 -21 58 -149 158 -348 58 -115 132 -264 165 -330 33 -66 77 -149 98 -184
22 -34 39 -67 39 -71 0 -14 -80 -73 -130 -96 -26 -12 -73 -29 -105 -39 -55
-16 -59 -16 -75 2 -10 10 -34 54 -53 99 -19 44 -50 105 -69 135 -19 30 -47 83
-63 119 -15 36 -52 115 -81 175 -29 61 -66 144 -84 185 -17 41 -35 84 -40 95
-5 11 -31 74 -58 140 -28 66 -68 158 -90 205 -48 103 -111 266 -129 335 -7 28
-26 97 -43 155 l-30 105 4 -105 c10 -247 28 -522 42 -620 9 -58 24 -170 34
-250 36 -291 114 -497 237 -630 81 -87 258 -229 388 -310 194 -122 358 -235
404 -280 25 -25 61 -72 78 -105 18 -34 33 -52 33 -41 0 25 -45 102 -82 142
-30 32 -47 83 -48 142 0 31 1 32 45 32 59 0 94 -32 165 -149 30 -51 66 -99 79
-108 23 -14 25 -14 38 3 17 23 16 37 -3 82 -46 106 -32 116 31 22 44 -67 102
-110 116 -88 5 7 9 22 9 33 0 11 9 28 20 38 24 21 26 72 5 124 -8 20 -13 38
-11 40 2 2 114 4 249 3 134 0 255 4 269 9 14 5 105 12 204 15 125 3 180 8 183
17 3 9 -36 10 -160 5 -90 -3 -275 -9 -411 -12 l-246 -7 -15 29 c-22 42 -75 88
-134 118 -50 25 -97 41 -243 85 -41 13 -88 29 -105 36 -29 13 -29 14 -5 15 14
0 77 8 140 16 143 20 175 21 275 5 366 -56 786 -171 908 -250 63 -40 64 -46
68 -456 l4 -370 -35 -17 -35 -17 47 -1 47 0 -5 383 c-2 210 -7 396 -9 413 -7
41 -44 77 -111 109 -50 24 -82 35 -254 94 -109 38 -235 66 -599 134 -36 7 -66
17 -67 22 -2 6 11 19 29 30 75 47 312 660 332 860 17 163 14 170 -50 185 -22
5 -107 14 -190 21 -82 6 -153 14 -157 18 -10 9 -12 191 -2 200 16 14 96 30
214 41 63 6 142 15 175 20 33 5 128 16 210 25 83 8 182 19 220 24 39 6 133 12
210 16 77 3 214 10 305 16 91 6 221 14 290 18 69 5 212 8 318 7 105 0 192 2
192 6 0 10 -66 21 -130 22 -125 2 -870 -38 -927 -50 -24 -5 -33 -2 -40 12 -8
16 -9 188 -4 729 l1 120 35 22 c60 39 60 121 -1 177 l-34 31 -4 895 c-2 492
-8 1044 -12 1226 l-7 331 69 37 c38 21 125 67 194 102 l125 64 145 -20 c80
-11 167 -25 193 -31 46 -11 53 -9 142 31 52 23 97 50 101 59 3 9 9 68 11 133
3 64 8 120 12 125 3 5 34 27 69 48 34 21 62 42 62 46 0 12 -27 11 -35 0 -3 -5
-26 -21 -53 -36 -46 -26 -48 -26 -102 -12 -30 9 -77 18 -105 21 -83 10 -244
36 -345 56 -164 32 -369 69 -535 95 -88 15 -200 35 -250 46 -49 10 -110 23
-135 29 -25 5 -81 14 -125 20 -287 36 -410 54 -485 70 -47 10 -128 28 -180 39
-52 11 -133 26 -180 31 -47 6 -137 20 -200 31 -357 63 -293 59 -857 59 l-522
0 6 -101 c4 -59 0 -161 -8 -247 -19 -201 -18 -278 1 -275 106 16 298 72 527
154 50 19 95 31 98 27 4 -4 -27 -51 -68 -105 -74 -97 -116 -172 -173 -308 -33
-81 -98 -197 -119 -215 -28 -23 -15 -38 56 -65 65 -25 84 -28 220 -29 82 0
149 -3 149 -5 0 -2 -69 -72 -154 -155 -145 -142 -173 -179 -199 -258 -9 -25
36 -74 92 -102 25 -13 84 -36 131 -52 47 -15 88 -30 92 -34 14 -11 -153 -101
-206 -111 -28 -5 -59 -12 -68 -15 -14 -4 -18 0 -18 19 0 61 -53 134 -116 161
l-31 14 -6 118 c-11 195 -62 446 -120 597 -115 301 -355 450 -635 393 -183
-37 -318 -115 -423 -246 -116 -143 -157 -340 -145 -685 3 -99 9 -207 12 -240
6 -59 6 -60 -26 -79 -48 -28 -70 -71 -70 -140 0 -56 2 -61 43 -102 24 -23 56
-46 72 -49 17 -4 36 -8 43 -11 7 -2 25 -30 39 -61 39 -89 72 -153 104 -207 17
-27 29 -50 27 -51 -2 -2 -27 -13 -57 -24 -74 -28 -81 -20 -81 85 0 79 -1 84
-23 89 -12 3 -56 -1 -97 -9 -41 -8 -100 -16 -130 -18 l-55 -3 2 30 c0 17 17
84 36 150 20 70 31 126 26 135 -4 9 -48 24 -116 39 -145 31 -210 51 -224 67
-9 11 15 42 120 153 72 76 131 143 131 149 0 14 -277 122 -311 122 -23 0 -119
32 -119 40 0 12 109 76 253 150 70 36 140 75 155 86 l27 22 -21 38 c-36 67
-134 233 -226 386 -48 81 -91 154 -95 164 -7 19 1 18 202 -16 95 -16 275 -40
409 -55 75 -8 76 -6 76 183 0 213 -28 502 -48 502 -11 0 -13 -9 -9 -36 l6 -37
-42 6 c-23 4 -64 11 -92 17 -151 33 -288 50 -395 49 -131 -2 -134 -1 165 -43
182 -26 331 -54 355 -66 16 -8 25 -70 31 -220 4 -80 3 -85 -16 -82 -11 1 -69
9 -130 17 -60 8 -141 21 -180 29 -104 22 -211 38 -680 100 -55 8 -138 21 -185
29 -102 19 -263 43 -380 58 -46 6 -109 17 -140 24 -30 8 -102 19 -160 24 -130
13 -353 47 -400 61 -63 19 -481 70 -565 69 -42 -1 4 -10 155 -30z m3910 -170
c69 -11 168 -26 220 -33 52 -8 176 -31 274 -50 98 -20 195 -36 215 -36 20 0
77 -7 126 -16 50 -8 127 -21 173 -29 45 -8 86 -16 91 -19 4 -3 86 -16 182 -30
96 -14 203 -33 239 -41 70 -16 195 -37 330 -55 47 -7 103 -16 125 -21 62 -13
258 -46 380 -64 61 -9 144 -23 185 -32 105 -20 207 -38 415 -72 163 -27 421
-70 613 -103 40 -7 71 -16 69 -22 -2 -5 -22 -16 -45 -25 -37 -13 -52 -13 -154
2 -286 42 -574 90 -653 107 -22 5 -76 13 -120 19 -132 17 -393 58 -510 81
-113 22 -280 51 -395 70 -143 23 -328 51 -390 60 -36 5 -92 14 -125 20 -58 10
-217 34 -430 65 -118 17 -313 53 -324 59 -4 3 -66 12 -137 21 -71 9 -169 24
-219 35 -49 10 -126 23 -170 30 -141 19 -135 17 -135 59 0 43 7 54 29 46 9 -3
72 -15 141 -26z m95 -134 c66 -13 165 -29 219 -35 54 -6 108 -15 119 -19 18
-7 15 -10 -24 -24 -24 -9 -60 -21 -79 -26 -19 -5 -69 -24 -110 -41 -137 -58
-266 -90 -361 -90 -70 0 -74 9 -55 137 9 60 16 114 16 122 0 18 110 8 275 -24z
m469 -79 c34 -8 138 -26 231 -41 543 -82 752 -114 870 -135 61 -11 121 -20
135 -20 27 0 320 -54 379 -70 20 -5 70 -13 111 -19 98 -12 305 -44 505 -77 88
-15 193 -32 232 -38 40 -6 74 -15 75 -21 2 -5 -33 -28 -77 -50 -44 -22 -116
-60 -159 -84 l-79 -44 -131 12 c-164 15 -281 30 -326 41 -46 11 -249 54 -380
79 -58 11 -161 28 -230 36 -173 22 -292 40 -380 59 -108 23 -321 56 -361 56
-19 0 -124 14 -234 30 -110 17 -251 38 -312 47 -67 10 -113 21 -113 28 0 6 34
52 75 103 41 51 75 99 75 107 0 19 18 19 94 1z m-1023 -227 c60 -23 95 -45
140 -87 153 -141 216 -301 281 -714 19 -123 23 -182 23 -428 0 -322 -9 -385
-70 -508 -71 -140 -170 -231 -305 -282 -56 -22 -81 -25 -185 -24 -195 1 -300
40 -410 153 -129 132 -217 308 -264 526 -60 281 -77 607 -42 830 29 185 69
270 173 372 81 79 160 128 262 163 70 25 97 29 199 29 108 1 124 -1 198 -30z
m-3296 -1059 c66 -6 170 -15 230 -19 61 -5 137 -16 170 -25 33 -10 94 -26 135
-38 76 -20 218 -64 300 -92 190 -65 264 -93 325 -124 39 -19 109 -55 157 -79
139 -70 194 -140 287 -366 22 -56 41 -205 47 -368 4 -155 4 -167 -15 -190 -19
-23 -21 -23 -48 -9 l-28 16 -6 164 c-5 123 -12 185 -29 245 -49 181 -190 363
-333 432 -23 11 -94 46 -157 76 -139 68 -206 92 -325 118 -109 24 -187 42
-280 63 -263 60 -343 69 -557 67 -113 -1 -229 -6 -257 -10 -43 -7 -59 -4 -114
20 -35 15 -90 33 -121 40 -31 7 -59 16 -62 20 -13 22 278 64 466 68 52 0 149
-4 215 -9z m3813 -54 c55 -30 79 -115 48 -174 -14 -27 -67 -72 -85 -72 -15 0
-16 13 -13 140 3 127 5 131 50 106z m-3645 -117 c62 -11 175 -35 252 -51 77
-17 178 -39 225 -48 183 -39 236 -58 447 -162 123 -61 157 -83 222 -144 42
-39 73 -75 68 -80 -4 -4 -42 -2 -85 4 -42 6 -151 20 -242 32 -91 11 -228 32
-305 45 -212 37 -321 54 -420 65 -362 40 -388 45 -404 71 -8 13 -49 58 -89
101 -54 56 -93 86 -148 114 -120 61 -96 71 184 73 147 1 205 -3 295 -20z
m2290 8 c3 -8 8 -40 12 -72 4 -32 16 -84 25 -116 11 -36 14 -61 9 -65 -30 -18
-116 42 -139 96 -18 44 -5 95 36 135 38 38 49 42 57 22z m1451 -69 c12 -51 43
-133 69 -186 26 -53 28 -65 16 -73 -16 -11 -219 -2 -232 10 -4 4 -7 39 -5 76
l3 69 45 26 c25 14 54 40 65 58 21 33 34 40 39 20z m-4602 -203 c170 -35 301
-105 430 -229 121 -116 186 -244 224 -444 18 -94 18 -353 0 -447 -34 -175 -64
-243 -164 -361 -145 -171 -346 -281 -547 -299 -92 -9 -322 11 -411 35 -93 25
-203 76 -300 138 -93 60 -112 79 -189 192 -67 98 -99 167 -114 242 -37 186
-38 200 -15 355 34 235 144 469 276 588 143 129 260 190 438 229 88 19 281 20
372 1z m768 -75 c30 -5 100 -14 155 -20 121 -13 301 -37 410 -57 152 -26 390
-61 495 -72 58 -7 143 -19 190 -29 l85 -17 32 -54 c52 -86 84 -247 81 -396 -3
-101 -5 -119 -18 -116 -8 2 -37 9 -65 16 -116 30 -257 56 -360 65 -60 6 -154
15 -208 20 -54 6 -243 10 -421 10 l-324 0 -11 75 c-6 42 -11 111 -11 153 0
120 -46 272 -114 380 -41 65 -44 63 84 42z m3680 -82 c0 -13 3 -33 6 -45 5
-20 2 -23 -20 -23 -29 0 -32 11 -15 59 13 36 29 41 29 9z m1748 10 c18 -18 14
-47 -12 -103 l-23 -50 -21 35 c-23 36 -21 66 4 108 16 24 34 28 52 10z m-306
-54 c10 -21 9 -36 -7 -82 -11 -30 -25 -57 -31 -59 -13 -4 -44 66 -44 98 0 21
41 69 60 69 6 0 16 -12 22 -26z m976 -21 c10 -18 -2 -69 -22 -90 -9 -10 -17
-7 -39 13 -32 30 -35 66 -7 94 22 22 50 15 68 -17z m-587 -169 c11 -32 5 -55
-21 -79 -18 -16 -21 -17 -45 -1 -32 21 -32 37 1 75 32 38 51 39 65 5z m-123
-41 c5 -18 -53 -73 -77 -73 -28 0 -27 29 0 64 22 28 68 33 77 9z m614 -5 c35
-29 26 -69 -19 -82 -17 -5 -26 -1 -39 19 -31 48 14 98 58 63z m148 -17 c13
-26 3 -50 -25 -57 -55 -14 -84 19 -49 57 22 24 60 24 74 0z m-1198 -98 c27
-16 29 -22 25 -57 -8 -59 -49 -75 -87 -34 -25 28 -25 48 1 82 24 31 23 31 61
9z m-1634 -56 c4 -67 4 -67 -120 -92 -99 -20 -256 -17 -284 6 -12 10 -15 26
-12 71 2 32 7 60 11 64 3 3 35 1 70 -5 84 -15 178 -13 252 3 33 8 65 13 70 12
6 -2 11 -28 13 -59z m1790 21 c26 -26 5 -103 -30 -114 -23 -7 -68 30 -68 56 0
48 68 88 98 58z m833 -37 c20 -16 22 -23 14 -47 -18 -52 -85 -38 -85 17 0 18
25 49 40 49 4 0 18 -9 31 -19z m-3335 -36 c-27 -20 -86 -20 -86 0 0 11 12 15
53 15 48 -1 50 -2 33 -15z m3465 5 c37 -20 11 -90 -33 -90 -50 0 -64 61 -20
84 33 19 29 18 53 6z m-3594 -47 c-9 -9 -19 -14 -23 -11 -10 10 6 28 24 28 15
0 15 -1 -1 -17z m2775 0 c10 -9 18 -24 18 -33 0 -48 -92 -69 -98 -22 -4 29 23
72 45 72 9 0 25 -7 35 -17z m135 -55 c18 -17 20 -25 12 -48 -6 -15 -21 -33
-34 -40 -20 -11 -28 -10 -50 4 -20 13 -25 25 -25 57 0 32 4 41 23 48 26 10 45
5 74 -21z m-4452 -17 c183 -15 463 -75 545 -116 82 -42 135 -122 162 -245 52
-239 106 -947 109 -1415 l1 -221 -42 -109 c-24 -61 -48 -123 -55 -140 -8 -16
-20 -48 -28 -70 -8 -22 -28 -76 -44 -120 -17 -44 -47 -118 -67 -164 -20 -47
-58 -148 -83 -225 -25 -78 -60 -172 -78 -211 -17 -38 -36 -80 -41 -93 l-9 -24
-694 2 -694 1 -103 95 c-75 70 -105 104 -110 127 -9 46 -36 95 -129 242 -113
179 -145 244 -145 300 0 31 -7 55 -21 74 -15 20 -19 39 -17 72 3 41 6 45 48
66 59 29 71 28 149 -6 264 -117 479 -187 538 -176 19 3 51 21 70 39 30 27 36
41 40 83 5 46 -1 65 -76 233 -73 164 -80 185 -66 200 16 18 10 36 -68 203 -21
43 -37 84 -37 91 0 26 -102 210 -155 281 -76 100 -177 208 -246 261 -33 25
-59 49 -59 54 0 4 15 17 33 27 52 31 149 126 218 213 40 51 73 83 89 87 45 11
97 41 123 73 52 61 58 159 16 228 -19 33 -19 34 0 95 10 34 25 95 32 135 l14
74 380 -6 c209 -3 434 -9 500 -15z m4883 -13 c28 -28 0 -88 -42 -88 -12 0 -27
9 -34 20 -28 45 39 105 76 68z m-7801 -82 c18 -32 33 -64 33 -70 0 -7 -13 -22
-30 -34 -16 -13 -37 -39 -45 -59 -51 -121 30 -258 167 -281 38 -7 46 -14 108
-105 80 -117 108 -147 178 -193 28 -19 52 -39 52 -44 0 -4 -35 -27 -77 -51
-130 -70 -187 -114 -274 -209 -92 -100 -252 -318 -330 -448 -27 -45 -49 -86
-49 -89 0 -4 12 -17 26 -28 l27 -21 -79 -135 c-135 -233 -128 -216 -125 -286
1 -41 50 -98 96 -113 39 -13 257 8 376 36 37 9 80 14 95 12 l29 -3 6 -225 c7
-248 32 -539 55 -639 10 -44 11 -67 4 -71 -6 -3 -128 -7 -273 -9 -144 -1 -316
-6 -382 -11 -66 -5 -125 -10 -131 -10 -6 0 -17 26 -24 57 -17 81 -27 1541 -11
1780 6 95 14 268 17 385 7 270 23 387 80 569 70 228 85 252 201 309 67 32 144
49 213 46 31 -1 37 -7 67 -60z m7901 8 c26 -18 28 -46 6 -68 -22 -23 -57 -20
-83 7 -25 27 -20 54 13 67 30 13 39 12 64 -6z m-1021 -42 c8 -32 -1 -37 -47
-23 -44 13 -51 32 -19 55 26 18 57 3 66 -32z m96 -13 c27 -14 37 -28 37 -51 0
-22 -10 -22 -60 -1 -43 19 -50 36 -22 52 22 13 19 13 45 0z m-6879 -125 c3
-42 16 -112 28 -155 11 -44 18 -82 15 -85 -3 -4 -23 -3 -44 1 -53 10 -118 79
-128 134 -12 72 13 139 64 166 51 28 57 22 65 -61z m1864 -19 c55 -62 53 -144
-6 -215 -28 -33 -97 -69 -110 -56 -3 4 4 34 16 69 11 34 26 96 32 137 18 118
20 120 68 65z m5364 -62 c32 -29 17 -103 -21 -103 -29 0 -71 39 -71 65 0 24
33 55 59 55 8 0 23 -7 33 -17z m419 -23 c25 -14 24 -41 -1 -73 -18 -23 -24
-25 -49 -16 -39 14 -46 45 -16 75 27 27 37 29 66 14z m-545 -25 c9 -38 -1 -40
-26 -6 -21 31 -21 31 -1 31 14 0 23 -9 27 -25z m422 3 c18 -18 14 -52 -9 -82
-34 -44 -79 -29 -79 27 0 43 17 67 48 67 16 0 33 -5 40 -12z m-240 -180 c15
-15 16 -64 1 -73 -20 -13 -59 5 -65 30 -11 43 34 73 64 43z m-82 -96 c-9 -8
-14 0 -21 33 l-6 30 16 -28 c9 -16 14 -31 11 -35z m248 52 c20 -8 20 -28 0
-59 -20 -30 -49 -32 -64 -5 -21 39 21 81 64 64z m952 -31 c24 -32 12 -123 -16
-123 -11 0 -25 104 -16 125 7 20 16 19 32 -2z m-838 -19 c30 -21 28 -48 -8
-86 l-30 -33 -25 28 c-29 33 -32 63 -8 89 20 22 42 23 71 2z m784 -25 c-2 -8
-5 -25 -7 -39 -2 -14 -4 -27 -4 -29 -1 -3 -6 0 -12 6 -15 15 -2 86 14 80 7 -3
10 -11 9 -18z m-361 1 c42 -23 13 -134 -38 -146 -21 -6 -31 -2 -50 20 -38 44
-29 82 27 120 29 19 35 19 61 6z m-726 -95 c19 -71 21 -165 4 -196 -16 -30
-24 -13 -38 81 -7 41 -17 94 -22 116 -8 31 -8 47 1 64 17 32 35 11 55 -65z
m1036 23 c13 -18 28 -36 34 -40 9 -5 11 -121 8 -430 -2 -233 -5 -428 -7 -434
-3 -7 -48 -14 -113 -18 -59 -4 -178 -15 -263 -26 -85 -10 -180 -20 -210 -22
l-55 -3 -6 48 c-4 26 -19 67 -33 91 -27 46 -130 135 -208 180 -27 16 -48 29
-48 30 0 2 11 15 25 30 14 15 25 33 25 40 0 23 -34 44 -83 51 -26 4 -50 11
-53 16 -6 11 64 118 87 132 11 7 22 3 41 -16 23 -23 30 -25 60 -17 63 18 87
76 48 118 -28 30 -25 39 20 62 55 28 61 26 54 -18 -4 -27 -1 -49 10 -70 15
-28 21 -32 60 -32 75 0 123 69 90 131 -17 33 -9 48 26 49 8 0 32 3 53 6 37 7
37 6 37 -28 0 -48 28 -72 74 -64 73 14 108 73 71 122 -8 10 -15 24 -15 30 0
22 165 99 242 113 4 0 17 -14 29 -31z m-573 -40 c17 -17 15 -49 -4 -76 -20
-29 -79 -31 -94 -3 -14 27 -13 35 11 65 22 28 66 35 87 14z m286 -74 c19 -7
21 -55 4 -72 -7 -7 -29 -12 -50 -12 -35 0 -38 2 -38 27 0 47 40 74 84 57z
m-7528 -58 c116 -57 194 -76 366 -88 118 -8 181 -8 251 0 90 11 201 45 258 79
25 15 29 15 52 0 94 -61 227 -201 322 -337 43 -61 125 -221 125 -242 0 -8 20
-56 44 -106 25 -50 48 -106 51 -124 l6 -34 -101 -47 c-97 -46 -173 -77 -191
-77 -4 0 -11 10 -15 23 -3 12 -44 98 -89 190 l-84 169 33 91 c53 151 39 168
-151 187 -71 6 -152 10 -182 8 l-54 -3 -37 -90 c-21 -49 -44 -92 -51 -96 -129
-58 -180 -101 -273 -232 -37 -53 -72 -100 -79 -105 -28 -24 -540 -133 -554
-118 -8 8 8 136 33 256 14 70 26 98 66 159 49 73 58 112 12 56 -26 -32 -162
-234 -239 -355 -26 -41 -49 -76 -50 -78 -3 -4 -189 103 -242 140 -43 29 -53
50 -32 64 6 3 17 21 25 39 17 42 207 307 295 411 88 106 152 159 269 223 52
29 102 56 110 61 24 14 34 12 106 -24z m6966 -13 c38 -35 9 -93 -47 -93 -59 0
-76 53 -27 89 33 25 50 26 74 4z m298 -3 c38 -38 14 -93 -46 -105 -41 -8 -59
13 -51 63 10 60 58 81 97 42z m-217 -102 c23 -36 -37 -93 -70 -66 -19 16 -16
39 9 65 25 26 45 27 61 1z m-152 -245 c35 -7 36 -15 8 -52 -31 -42 -21 -62 43
-96 71 -38 170 -119 193 -158 l18 -30 -39 6 c-21 3 -75 9 -119 13 -44 4 -87 8
-95 10 -8 1 -27 3 -42 3 l-28 1 0 94 c0 61 4 97 12 102 8 5 7 10 -4 18 -8 6
-18 33 -22 60 l-8 49 27 -7 c15 -4 40 -10 56 -13z m-6136 -154 c48 -12 74 -34
59 -49 -5 -5 -56 -10 -114 -11 -123 -2 -186 -10 -182 -24 1 -6 28 -9 60 -7 66
4 184 -33 240 -75 54 -40 25 -46 -68 -13 -82 29 -150 39 -150 22 0 -4 26 -13
58 -20 59 -12 149 -63 159 -89 13 -33 -15 -34 -74 -4 -55 27 -179 55 -161 36
4 -4 36 -17 70 -29 44 -15 64 -27 67 -40 3 -18 -2 -18 -62 -12 -81 8 -108 -2
-138 -51 -13 -21 -41 -57 -63 -81 -34 -37 -52 -46 -150 -77 -524 -163 -958
-265 -1128 -265 -102 0 -158 42 -158 118 0 30 175 349 201 365 11 7 39 -5 101
-42 48 -28 90 -56 93 -61 4 -6 -5 -26 -19 -44 -22 -29 -32 -34 -85 -40 -34 -4
-61 -11 -61 -16 0 -6 8 -10 18 -10 39 0 273 32 372 51 173 33 515 104 552 115
10 3 46 44 79 92 93 132 142 185 196 215 95 51 200 68 288 46z m296 -246 c35
-71 73 -153 84 -183 19 -52 23 -55 52 -53 34 3 59 -18 50 -41 -5 -13 -18 -11
-84 10 -107 35 -163 61 -163 77 0 7 -16 44 -35 83 -19 38 -35 75 -35 83 0 19
52 151 60 151 4 0 36 -57 71 -127z m-1401 40 c-14 -64 -30 -169 -30 -195 0
-37 -20 -49 -107 -64 -97 -17 -93 -17 -93 0 0 20 28 46 43 40 9 -3 39 37 82
108 94 156 121 185 105 111z m7414 -4 c47 -6 72 -6 81 1 15 13 25 -7 25 -49 0
-31 6 -30 -200 -51 -47 -5 -95 -12 -107 -16 -22 -6 -23 -4 -23 58 0 36 3 68 7
72 8 7 106 1 217 -15z m-1667 -76 c35 -125 68 -220 84 -247 10 -17 19 -37 19
-44 0 -6 20 -54 44 -105 49 -103 111 -248 151 -351 15 -37 42 -103 62 -145
l34 -76 -20 -170 c-12 -93 -23 -184 -25 -201 -3 -18 2 -41 10 -53 13 -18 13
-21 1 -21 -8 0 -44 31 -80 69 -140 148 -229 423 -267 821 -5 56 -11 104 -14
108 -2 4 -9 88 -15 187 -6 99 -14 199 -16 223 -6 54 17 58 32 5z m-4483 -39
c9 -25 7 -34 -8 -34 -19 0 -28 14 -20 34 8 20 20 20 28 0z m-144 -29 c23 -8
70 -19 103 -25 71 -11 109 -39 87 -64 -18 -23 -57 -20 -152 10 -101 32 -138
50 -138 68 0 28 40 32 100 11z m707 -62 c8 -21 26 -60 38 -88 57 -123 105
-244 105 -266 0 -34 -36 -88 -66 -99 -71 -27 -203 12 -567 168 -81 35 -96 47
-79 64 7 7 12 26 12 43 0 17 7 40 15 52 8 12 12 28 9 37 -4 9 0 18 9 22 13 5
144 -31 282 -78 43 -14 184 -48 201 -48 27 0 14 18 -18 25 -111 22 -139 35
-154 72 -9 20 -12 39 -7 44 16 16 167 88 186 88 12 1 23 -12 34 -36z m-731
-38 c126 -19 155 -27 168 -47 7 -12 6 -21 -4 -33 -12 -14 -24 -16 -69 -11
-104 12 -241 72 -225 97 7 12 14 11 130 -6z m18 -100 c45 -13 92 -25 105 -27
28 -3 35 -16 21 -38 -6 -10 -26 -15 -63 -15 -63 1 -147 38 -191 84 -36 37 -27
57 16 35 17 -9 67 -27 112 -39z m-420 6 c3 -5 -6 -42 -19 -82 -29 -84 -26
-115 13 -151 112 -106 322 -97 361 14 9 25 15 29 43 26 33 -3 33 -3 36 -62 2
-32 10 -69 18 -82 10 -14 13 -34 10 -51 -8 -36 48 -154 149 -314 84 -132 122
-205 112 -215 -4 -4 -49 3 -99 16 -82 20 -117 23 -288 23 -169 -1 -212 -4
-325 -27 -229 -46 -442 -127 -580 -222 -36 -24 -69 -44 -74 -44 -11 0 -49 266
-62 435 -6 77 -13 229 -16 337 l-6 197 34 14 c19 8 52 17 74 21 41 8 129 31
245 66 36 10 99 29 140 40 41 12 107 32 145 45 83 28 82 28 89 16z m6506 -51
c47 -5 143 -14 214 -20 172 -15 170 -14 163 -104 -9 -98 -64 -324 -102 -411
-7 -16 -18 -48 -25 -70 -7 -22 -16 -44 -21 -49 -5 -6 -9 -16 -9 -23 0 -8 -20
-57 -45 -110 -25 -52 -45 -97 -45 -100 0 -3 -14 -34 -31 -69 -37 -79 -76 -106
-192 -134 -115 -29 -337 -44 -356 -25 -13 13 -12 17 2 33 22 24 22 23 -14 77
-55 81 -379 726 -379 754 0 11 18 47 40 80 43 64 46 71 30 71 -5 0 -28 -27
-50 -60 -23 -33 -45 -58 -51 -55 -14 9 15 58 76 123 59 64 89 77 203 92 85 11
495 11 592 0z m-6010 -64 c15 -1 25 -7 25 -16 0 -17 -34 -28 -97 -29 -56 -1
-98 13 -98 33 0 19 33 25 95 18 28 -3 61 -6 75 -6z m4976 -700 c-12 -53 -31
-50 -21 3 8 42 14 53 24 47 4 -3 3 -25 -3 -50z m54 -50 c0 -12 41 -94 104
-209 21 -38 36 -70 34 -72 -9 -9 -214 18 -227 30 -19 18 -5 76 17 73 14 -3 18
11 25 92 9 116 12 127 32 110 8 -7 15 -18 15 -24z m-2740 -302 c0 -8 -4 -14
-10 -14 -5 0 -10 9 -10 21 0 11 5 17 10 14 6 -3 10 -13 10 -21z m2871 -14 c26
0 32 -6 49 -45 18 -42 22 -45 57 -45 27 0 42 -6 50 -19 7 -11 24 -26 39 -33
27 -13 47 -57 59 -130 9 -50 -7 -50 -89 -3 -160 93 -366 242 -366 265 0 9 131
19 158 13 8 -2 27 -3 43 -3z m377 -13 c5 -26 -25 -56 -83 -83 -59 -28 -88 -30
-109 -8 -24 24 -20 31 32 50 26 10 65 29 87 41 45 26 68 26 73 0z m-2656 7 c5
-5 -5 -35 -46 -139 -18 -45 -56 -115 -62 -115 -6 0 -49 28 -156 103 -59 41
-158 93 -212 111 -31 11 -6 25 60 35 66 10 408 14 416 5z m-915 -29 c31 -8 79
-15 105 -15 51 0 55 -4 36 -45 -10 -23 -16 -25 -77 -25 -50 0 -75 5 -101 21
-44 27 -51 38 -39 61 12 22 5 21 76 3z m343 -4 c117 -34 201 -75 310 -150 36
-24 82 -56 103 -70 20 -13 37 -33 37 -43 0 -17 -15 -18 -264 -18 -227 0 -267
2 -280 16 -9 8 -16 20 -16 26 0 6 -18 37 -40 70 -22 33 -40 66 -40 74 0 32 41
80 82 95 24 10 43 17 43 18 0 1 29 -8 65 -18z m3365 -21 c6 -4 35 -13 65 -20
73 -16 182 -52 253 -84 54 -24 147 -98 147 -117 0 -16 -22 -10 -54 15 -44 33
-112 66 -136 66 -16 0 -9 -11 36 -56 74 -75 126 -189 94 -209 -6 -3 -14 5 -20
19 -18 49 -59 104 -104 141 -62 50 -81 40 -29 -16 46 -50 125 -185 121 -206
-6 -26 -23 -16 -66 38 -77 98 -153 179 -168 179 -8 0 -14 -1 -14 -3 0 -1 23
-46 50 -100 50 -97 65 -162 35 -151 -13 6 -58 73 -80 121 -19 43 -107 133
-148 153 -82 40 -106 20 -90 -73 6 -34 8 -65 4 -69 -10 -12 -95 60 -108 92
-15 35 -53 174 -53 194 0 8 14 16 34 20 19 4 53 24 78 46 41 38 45 40 93 34
28 -4 55 -10 60 -14z m-5701 -122 c58 -46 105 -89 105 -96 1 -11 -43 -12 -226
-6 -126 3 -271 9 -323 13 l-95 6 3 40 c5 84 6 85 73 85 84 0 240 18 291 34 24
8 49 12 56 10 7 -2 59 -41 116 -86z m1928 73 c34 -20 72 -29 147 -35 51 -4 62
-16 129 -135 54 -97 64 -121 58 -138 -11 -28 -46 -11 -103 50 -73 79 -127 105
-182 89 -54 -17 -82 -42 -115 -102 -26 -47 -28 -58 -23 -128 3 -42 9 -90 12
-105 7 -26 5 -28 -15 -25 -15 2 -31 20 -51 58 -34 65 -39 150 -13 226 8 25 13
49 10 52 -23 23 -51 -104 -42 -191 5 -55 35 -129 56 -142 19 -12 10 -35 -13
-35 -36 0 -95 65 -112 124 -19 62 -19 139 0 191 18 50 19 60 1 46 -40 -33 -46
-186 -11 -273 22 -56 15 -69 -22 -42 -73 55 -93 195 -40 288 15 27 27 52 27
57 0 19 -20 8 -34 -19 -9 -18 -27 -32 -47 -38 -37 -11 -64 -43 -84 -99 -16
-47 -41 -67 -55 -45 -20 32 19 135 68 182 31 30 172 118 189 118 5 0 77 32
168 75 41 19 58 18 97 -4z m4168 -166 c7 -9 10 -18 7 -21 -7 -8 -47 14 -47 26
0 15 26 12 40 -5z"/>
<path d="M7370 6370 c-197 -25 -377 -111 -437 -209 -28 -44 -29 -63 -3 -86 24
-22 54 -13 141 45 131 87 232 121 359 123 99 1 178 -18 299 -69 69 -30 87 -34
107 -25 27 12 28 18 13 58 -16 42 -48 72 -109 102 -107 54 -245 76 -370 61z
m215 -30 c124 -20 279 -124 246 -164 -14 -17 -33 -12 -151 40 l-85 38 -150 1
c-140 0 -154 -2 -216 -27 -36 -14 -88 -40 -115 -57 -166 -102 -174 -104 -174
-54 0 34 79 112 147 146 67 34 169 68 228 77 74 11 202 11 270 0z"/>
<path d="M7650 6081 c-52 -17 -108 -51 -133 -80 -66 -79 -75 -202 -21 -307 31
-62 100 -124 137 -124 16 0 10 7 -24 29 -111 70 -155 187 -120 318 23 84 132
153 241 153 162 0 260 -93 260 -247 0 -98 -48 -176 -138 -224 -49 -26 -53 -29
-24 -25 97 16 182 133 182 252 0 106 -52 193 -142 240 -33 17 -181 28 -218 15z"/>
<path d="M6991 6004 c-169 -63 -207 -302 -70 -444 88 -90 258 -93 373 -5 106
81 121 284 29 386 -54 59 -83 71 -192 75 -72 3 -107 0 -140 -12z m276 -40 c63
-41 95 -100 101 -190 13 -184 -170 -311 -358 -249 -52 17 -97 59 -129 120 -26
49 -30 189 -7 233 30 57 106 110 175 122 85 14 160 1 218 -36z"/>
<path d="M7092 5725 c-10 -21 -9 -27 3 -31 25 -10 45 4 45 31 0 34 -33 34 -48
0z"/>
<path d="M7740 5798 c0 -23 18 -41 34 -35 9 4 16 16 16 27 0 15 -7 20 -25 20
-14 0 -25 -6 -25 -12z"/>
<path d="M7703 5563 c15 -2 39 -2 55 0 15 2 2 4 -28 4 -30 0 -43 -2 -27 -4z"/>
<path d="M7516 5532 c-3 -5 -1 -33 4 -62 14 -75 12 -145 -5 -185 -32 -79 -82
-44 -114 79 -12 44 -21 94 -21 112 0 30 -11 50 -22 39 -2 -2 1 -40 7 -84 26
-181 97 -261 159 -178 19 26 21 41 20 149 -2 109 -12 156 -28 130z"/>
<path d="M7916 5478 c-45 -30 -55 -32 -130 -31 -52 0 -96 7 -124 18 -24 10
-46 15 -49 11 -14 -13 17 -27 95 -44 68 -14 90 -14 138 -4 55 11 134 55 134
73 0 15 -13 10 -64 -23z"/>
<path d="M7270 5415 c-67 -37 -220 -41 -282 -9 -32 17 -52 18 -42 3 16 -26 90
-49 162 -49 91 0 227 44 195 63 -4 3 -19 -1 -33 -8z"/>
<path d="M7834 5166 c-26 -19 -16 -26 26 -18 78 16 129 -16 114 -72 -8 -35
-71 -96 -128 -124 -25 -13 -48 -27 -51 -33 -13 -19 23 -8 84 29 120 70 155
160 82 209 -39 26 -97 30 -127 9z"/>
<path d="M7884 5090 c-22 -22 -206 -84 -312 -105 -118 -24 -344 -14 -376 16
-6 5 -21 9 -35 9 -51 0 2 -28 85 -44 151 -30 329 -15 494 41 90 30 170 70 170
83 0 13 -13 13 -26 0z"/>
<path d="M7054 5070 c-29 -11 -54 -49 -54 -80 0 -31 42 -77 86 -96 39 -16 94
-19 94 -4 0 6 -14 10 -31 10 -43 0 -106 38 -117 69 -11 32 0 66 27 80 11 6 45
11 75 11 31 0 56 5 56 10 0 12 -106 12 -136 0z"/>
<path d="M3140 4883 c-53 -5 -171 -33 -192 -44 -32 -17 -9 -30 27 -15 46 20
217 39 267 31 31 -6 39 -4 36 6 -8 23 -55 31 -138 22z"/>
<path d="M3780 4851 c0 -7 20 -11 53 -11 57 0 183 -31 234 -57 32 -17 56 -12
37 7 -5 5 -43 22 -84 36 -82 30 -240 46 -240 25z"/>
<path d="M3019 4702 c-53 -22 -124 -69 -155 -103 -12 -13 -35 -49 -50 -79 -24
-46 -30 -69 -32 -146 -5 -112 15 -161 94 -233 68 -62 149 -87 251 -78 95 9
146 27 197 67 110 88 154 241 108 373 -55 155 -267 258 -413 199z m176 -16
c67 -18 90 -30 147 -83 108 -102 118 -282 23 -407 -15 -20 -55 -53 -89 -73
-60 -36 -63 -37 -171 -37 -102 -1 -113 1 -155 26 -105 62 -150 136 -150 246 0
66 24 153 51 190 35 46 78 86 114 105 88 47 146 56 230 33z"/>
<path d="M3102 4381 c-18 -11 -11 -45 9 -49 20 -4 52 25 46 42 -5 14 -38 19
-55 7z"/>
<path d="M3820 4677 c-97 -37 -169 -106 -206 -197 -23 -57 -26 -75 -22 -155 3
-76 8 -98 31 -137 64 -111 191 -166 337 -147 159 20 258 109 290 261 30 147
-39 281 -182 354 -63 33 -189 43 -248 21z m213 -28 c73 -28 141 -87 174 -153
22 -43 26 -64 26 -132 0 -72 -4 -87 -33 -142 -44 -83 -98 -126 -191 -152 -92
-25 -111 -25 -195 1 -135 42 -204 134 -204 271 0 102 25 164 95 233 104 103
197 125 328 74z"/>
<path d="M3910 4360 c-11 -7 -12 -14 -4 -27 15 -24 29 -26 48 -7 29 28 -8 57
-44 34z"/>
<path d="M3536 4112 c-4 -7 6 -29 22 -49 17 -21 33 -48 37 -61 17 -57 -58 -71
-115 -22 -37 31 -63 39 -54 16 9 -24 91 -76 121 -76 19 0 39 10 57 29 l28 29
-20 43 c-27 59 -67 106 -76 91z"/>
<path d="M3725 3694 c-54 -23 -73 -26 -195 -26 -98 -1 -155 4 -208 17 -40 10
-75 15 -79 11 -10 -10 2 -17 64 -33 40 -11 105 -16 213 -16 136 0 162 3 213
22 32 13 57 29 57 37 0 8 -1 14 -2 14 -2 -1 -30 -12 -63 -26z"/>
<path d="M3642 1905 c-70 -30 -310 -30 -444 1 -21 5 -28 3 -28 -9 0 -54 530
-43 548 11 5 16 -36 14 -76 -3z"/>
<path d="M10136 2028 c-7 -18 -34 -78 -59 -133 -47 -105 -89 -219 -138 -370
-59 -186 -68 -220 -58 -230 13 -13 26 7 39 60 40 156 128 406 199 562 59 130
60 134 44 140 -7 2 -19 -11 -27 -29z"/>
<path d="M7131 7027 c97 -94 191 -193 210 -219 19 -26 39 -48 45 -48 5 0 35
39 66 88 31 48 111 147 178 220 l121 132 -398 0 -398 0 176 -173z m-34 133
c26 -6 111 -19 188 -30 167 -23 305 -51 305 -61 0 -4 -13 -18 -29 -32 l-29
-24 -108 19 c-320 54 -312 51 -357 97 -45 44 -43 46 30 31z m170 -134 c43 -8
113 -20 156 -27 43 -7 80 -16 83 -20 2 -4 -17 -39 -44 -76 -26 -37 -51 -76
-55 -85 -11 -31 -32 -20 -88 50 -29 37 -78 91 -108 120 -60 58 -59 59 56 38z"/>
<path d="M11948 5684 l-48 -24 0 -508 c0 -279 -3 -557 -6 -617 -8 -129 1 -148
65 -143 29 2 37 7 39 26 3 20 0 23 -17 17 -13 -4 -21 -2 -21 5 0 7 9 14 20 17
20 5 20 14 20 629 0 343 -1 624 -2 624 -2 -1 -24 -12 -50 -26z m27 -51 c-12
-30 -15 -169 -18 -653 -1 -256 2 -476 7 -490 8 -21 7 -23 -6 -13 -8 7 -18 9
-23 5 -4 -4 -5 128 -1 293 3 165 5 327 3 360 -1 33 -1 158 -1 279 1 174 4 220
15 227 22 14 32 10 24 -8z m-25 -1188 c0 -8 -4 -15 -10 -15 -5 0 -10 7 -10 15
0 8 5 15 10 15 6 0 10 -7 10 -15z"/>
<path d="M7268 4195 c-4 -16 -9 -145 -12 -285 -2 -140 -2 -237 0 -215 9 105
26 473 22 500 l-4 30 -6 -30z"/>
<path d="M7130 4175 c-7 -20 -10 -39 -7 -41 3 -3 10 11 17 31 7 20 10 39 7 41
-3 3 -10 -11 -17 -31z"/>
<path d="M7086 4084 c-24 -51 -12 -55 14 -5 11 23 17 41 12 41 -5 0 -16 -16
-26 -36z"/>
<path d="M8010 4103 c0 -5 12 -30 25 -58 14 -27 25 -55 25 -61 0 -6 7 -17 15
-24 22 -18 19 -10 -21 75 -33 69 -45 87 -44 68z"/>
<path d="M7050 4000 c-7 -17 -10 -33 -8 -36 3 -2 11 9 18 26 7 17 10 33 8 36
-3 2 -11 -9 -18 -26z"/>
<path d="M7011 3880 c-8 -19 -22 -44 -31 -55 -10 -11 -20 -31 -23 -45 -3 -14
-14 -58 -26 -97 -26 -89 -27 -118 -4 -86 l15 23 57 -48 c31 -27 79 -65 106
-85 28 -20 56 -42 63 -48 10 -8 0 -24 -48 -72 -98 -100 -188 -210 -183 -225 4
-8 10 -4 19 13 7 14 27 40 43 58 16 18 50 57 77 87 26 30 66 70 88 88 23 19
42 37 43 41 1 3 -23 22 -55 42 -95 61 -192 147 -192 171 0 34 33 153 56 206 9
18 14 40 12 50 -2 11 -8 6 -17 -18z"/>
<path d="M8100 3890 c0 -16 31 -73 36 -67 2 2 -3 20 -11 40 -15 37 -25 47 -25
27z"/>
<path d="M8141 3795 c0 -11 6 -31 14 -45 13 -22 14 -23 14 -5 0 11 -6 31 -14
45 -13 22 -14 23 -14 5z"/>
<path d="M8276 3605 c3 -49 9 -108 14 -130 7 -29 8 -15 4 50 -3 50 -10 108
-15 130 -6 29 -7 15 -3 -50z"/>
<path d="M8185 3641 c-7 -25 -117 -132 -185 -181 -27 -19 -49 -38 -49 -43 -1
-4 9 -11 22 -16 12 -5 42 -30 67 -57 54 -57 106 -108 154 -151 25 -21 36 -40
37 -60 l1 -28 10 30 c11 28 9 31 -38 70 -53 43 -110 100 -134 131 -8 11 -30
31 -47 44 -43 31 -41 49 6 83 21 16 71 62 112 103 54 54 70 77 62 85 -8 8 -13
6 -18 -10z"/>
<path d="M6902 3540 c0 -19 2 -27 5 -17 2 9 2 25 0 35 -3 9 -5 1 -5 -18z"/>
<path d="M7257 3095 c3 -276 9 -490 15 -505 6 -15 10 -247 10 -600 -1 -575 -1
-576 -27 -730 -33 -192 -45 -238 -102 -370 -57 -132 -96 -195 -215 -350 -106
-140 -182 -274 -239 -429 -44 -117 -42 -111 -29 -111 5 0 16 21 24 48 25 84
111 272 124 272 4 0 6 -72 4 -160 l-4 -160 226 0 226 0 0 43 c0 23 5 60 11 82
5 22 11 132 13 245 l3 205 60 125 c33 69 73 156 89 193 20 47 35 69 49 72 11
2 121 6 245 9 l225 6 122 -80 c290 -190 809 -487 914 -522 6 -2 -3 -71 -26
-183 -19 -99 -35 -183 -35 -187 0 -4 93 -8 208 -8 l207 0 29 108 c16 59 32
113 36 121 9 17 13 -1 35 -133 7 -48 16 -91 19 -94 16 -16 17 16 1 90 -10 46
-21 106 -25 133 -11 75 -49 195 -76 241 -43 73 -211 188 -424 291 -279 134
-344 169 -420 227 -191 144 -393 397 -444 554 -15 47 -33 147 -46 252 -12 96
-24 177 -27 180 -10 9 7 -211 22 -295 8 -44 11 -83 7 -86 -4 -4 -34 -9 -67
-11 l-60 -3 2 32 c2 17 -2 35 -7 38 -10 6 -14 -1 -24 -47 -6 -27 -38 -40 -50
-20 -4 7 6 66 19 110 4 12 3 22 -2 22 -8 0 -24 -46 -48 -136 -4 -13 -364 -40
-375 -28 -5 5 -10 20 -12 33 -1 14 -8 26 -15 28 -9 3 -10 -4 -3 -26 10 -35 9
-36 -47 -46 -32 -5 -44 -3 -48 7 -3 7 -7 236 -10 508 -5 526 -20 1154 -34
1385 -6 92 -7 -23 -4 -340z m518 -1587 c2 -13 6 -41 7 -63 3 -39 2 -39 -37
-46 -22 -4 -71 -9 -110 -10 l-70 -4 -5 59 c-3 35 -1 60 5 62 5 2 48 8 95 13
47 4 91 9 97 10 7 0 15 -9 18 -21z"/>
<path d="M6886 3483 c-12 -44 -17 -88 -7 -73 11 18 26 90 18 90 -3 0 -8 -8
-11 -17z"/>
<path d="M8301 3390 c-1 -22 28 -183 34 -188 9 -9 5 81 -5 112 -5 17 -14 45
-19 61 -5 17 -10 23 -10 15z"/>
<path d="M8215 3064 c-4 -22 -11 -52 -16 -68 -12 -38 -12 -77 0 -56 11 19 34
151 27 157 -3 3 -8 -12 -11 -33z"/>
<path d="M6956 3065 c9 -39 22 -75 28 -75 7 0 -15 85 -25 95 -7 7 -8 0 -3 -20z"/>
<path d="M7921 2960 c0 -41 4 -124 9 -185 48 -572 65 -733 76 -745 3 -2 4 29
4 70 -2 59 4 90 24 143 14 37 26 82 26 101 0 18 7 47 16 65 8 17 13 37 11 44
-8 20 -37 -60 -37 -101 0 -41 -22 -106 -40 -117 -5 -3 -11 4 -14 17 -6 32 -24
225 -37 398 -6 80 -17 199 -24 265 -12 117 -13 118 -14 45z"/>
<path d="M6996 2925 c7 -44 25 -86 31 -69 2 6 -6 33 -17 60 l-21 49 7 -40z"/>
<path d="M8157 2828 c-3 -13 -8 -57 -11 -98 -7 -94 10 -51 20 52 6 66 2 91 -9
46z"/>
<path d="M7040 2794 c0 -7 7 -27 15 -45 10 -24 14 -28 14 -14 0 21 -28 78 -29
59z"/>
<path d="M7081 2653 c-1 -31 21 -113 31 -113 9 0 4 27 -18 95 -8 27 -12 33
-13 18z"/>
<path d="M8112 2575 c-14 -54 -15 -77 -2 -54 13 22 29 99 21 99 -4 0 -12 -20
-19 -45z"/>
<path d="M11753 2585 c-29 -8 -69 -21 -89 -30 -139 -58 -376 -272 -433 -391
-51 -106 -96 -240 -126 -379 -7 -33 -20 -87 -28 -120 -53 -203 -74 -403 -87
-795 -17 -548 -12 -896 13 -870 3 3 7 243 10 535 8 719 21 864 116 1240 79
320 123 413 248 540 129 132 264 220 373 245 80 18 82 19 75 30 -7 12 -7 12
-72 -5z"/>
<path d="M7126 2480 c3 -14 10 -32 15 -40 7 -13 8 -13 8 0 0 8 -6 26 -15 40
l-15 25 7 -25z"/>
<path d="M7153 2408 c3 -9 9 -32 12 -50 4 -18 15 -44 26 -58 17 -22 16 -16 -6
44 -14 39 -28 72 -32 75 -3 4 -3 -2 0 -11z"/>
<path d="M7211 2250 c-1 -18 16 -46 23 -40 2 3 -2 16 -9 30 -8 15 -14 19 -14
10z"/>
<path d="M620 833 c-14 -2 -160 -7 -325 -12 -236 -6 -129 -8 497 -7 527 1 797
4 795 11 -4 10 -909 17 -967 8z"/>
<path d="M9586 410 c3 -19 12 -73 21 -120 10 -56 13 -120 11 -187 -3 -57 -1
-103 4 -103 11 0 10 217 -2 307 -5 39 -16 86 -25 105 l-15 33 6 -35z"/>
</g>
</svg>
