<?xml version="1.0" standalone="no"?>
<!DOCTYPE svg PUBLIC "-//W3C//DTD SVG 20010904//EN"
 "http://www.w3.org/TR/2001/REC-SVG-20010904/DTD/svg10.dtd">
<svg version="1.0" xmlns="http://www.w3.org/2000/svg"
 width="225.000000pt" height="225.000000pt" viewBox="0 0 225.000000 225.000000"
 preserveAspectRatio="xMidYMid meet">

<g transform="translate(0.000000,225.000000) scale(0.100000,-0.100000)"
fill="#000000" stroke="none">
<path d="M610 1649 c-102 -41 -204 -207 -261 -425 -20 -75 -23 -114 -24 -249
0 -152 1 -162 26 -210 34 -67 77 -95 143 -95 77 1 129 30 236 134 77 75 108
97 155 115 122 46 358 46 479 1 47 -18 79 -42 157 -117 110 -104 159 -132 235
-133 66 0 109 29 143 95 25 47 26 57 25 205 -1 226 -46 395 -147 547 -68 102
-117 136 -200 141 -68 4 -79 -2 -200 -96 -75 -59 -152 -84 -252 -84 -100 0
-177 25 -252 84 -110 86 -133 98 -188 97 -27 0 -61 -5 -75 -10z m42 -366 c12
-11 18 -30 18 -60 l0 -43 42 0 c68 0 100 -49 61 -92 -11 -12 -30 -18 -60 -18
l-43 0 0 -42 c0 -68 -49 -100 -92 -61 -12 11 -18 30 -18 60 l0 43 -42 0 c-68
0 -100 49 -61 92 11 12 30 18 60 18 l43 0 0 42 c0 68 49 100 92 61z m1085 -5
c63 -59 -23 -153 -95 -102 -31 21 -31 87 0 108 31 22 68 20 95 -6z m-134 -180
c9 -11 17 -31 17 -45 0 -26 -41 -73 -64 -73 -30 0 -65 23 -74 49 -27 76 69
131 121 69z"/>
</g>
</svg>
