<?xml version="1.0" standalone="no"?>
<!DOCTYPE svg PUBLIC "-//W3C//DTD SVG 20010904//EN"
 "http://www.w3.org/TR/2001/REC-SVG-20010904/DTD/svg10.dtd">
<svg version="1.0" xmlns="http://www.w3.org/2000/svg"
 width="276.000000pt" height="176.000000pt" viewBox="0 0 276.000000 176.000000"
 preserveAspectRatio="xMidYMid meet">

<g transform="translate(0.000000,176.000000) scale(0.100000,-0.100000)"
fill="#000000" stroke="none">
<path d="M1367 1554 c-4 -4 -7 -20 -7 -34 0 -22 -6 -29 -29 -33 -76 -16 -130
-102 -131 -210 0 -60 -2 -70 -20 -74 -11 -3 -20 -14 -20 -24 0 -18 11 -19 220
-19 203 0 220 1 220 18 0 9 -9 23 -20 30 -17 10 -20 23 -20 77 0 36 -6 80 -14
98 -17 41 -79 96 -116 104 -23 4 -29 11 -32 36 -3 30 -17 44 -31 31z m91 -120
c45 -29 62 -73 62 -156 l0 -78 -140 0 -140 0 0 73 c0 94 20 134 80 165 49 25
95 23 138 -4z"/>
<path d="M2080 1540 c-19 -19 -20 -31 -18 -237 2 -139 7 -218 13 -220 6 -2 42
24 80 57 l70 59 138 1 c184 0 177 -7 177 180 0 192 16 180 -240 180 -187 0
-201 -1 -220 -20z m415 -160 l0 -135 -140 -5 c-148 -5 -167 -11 -219 -69 -11
-12 -23 -21 -28 -21 -10 0 -11 354 -1 364 4 3 93 5 197 4 l191 -3 0 -135z"/>
<path d="M2185 1429 c-15 -23 15 -30 121 -27 89 2 109 6 109 18 0 12 -20 16
-112 18 -74 2 -114 -1 -118 -9z"/>
<path d="M2185 1349 c-15 -23 15 -30 121 -27 89 2 109 6 109 18 0 12 -20 16
-112 18 -74 2 -114 -1 -118 -9z"/>
<path d="M315 1526 c-41 -18 -83 -69 -91 -111 -11 -59 10 -95 126 -210 l110
-110 110 110 c124 123 142 156 122 224 -15 49 -54 88 -105 103 -33 10 -47 9
-83 -4 -38 -13 -49 -14 -82 -2 -47 17 -69 17 -107 0z m116 -43 c27 -16 31 -16
58 0 79 47 171 -2 171 -90 0 -45 -3 -49 -100 -147 l-100 -101 -100 101 c-97
98 -100 102 -100 147 0 88 92 137 171 90z"/>
<path d="M1310 1115 c30 -32 79 -41 118 -21 37 19 50 46 22 46 -11 0 -29 -5
-40 -12 -15 -10 -26 -10 -53 0 -18 7 -42 12 -52 12 -17 0 -16 -2 5 -25z"/>
<path d="M422 673 c-7 -3 -19 -18 -27 -33 -18 -35 -20 -177 -4 -214 23 -50
103 -57 134 -13 11 15 15 49 15 120 0 91 -2 100 -25 122 -23 24 -61 31 -93 18z
m67 -47 c8 -9 11 -46 9 -101 -2 -71 -6 -90 -20 -99 -13 -8 -23 -8 -35 0 -15 9
-19 28 -21 99 -3 91 5 115 38 115 10 0 23 -6 29 -14z"/>
<path d="M1323 673 c-15 -3 -23 -12 -23 -24 0 -18 4 -20 30 -14 23 5 30 3 30
-9 0 -9 -16 -19 -42 -27 -57 -15 -122 -80 -138 -139 -22 -80 7 -164 73 -214
170 -128 400 65 302 254 -21 41 -80 88 -125 100 -49 13 -59 46 -10 35 25 -6
30 -4 30 13 0 27 -58 38 -127 25z m132 -126 c113 -64 111 -226 -5 -284 -56
-29 -104 -29 -155 0 -79 45 -107 143 -62 222 45 79 143 107 222 62z"/>
<path d="M1360 463 l1 -78 45 -33 c42 -32 64 -35 64 -9 0 7 -18 25 -40 40 -40
28 -40 29 -40 93 0 50 -3 64 -15 64 -12 0 -15 -15 -15 -77z"/>
<path d="M1182 597 c-28 -29 -31 -36 -19 -46 12 -9 21 -5 47 20 26 27 29 34
18 46 -12 11 -19 8 -46 -20z"/>
<path d="M1521 617 c-9 -12 -5 -21 20 -47 27 -26 34 -29 46 -18 11 12 8 19
-20 46 -29 28 -36 31 -46 19z"/>
<path d="M2080 600 c-18 -18 -20 -33 -20 -160 0 -192 -16 -180 240 -180 256 0
240 -12 240 180 0 192 16 180 -240 180 -187 0 -201 -1 -220 -20z m418 -120 l3
-95 -41 40 -40 39 -40 -39 -40 -39 -58 57 c-32 31 -60 57 -64 57 -3 0 -30 -32
-60 -72 l-53 -72 -3 99 c-1 54 0 105 2 112 5 11 44 13 198 11 l193 -3 3 -95z
m-249 -178 c-67 -1 -124 0 -127 2 -2 3 19 37 48 76 l53 72 74 -74 74 -73 -122
-3z m215 61 c42 -47 40 -63 -8 -63 -23 0 -41 9 -61 30 l-29 30 24 25 c13 14
27 24 30 23 3 -2 23 -22 44 -45z"/>
<path d="M2310 505 c-26 -32 13 -81 48 -59 22 14 27 41 12 59 -16 19 -44 19
-60 0z"/>
<path d="M307 514 c-15 -15 -6 -82 16 -124 16 -33 34 -51 67 -68 42 -21 45
-25 50 -70 4 -33 9 -47 20 -47 11 0 16 13 18 47 3 45 5 48 46 67 61 27 91 72
91 141 0 42 -3 55 -15 55 -11 0 -17 -15 -20 -50 -7 -62 -22 -91 -60 -110 -49
-25 -96 -19 -136 18 -30 27 -37 42 -42 86 -7 51 -19 71 -35 55z"/>
</g>
</svg>
