<?xml version="1.0" standalone="no"?>
<!DOCTYPE svg PUBLIC "-//W3C//DTD SVG 20010904//EN"
 "http://www.w3.org/TR/2001/REC-SVG-20010904/DTD/svg10.dtd">
<svg version="1.0" xmlns="http://www.w3.org/2000/svg"
 width="1080.000000pt" height="1080.000000pt" viewBox="0 0 1080.000000 1080.000000"
 preserveAspectRatio="xMidYMid meet">
<metadata>
Created by potrace 1.16, written by Peter Selinger 2001-2019
</metadata>
<g transform="translate(0.000000,1080.000000) scale(0.100000,-0.100000)"
fill="#000000" stroke="none">
<path d="M4590 10109 c-197 -21 -643 -132 -965 -241 -590 -200 -926 -395
-1379 -801 -240 -215 -512 -516 -648 -717 -10 -14 -36 -52 -59 -85 -278 -399
-479 -873 -568 -1335 -52 -276 -72 -727 -42 -965 7 -55 16 -142 21 -192 16
-161 116 -539 206 -779 151 -403 394 -817 651 -1107 42 -46 43 -50 43 -116 0
-168 75 -335 215 -477 80 -81 102 -97 195 -142 134 -66 214 -84 358 -84 100 0
114 -2 126 -19 7 -11 34 -42 60 -69 25 -27 46 -51 46 -54 0 -3 -17 -14 -38
-25 -52 -27 -152 -136 -201 -219 -82 -140 -164 -386 -221 -658 -108 -518 -179
-1401 -161 -1996 1 -19 6 -28 17 -28 15 0 16 18 12 173 -5 192 4 474 27 797
78 1101 253 1727 534 1904 22 14 46 26 52 26 7 0 51 -37 98 -83 308 -296 721
-537 1156 -677 155 -50 257 -68 435 -80 91 -6 235 -18 320 -25 668 -61 988
-39 1391 95 173 58 444 163 574 222 233 106 478 262 625 397 50 46 95 80 99
75 28 -33 142 -355 201 -573 140 -508 327 -1618 350 -2076 5 -94 9 -171 9
-172 1 -2 7 -3 14 -3 43 0 -56 852 -173 1475 -11 61 -27 147 -36 192 -68 376
-197 837 -304 1086 l-42 97 135 144 c230 248 392 484 553 808 92 184 183 408
233 573 18 59 30 78 75 123 180 175 251 455 176 693 -22 71 -82 181 -134 246
-31 38 -34 48 -40 140 -4 54 -10 106 -12 115 -4 13 13 29 63 61 188 121 370
371 450 619 l26 82 -34 65 c-55 107 -163 263 -239 344 -154 165 -344 271 -536
299 l-81 12 -12 84 c-16 113 -52 248 -101 379 -42 112 -192 410 -256 511 -88
136 -309 502 -334 552 -15 30 -37 85 -49 122 -30 90 -68 144 -164 234 -139
129 -257 200 -577 345 -180 82 -341 169 -402 216 -137 107 -167 129 -263 194
-159 106 -176 112 -496 183 -511 114 -734 140 -979 115z m1250 -1299 c489 -51
905 -218 1365 -549 245 -176 463 -381 589 -555 138 -189 319 -512 296 -526 -6
-4 -42 -10 -79 -13 -317 -26 -600 -221 -789 -542 -117 -199 -222 -600 -168
-644 21 -17 126 -52 173 -56 24 -3 73 -18 109 -35 37 -16 69 -30 72 -30 10 0
-102 80 -121 86 -10 4 -16 13 -13 20 3 9 -1 14 -12 14 -9 0 -32 23 -51 50 -31
47 -33 54 -27 107 3 32 15 87 26 123 11 36 20 75 20 88 0 13 4 20 10 17 13 -8
13 1 -1 27 -8 15 -8 19 0 14 7 -4 11 1 11 13 0 11 10 37 22 58 12 20 23 44 25
52 1 9 9 21 17 27 9 6 13 14 9 17 -6 7 20 51 44 75 7 7 13 20 13 28 0 8 14 20
30 25 19 7 30 18 30 30 0 12 7 19 20 19 11 0 25 12 34 28 8 15 17 26 20 25 3
-2 12 -3 19 -3 9 0 8 3 -2 9 -11 7 -8 11 10 16 33 11 68 38 69 53 0 7 9 11 23
9 12 -2 16 -2 10 0 -7 3 -13 9 -13 14 0 13 24 11 38 -3 9 -9 12 -9 12 0 0 7
-5 12 -11 12 -8 0 -8 5 1 15 7 8 18 15 26 15 7 0 15 9 19 19 7 24 36 36 48 19
6 -9 7 -8 3 4 -11 36 119 76 289 88 130 10 130 10 230 -21 131 -40 155 -50
155 -60 0 -5 18 -18 39 -29 92 -46 242 -175 273 -235 31 -58 56 -170 56 -245
0 -8 3 -52 7 -98 10 -117 -6 -196 -68 -322 -41 -84 -64 -118 -117 -170 -99
-97 -243 -168 -418 -205 -35 -8 -67 -16 -70 -19 -13 -14 172 3 224 20 14 4 13
1 -6 -15 -14 -11 -33 -21 -43 -21 -11 0 -15 -5 -11 -11 5 -8 -3 -10 -27 -7
-19 3 -50 0 -69 -8 -19 -7 -84 -16 -145 -20 l-110 -8 85 -8 c63 -6 110 -4 184
8 87 14 250 64 304 93 18 9 20 5 25 -42 44 -378 31 -815 -34 -1117 -93 -429
-381 -1000 -696 -1381 -115 -139 -401 -420 -499 -491 -223 -159 -458 -280
-804 -411 -268 -102 -452 -157 -627 -189 -116 -20 -158 -22 -448 -22 -228 0
-370 4 -495 17 -96 9 -249 22 -340 27 -224 14 -317 32 -507 95 -349 117 -670
290 -953 516 -115 91 -393 366 -387 382 2 6 17 15 34 21 18 6 35 15 40 20 9 9
-38 5 -137 -14 -68 -12 -189 -7 -270 11 -25 6 -92 34 -150 61 -92 45 -115 61
-195 142 -72 73 -99 108 -133 176 -54 109 -75 193 -76 300 -1 304 214 543 537
595 20 3 37 10 37 15 0 26 -151 -5 -247 -51 -36 -17 -66 -29 -68 -27 -10 12
-130 395 -154 493 -121 502 -118 1110 8 1620 79 316 186 580 314 770 340 507
827 927 1451 1251 389 201 803 306 1396 353 151 12 578 12 690 1z m2855 -3535
c45 -93 65 -181 65 -290 0 -110 -18 -185 -69 -290 -36 -74 -162 -229 -147
-181 16 49 47 274 57 415 6 86 9 230 6 321 l-5 165 29 -35 c17 -19 46 -67 64
-105z"/>
<path d="M7982 6950 c-122 -17 -249 -81 -324 -164 -50 -55 -124 -207 -137
-280 -53 -298 113 -561 404 -642 66 -18 184 -17 264 1 175 42 327 183 391 365
32 90 33 227 2 327 -79 256 -340 427 -600 393z m-42 -189 c64 -52 62 -161 -4
-227 -43 -43 -91 -55 -158 -40 -72 16 -102 57 -96 133 12 141 156 216 258 134z
m514 -459 c27 -12 32 -31 27 -99 -2 -33 -12 -56 -46 -108 -31 -47 -64 -72
-149 -115 -74 -38 -83 -40 -167 -40 -85 0 -90 1 -119 30 -17 17 -28 35 -25 40
3 6 2 10 -3 10 -5 0 -12 9 -15 20 -5 19 0 20 79 20 106 0 175 25 244 87 52 47
101 129 115 192 l7 34 13 -29 c7 -16 24 -35 39 -42z"/>
<path d="M5980 6712 c-8 -2 -52 -29 -97 -59 l-83 -55 -95 27 c-58 16 -106 24
-121 21 -37 -10 -115 -86 -172 -169 -27 -40 -107 -173 -177 -297 -171 -301
-202 -347 -289 -425 -64 -59 -73 -71 -67 -93 6 -21 21 -30 102 -56 52 -18 122
-46 155 -63 371 -193 464 -232 611 -258 239 -42 453 13 659 169 33 25 142 129
244 232 102 103 218 212 258 242 91 68 97 105 22 127 -49 14 -144 67 -204 113
-48 37 -223 187 -246 212 -28 30 -200 178 -251 217 -97 73 -212 127 -249 115z
m125 -563 c50 -8 72 -15 63 -20 -9 -6 -7 -9 10 -9 12 0 44 -11 70 -24 27 -13
65 -28 86 -31 20 -4 35 -9 33 -11 -2 -3 -80 -13 -173 -24 -204 -25 -424 -61
-601 -101 -159 -35 -164 -35 -127 -7 54 43 63 52 58 60 -3 4 2 8 10 8 9 0 16
6 16 13 0 17 100 77 169 100 69 23 223 55 273 56 20 1 72 -4 113 -10z m55
-320 c0 -5 16 -9 35 -9 57 0 145 -38 156 -67 6 -18 6 -30 -2 -39 -6 -8 -14
-28 -18 -45 -3 -16 -10 -30 -14 -29 -4 0 -24 -19 -45 -43 -47 -55 -120 -103
-187 -123 -154 -47 -288 -39 -405 22 -61 32 -140 103 -140 125 1 18 35 59 49
59 6 0 11 4 11 9 0 5 29 22 65 40 36 17 65 34 65 39 0 11 223 60 320 70 79 8
110 6 110 -9z"/>
<path d="M3690 6405 c-219 -42 -364 -114 -512 -253 -125 -118 -242 -295 -310
-467 -54 -137 -104 -360 -94 -421 2 -16 5 -32 5 -35 2 -11 144 -60 187 -64 22
-3 66 -16 98 -31 31 -14 59 -24 61 -22 2 2 -19 19 -47 38 -29 19 -77 59 -107
88 l-55 53 1 67 c0 37 10 98 22 138 11 39 23 84 25 100 9 58 30 120 53 156 13
21 23 42 23 46 0 5 10 20 23 34 12 13 29 37 37 52 8 16 21 31 30 34 20 7 48
39 55 63 4 11 13 19 20 19 8 0 31 17 52 38 20 20 41 38 45 38 4 1 14 2 21 3 8
1 8 4 -3 11 -8 5 -11 12 -7 17 4 4 17 2 28 -6 19 -11 20 -10 14 10 -5 15 -4
19 5 14 16 -10 42 27 27 38 -7 5 5 6 28 3 22 -2 32 -2 23 0 -22 7 -24 24 -3
24 9 0 12 6 9 15 -4 8 -1 15 5 15 7 0 31 9 54 21 55 27 143 58 187 66 60 10
263 7 306 -5 22 -6 54 -18 70 -27 16 -8 35 -15 43 -15 8 0 28 -11 45 -24 17
-13 51 -33 76 -46 39 -20 96 -56 110 -70 3 -3 26 -22 52 -43 57 -45 107 -115
120 -166 50 -202 43 -517 -14 -567 -10 -10 -18 -22 -18 -28 0 -51 -146 -234
-200 -251 -11 -3 -20 -10 -20 -14 0 -12 -157 -83 -219 -98 -31 -8 -77 -20
-103 -26 -63 -16 -74 -30 -18 -23 116 14 166 15 180 5 13 -9 12 -10 -2 -5 -10
3 -18 1 -18 -4 0 -6 -16 -10 -35 -10 -20 0 -49 -7 -66 -15 -17 -10 -57 -16
-97 -16 -39 -1 -70 -6 -74 -12 -6 -9 -10 -9 -17 1 -7 11 -9 11 -14 -2 -6 -14
4 -16 67 -16 155 0 359 62 502 152 76 48 200 161 267 243 73 90 165 265 207
392 l27 83 -55 97 c-185 331 -425 534 -702 597 -103 24 -305 29 -400 11z"/>
<path d="M3690 6190 c-57 -10 -137 -40 -194 -74 -143 -84 -256 -295 -256 -479
0 -70 32 -195 67 -260 15 -29 59 -84 98 -123 119 -120 257 -173 419 -160 229
19 411 158 483 368 69 203 20 411 -132 563 -137 137 -309 195 -485 165z m-40
-170 c46 -23 58 -43 66 -104 9 -60 -24 -128 -77 -163 -34 -23 -47 -25 -97 -20
-70 6 -97 21 -118 66 -33 69 4 171 80 216 50 30 94 32 146 5z m522 -466 c78
-23 53 -172 -42 -261 -148 -136 -378 -152 -437 -30 l-21 43 102 -1 c119 0 166
17 242 87 43 40 112 157 115 198 1 8 4 5 6 -6 3 -14 15 -25 35 -30z"/>
<path d="M7400 1222 c0 -5 9 -112 20 -238 21 -247 46 -606 55 -799 7 -145 13
-185 26 -185 7 0 8 33 4 93 -3 50 -12 200 -20 332 -18 276 -53 725 -60 773 -3
17 -10 32 -15 32 -6 0 -10 -4 -10 -8z"/>
<path d="M3767 1008 c-31 -123 -74 -1008 -50 -1008 7 0 13 62 17 168 18 484
31 691 53 825 6 40 -11 53 -20 15z"/>
</g>
</svg>
