<?xml version="1.0" standalone="no"?>
<!DOCTYPE svg PUBLIC "-//W3C//DTD SVG 20010904//EN"
 "http://www.w3.org/TR/2001/REC-SVG-20010904/DTD/svg10.dtd">
<svg version="1.0" xmlns="http://www.w3.org/2000/svg"
 width="674.000000pt" height="825.000000pt" viewBox="0 0 674.000000 825.000000"
 preserveAspectRatio="xMidYMid meet">
<metadata>
Created by potrace 1.16, written by Peter Selinger 2001-2019
</metadata>
<g transform="translate(0.000000,825.000000) scale(0.100000,-0.100000)"
fill="#000000" stroke="none">
<path d="M3030 8079 c-157 -21 -352 -102 -464 -194 -72 -58 -91 -67 -130 -60
-45 9 -238 -11 -344 -36 -136 -31 -418 -149 -570 -238 -92 -54 -244 -202 -310
-303 -140 -215 -175 -507 -101 -840 37 -168 29 -193 -115 -380 -178 -231 -211
-310 -204 -482 5 -116 12 -134 128 -312 100 -154 106 -176 92 -366 -19 -252 7
-349 122 -463 86 -85 202 -135 315 -135 58 0 65 16 40 91 -24 74 -37 193 -21
203 6 3 17 -15 27 -44 27 -81 130 -208 227 -279 135 -101 417 -181 632 -181
40 0 76 -3 79 -7 4 -3 -8 -25 -27 -47 -113 -140 -307 -448 -469 -747 -68 -124
-133 -286 -164 -403 -45 -177 -33 -343 30 -395 32 -26 19 -38 -44 -45 -34 -3
-96 -6 -138 -6 -270 -1 -706 -127 -860 -249 -20 -16 -49 -54 -64 -84 -41 -85
-50 -173 -44 -427 6 -245 25 -387 76 -577 16 -60 48 -189 71 -288 69 -289 159
-644 182 -718 19 -58 25 -67 46 -67 17 0 22 4 18 18 -9 33 -134 547 -156 647
-12 55 -40 172 -61 260 -53 223 -93 424 -87 431 4 3 37 -8 75 -24 113 -49 140
-55 318 -72 153 -14 244 3 327 62 9 7 21 9 25 4 13 -12 16 -422 4 -521 -6 -49
-20 -157 -31 -240 -27 -192 -49 -422 -50 -502 0 -60 1 -63 24 -63 21 0 24 5
29 68 9 91 41 372 71 627 14 116 26 235 26 266 0 31 3 58 6 62 4 3 61 -42 128
-102 229 -203 660 -559 722 -597 29 -18 10 -29 -91 -57 -82 -23 -491 -141
-692 -200 -44 -13 -94 -32 -110 -43 l-28 -19 55 -3 c42 -2 82 6 165 33 61 19
175 54 255 76 80 22 210 61 290 88 80 26 152 49 160 52 13 3 16 -16 21 -121 3
-69 7 -126 8 -127 3 -7 30 -2 35 5 2 4 8 66 11 137 6 112 9 132 26 144 26 18
24 31 -5 31 -27 0 -97 50 -241 176 -116 100 -263 222 -500 417 -216 177 -215
177 -215 235 -1 26 -7 80 -14 120 -7 40 -11 74 -8 76 6 6 125 -50 250 -117
l113 -61 39 -81 c49 -100 129 -209 170 -230 78 -40 372 -58 588 -35 52 6 98 8
102 5 5 -3 -11 -45 -35 -94 -81 -163 -187 -443 -230 -609 -31 -118 -31 -124
-3 -120 19 3 27 19 55 113 68 234 243 653 290 694 l27 24 216 -6 c217 -6 242
-8 359 -28 147 -24 523 -172 600 -236 23 -19 23 -20 7 -52 -27 -52 -229 -254
-378 -378 -76 -63 -138 -119 -138 -124 0 -5 14 -9 30 -9 23 0 55 20 138 88
215 176 219 178 299 148 57 -21 169 -44 248 -52 100 -9 132 6 172 82 102 191
217 564 248 801 31 234 14 608 -32 737 -33 91 -112 251 -151 305 -32 44 -33
71 -2 71 10 0 71 14 136 31 66 17 129 33 142 36 28 7 41 -22 164 -357 49 -135
104 -276 122 -315 45 -97 117 -159 286 -246 58 -30 74 -33 148 -34 88 0 108
10 96 50 -10 33 -35 55 -116 103 -77 44 -99 68 -55 57 161 -39 470 -84 575
-85 109 0 137 11 176 70 30 45 32 58 20 109 l-7 35 39 -24 c114 -68 195 -112
201 -107 12 12 -6 33 -58 68 -108 73 -437 287 -552 359 -85 53 -115 76 -107
84 6 6 60 12 123 14 134 5 314 -20 528 -72 158 -39 266 -53 323 -42 l36 7 0
69 c0 75 -5 80 -46 54 -36 -24 -107 -14 -310 45 -94 28 -225 57 -291 67 -118
16 -123 16 -274 -6 -226 -32 -286 -38 -330 -33 -73 10 -32 43 67 54 48 5 73
14 109 40 l47 34 247 0 c268 1 272 1 409 67 l63 30 97 -18 c53 -9 123 -19 155
-22 55 -4 57 -3 57 20 0 23 -5 25 -167 52 -201 34 -248 47 -472 139 -114 47
-178 79 -188 93 -20 31 -43 183 -43 286 0 377 145 731 377 923 81 67 236 145
353 179 125 36 140 43 140 66 0 30 -27 26 -176 -24 -208 -70 -327 -139 -430
-247 -136 -146 -266 -417 -296 -619 -16 -109 -16 -411 0 -491 l14 -65 -59 -64
c-141 -155 -167 -178 -214 -190 -28 -7 -68 -30 -100 -56 -61 -50 -101 -61
-153 -44 -47 15 -72 49 -81 107 -22 149 -172 639 -295 963 -161 425 -368 799
-596 1077 -14 18 -23 37 -19 43 3 6 39 32 79 59 81 55 139 115 134 139 -4 21
-42 29 -135 31 -40 0 -73 5 -73 9 0 5 26 15 58 22 282 62 524 202 590 342 20
43 62 184 62 208 0 5 -9 10 -19 10 -11 0 -22 4 -26 9 -3 6 -28 7 -55 4 -61 -7
-106 10 -125 48 -33 62 -15 178 74 490 64 221 76 302 61 410 -16 118 -58 219
-132 320 -35 47 -155 141 -330 257 -87 57 -158 107 -158 111 0 4 -22 30 -48
58 -70 74 -101 140 -187 400 -44 132 -92 258 -113 295 -47 82 -198 232 -282
281 -80 46 -203 94 -290 113 -85 19 -296 25 -390 13z m375 -69 c170 -37 296
-102 414 -215 42 -40 93 -101 113 -135 37 -63 91 -202 148 -384 37 -120 96
-243 148 -311 39 -51 190 -173 348 -280 234 -159 334 -320 334 -542 0 -63 -21
-167 -60 -293 -49 -161 -80 -301 -87 -396 -7 -105 4 -148 46 -188 24 -23 41
-29 103 -34 l73 -7 -2 -30 c-4 -50 -62 -154 -118 -209 -110 -111 -410 -231
-634 -254 -35 -4 -66 -12 -68 -19 -9 -27 191 -92 289 -93 l33 -1 -29 -23 c-45
-37 -170 -96 -203 -96 -17 0 -38 8 -48 20 -25 28 -111 54 -180 55 -58 0 -77
-7 -207 -73 -26 -13 -173 235 -166 280 2 15 35 38 123 85 202 108 275 160 393
276 128 125 196 249 222 404 10 62 9 88 -5 175 -29 175 -83 301 -181 423 -30
38 -54 76 -54 85 0 9 7 43 16 75 9 33 17 98 19 145 l2 85 37 3 c21 2 36 9 36
16 0 16 -30 30 -139 67 -87 29 -122 52 -106 68 6 5 45 16 88 24 87 17 94 20
106 63 28 100 -122 394 -293 572 -108 114 -293 240 -429 292 -65 26 -102 33
-179 38 -67 3 -98 1 -98 -6 0 -17 12 -21 107 -38 48 -8 125 -30 171 -49 294
-120 595 -451 669 -737 11 -44 14 -71 8 -77 -6 -5 -82 -14 -170 -20 -523 -36
-1009 -123 -1390 -248 -143 -47 -385 -155 -557 -248 -76 -41 -142 -75 -147
-75 -12 0 -130 126 -181 194 -61 81 -80 139 -80 247 0 108 25 214 80 344 49
115 57 145 38 145 -15 0 -64 -76 -102 -160 -46 -101 -59 -174 -60 -330 l-1
-145 34 -64 c44 -80 209 -255 257 -273 41 -15 43 -28 8 -65 -46 -48 -84 -105
-84 -125 0 -24 7 -23 46 7 18 14 37 25 43 25 21 0 10 -37 -19 -65 -46 -44 -33
-77 16 -40 47 36 71 5 34 -43 -28 -35 -12 -47 39 -26 71 28 71 27 71 -247 0
-226 1 -242 25 -317 64 -202 230 -335 420 -336 84 -1 134 15 182 57 28 25 36
28 44 16 21 -33 0 -167 -36 -240 -37 -71 -95 -122 -191 -165 -88 -39 -101 -57
-44 -62 48 -5 144 46 222 118 l66 60 218 -8 219 -7 3 -45 c4 -46 -13 -146 -29
-171 -5 -10 -41 -16 -113 -20 -96 -6 -112 -10 -188 -47 -46 -23 -110 -62 -143
-87 -33 -25 -64 -45 -70 -44 -5 0 -55 16 -110 35 -55 19 -111 36 -125 37 -22
2 -25 -1 -22 -27 5 -41 46 -118 81 -152 17 -16 31 -32 31 -36 0 -18 -217 -7
-335 16 -314 63 -456 156 -586 386 -73 128 -96 145 -124 90 -32 -63 -28 -184
10 -272 10 -25 -14 -23 -109 8 -68 23 -88 36 -151 95 -106 101 -121 140 -116
294 7 235 6 321 -6 360 -12 40 -53 113 -151 273 -69 113 -81 169 -58 268 26
111 72 193 191 343 141 176 155 204 155 298 0 41 -10 120 -22 176 -19 86 -23
131 -22 287 0 181 1 187 32 280 46 136 101 229 194 326 95 99 157 140 369 244
274 135 482 187 704 176 66 -3 139 -9 163 -12 23 -3 50 -3 59 0 29 12 -9 38
-74 51 l-58 12 70 45 c80 52 173 100 228 118 161 52 404 65 562 30z m541
-1332 c14 -15 -3 -18 -142 -28 -76 -5 -166 -17 -198 -26 -106 -28 -228 -98
-318 -182 -44 -41 -48 -48 -48 -92 0 -111 128 -289 256 -357 139 -74 308 -84
425 -25 77 39 102 60 159 137 l43 59 32 -37 c37 -43 104 -175 133 -262 11 -33
26 -97 33 -143 17 -111 -3 -221 -62 -342 -80 -163 -295 -345 -548 -467 -144
-69 -350 -137 -459 -152 -123 -16 -347 -25 -425 -17 l-67 8 0 119 c0 120 -15
189 -40 189 -7 0 -31 -16 -54 -35 -55 -45 -122 -75 -169 -75 -140 -1 -315 123
-369 260 -19 49 -22 80 -26 288 -2 127 -1 232 2 232 3 0 30 -13 59 -29 163
-91 404 -87 551 11 63 41 100 88 146 183 49 104 64 168 64 288 1 82 4 100 18
108 39 22 -12 55 -127 83 -92 23 -220 29 -314 16 -45 -6 -85 -9 -88 -7 -13 14
506 165 672 196 33 7 78 16 100 21 42 9 241 41 380 61 44 6 105 15 135 19 66
10 235 8 246 -2z m122 -119 l65 -12 -6 -96 c-10 -174 -75 -321 -175 -398 -63
-48 -137 -67 -243 -61 -73 5 -98 11 -163 42 -96 46 -180 127 -224 216 -52 103
-44 122 85 199 92 54 113 52 73 -7 -53 -79 -49 -182 10 -275 38 -60 84 -93
155 -112 74 -19 98 -19 162 0 102 30 185 120 198 215 14 103 -33 215 -113 265
-17 11 -31 23 -32 28 0 11 135 8 208 -4z m-243 -43 c87 -40 125 -104 125 -211
0 -71 -33 -132 -94 -172 -45 -31 -54 -33 -132 -33 -64 0 -84 3 -84 13 0 27 39
49 97 56 71 9 94 21 130 68 50 65 30 169 -42 213 -80 49 -167 27 -220 -56 -33
-52 -69 -84 -96 -84 -27 0 -24 25 10 96 57 120 185 167 306 110z m-26 -142
c51 -65 0 -153 -79 -137 -36 7 -70 46 -70 79 0 12 12 36 26 53 35 42 92 44
123 5z m-1016 -65 c40 -6 75 -16 79 -23 14 -21 8 -143 -11 -238 -33 -166 -89
-247 -209 -305 -69 -33 -86 -37 -177 -41 -56 -2 -125 1 -154 7 -114 24 -235
106 -314 211 -58 76 -61 108 -14 144 60 46 222 137 225 126 2 -5 -4 -30 -13
-55 -35 -90 4 -230 82 -294 51 -42 113 -61 197 -61 144 1 244 83 276 226 20
87 -19 196 -91 257 -22 20 -38 40 -34 46 8 14 67 14 158 0z m-193 -57 c71 -44
104 -99 108 -182 5 -87 -20 -145 -81 -190 -72 -53 -196 -75 -230 -41 -13 13
10 50 36 55 124 24 139 29 171 60 85 80 44 224 -72 255 -77 21 -166 -22 -197
-94 -25 -61 -95 -85 -95 -34 0 12 12 48 27 81 30 68 51 82 158 109 83 22 115
18 175 -19z m993 21 c11 -10 -34 -53 -55 -53 -26 0 -23 35 5 48 26 13 41 14
50 5z m43 -74 c3 -6 -5 -22 -18 -36 -24 -23 -26 -24 -43 -7 -17 17 -16 19 5
36 25 20 46 23 56 7z m-1095 -77 c24 -21 31 -36 31 -64 0 -45 -5 -54 -44 -74
-35 -18 -63 -13 -101 17 -38 29 -37 80 2 120 37 37 72 37 112 1z m-211 -119
c0 -5 -15 -18 -33 -31 -27 -19 -33 -20 -35 -7 -6 29 7 45 38 45 16 0 30 -3 30
-7z m50 -71 c0 -16 -32 -52 -46 -52 -20 0 -29 27 -14 45 13 15 60 21 60 7z
m1273 -1281 c32 -62 57 -123 55 -134 -4 -28 -57 -63 -127 -85 -86 -26 -252
-24 -313 5 -48 22 -48 22 -47 70 1 26 6 77 13 113 l11 64 125 33 c69 17 139
36 155 42 59 19 66 13 128 -108z m472 -155 c289 -135 674 -824 949 -1696 76
-244 76 -248 10 -314 -51 -49 -79 -63 -141 -71 -95 -10 -95 -10 -234 302 -88
199 -144 306 -291 558 -261 445 -355 595 -374 595 -22 0 -17 -29 23 -112 20
-43 33 -81 29 -85 -12 -13 -96 39 -128 79 -86 109 -108 322 -63 613 12 82 20
104 42 127 22 23 35 28 77 28 32 0 69 -9 101 -24z m-268 -113 c-18 -67 -21
-107 -22 -273 0 -178 2 -201 23 -262 43 -123 128 -214 220 -233 17 -4 32 -12
32 -19 0 -7 -16 -59 -35 -117 -67 -197 -124 -404 -135 -491 -23 -174 5 -230
275 -553 160 -192 225 -279 225 -303 0 -22 -44 -61 -149 -132 -185 -124 -474
-195 -688 -170 -52 6 -120 18 -151 26 -88 22 -308 135 -401 206 -46 34 -109
81 -140 103 -83 60 -80 91 17 220 26 33 68 89 96 125 60 80 96 153 96 201 0
47 -59 167 -150 304 -123 188 -160 276 -160 388 0 87 41 212 165 508 90 212
160 391 166 422 2 10 8 17 14 15 6 -2 11 -49 12 -108 2 -106 22 -301 48 -465
23 -149 24 -147 -40 -178 -32 -16 -60 -37 -66 -51 -10 -21 -7 -30 20 -63 l32
-40 -17 -99 c-18 -112 -14 -197 12 -225 10 -12 30 -19 52 -19 24 0 45 -9 69
-30 40 -36 52 -37 88 -8 24 19 31 20 59 10 48 -18 71 -15 105 14 27 23 35 25
61 15 17 -5 37 -8 46 -4 24 9 44 58 44 108 0 43 -26 156 -50 220 -9 24 -7 33
16 66 26 37 26 40 9 65 -9 14 -39 35 -66 46 -27 11 -49 27 -49 34 0 8 17 58
39 111 52 133 114 325 147 458 14 61 35 126 44 145 24 46 89 122 100 115 4 -3
-2 -40 -13 -82z m-144 -2 c-10 -14 -48 -41 -83 -58 -57 -28 -75 -33 -145 -33
-130 0 -255 42 -270 91 -4 11 -5 22 -2 25 2 2 30 -8 61 -22 55 -25 65 -26 177
-22 115 4 121 5 196 44 71 36 78 38 81 20 2 -10 -5 -31 -15 -45z m-611 -15
c-5 -27 -293 -701 -334 -779 -13 -25 -93 -151 -178 -281 -85 -130 -195 -298
-245 -373 l-90 -138 -94 -5 c-59 -3 -96 -9 -98 -17 -5 -13 13 -19 84 -28 29
-4 55 -10 57 -14 3 -4 -17 -13 -44 -20 -116 -30 -205 -162 -177 -262 5 -22 3
-28 -13 -32 -30 -8 -81 32 -117 93 -31 50 -33 60 -33 145 0 161 33 271 151
507 137 273 342 610 495 808 79 104 251 277 324 327 99 67 174 93 260 90 48
-2 55 -4 52 -21z m150 -86 c44 -25 149 -50 218 -50 54 0 123 15 187 41 18 7
35 11 38 8 8 -8 -55 -219 -119 -401 -90 -254 -85 -248 -183 -248 -75 0 -105
16 -115 60 -8 36 -43 269 -58 395 -10 74 -13 215 -6 215 3 0 20 -9 38 -20z
m-725 -41 c35 -12 63 -25 63 -30 0 -12 -42 -39 -61 -39 -10 0 -31 18 -48 39
-47 59 -46 61 46 30z m924 -660 c46 -6 99 -15 117 -21 30 -9 33 -13 27 -37 -3
-14 -9 -37 -11 -51 -3 -14 6 -73 20 -130 26 -107 33 -175 17 -184 -4 -3 -22
-1 -39 3 -26 8 -38 5 -74 -19 l-42 -28 -37 21 -38 22 -23 -23 c-32 -29 -58
-28 -84 5 -17 21 -30 27 -60 28 l-39 0 -3 50 c-2 28 4 92 14 143 18 94 16 106
-18 154 -20 28 12 50 89 64 89 16 86 16 184 3z m781 -97 c32 -59 103 -188 159
-287 196 -350 427 -843 412 -882 -3 -7 -21 -17 -42 -21 -20 -5 -70 -17 -111
-27 -41 -10 -87 -24 -102 -31 -67 -34 -65 -36 -290 246 -178 223 -231 302
-254 375 -16 50 -16 58 5 166 11 63 39 175 61 249 22 74 52 177 67 228 15 50
29 92 32 92 3 0 32 -49 63 -108z m-1466 -167 c19 -114 42 -164 142 -311 146
-216 170 -284 130 -366 -27 -56 -197 -278 -213 -278 -6 0 -32 22 -58 50 -54
57 -111 96 -175 118 -29 10 -72 40 -126 91 -44 42 -96 87 -113 99 -18 13 -33
32 -33 42 0 21 100 188 291 484 103 162 135 204 137 185 1 -13 9 -64 18 -114z
m-438 -657 c17 -13 65 -54 106 -91 57 -52 90 -74 141 -92 111 -40 168 -94 205
-192 35 -94 37 -193 4 -305 -13 -45 -24 -9 -23 80 0 109 -17 187 -60 272 -27
52 -61 79 -61 46 0 -8 14 -52 31 -98 28 -73 32 -96 33 -188 1 -113 -8 -164
-27 -157 -12 4 -24 46 -50 177 -28 139 -81 249 -107 223 -10 -9 -5 -37 20
-125 28 -97 32 -123 27 -187 -3 -40 -10 -78 -15 -83 -11 -11 -32 42 -32 83 0
50 -48 183 -81 222 -17 21 -57 55 -89 77 -32 22 -69 54 -81 71 -23 32 -23 32
-33 10 -9 -21 -14 -22 -65 -16 -110 14 -159 53 -148 119 7 41 50 109 84 131
74 49 171 58 221 23z m3572 -117 c0 -13 -70 -55 -78 -46 -4 4 6 18 21 31 28
24 57 32 57 15z m197 -77 c50 -21 90 -41 87 -45 -2 -4 -43 -12 -91 -19 -147
-20 -255 -41 -308 -61 -27 -10 -54 -19 -59 -19 -18 0 30 43 129 117 114 85
103 84 242 27z m-903 -111 c32 -145 52 -258 71 -383 22 -151 38 -214 55 -218
9 -1 20 10 27 29 l12 31 93 -5 c115 -6 346 -33 413 -48 117 -25 295 -92 282
-106 -3 -3 -41 6 -84 20 -150 50 -341 85 -383 72 -24 -8 -26 -30 -4 -39 9 -3
30 -6 48 -6 80 0 366 -78 423 -115 43 -29 13 -37 -58 -16 -157 48 -391 90
-425 77 -39 -15 15 -38 157 -67 79 -16 160 -34 179 -40 164 -49 160 -64 -17
-56 -76 4 -165 11 -198 17 -215 37 -430 63 -457 54 -45 -14 -5 -57 127 -137
96 -59 112 -77 70 -77 -54 0 -248 102 -331 174 -36 30 -48 52 -83 148 -171
473 -241 672 -241 684 0 10 13 14 48 14 76 0 141 27 192 80 33 34 47 44 53 34
4 -7 18 -61 31 -121z m1123 22 c45 -19 38 -27 -52 -55 -57 -18 -104 -23 -255
-27 -136 -4 -182 -2 -175 6 6 6 60 18 120 26 61 8 151 25 200 39 110 29 117
30 162 11z m-4284 -77 c125 -177 189 -384 212 -687 16 -207 19 -499 6 -520 -6
-8 -17 -11 -32 -6 -13 4 -193 89 -399 189 -408 199 -437 212 -448 201 -7 -7
17 -30 74 -71 25 -18 27 -23 16 -37 -8 -9 -39 -26 -70 -38 -81 -30 -269 -31
-397 0 -123 29 -217 67 -246 97 -24 25 -24 27 -28 295 -2 148 0 280 3 293 3
14 27 45 52 70 118 119 373 207 774 269 14 3 118 5 232 6 l207 1 44 -62z m158
27 c44 -9 99 -29 130 -48 88 -53 110 -97 150 -296 22 -111 80 -151 120 -85 17
27 17 27 28 6 19 -36 47 -45 84 -28 17 8 48 21 68 29 43 17 66 60 80 150 11
68 21 86 41 70 153 -122 198 -155 264 -195 92 -54 201 -99 317 -130 67 -18
109 -22 227 -22 155 0 259 18 398 70 34 13 69 24 77 24 8 0 29 -21 46 -47 52
-74 169 -193 232 -234 70 -46 128 -57 180 -35 37 15 37 15 43 -11 11 -41 -6
-418 -22 -523 -27 -171 -73 -328 -181 -622 -15 -43 -33 -78 -38 -78 -6 0 -19
14 -29 30 -27 47 -144 160 -221 215 -201 143 -574 281 -824 305 -53 5 -171 10
-262 10 -91 0 -168 3 -172 6 -16 16 151 267 317 475 102 129 114 149 89 149
-10 0 -56 -40 -103 -90 -47 -49 -93 -90 -102 -90 -19 0 -49 34 -112 129 -52
77 -61 87 -71 70 -12 -18 24 -96 81 -175 30 -41 54 -81 54 -88 0 -7 -40 -76
-88 -152 -49 -76 -96 -154 -106 -171 -27 -54 -49 -62 -210 -74 -149 -11 -381
-9 -402 4 -9 5 -7 26 7 77 30 117 44 377 31 576 -23 333 -111 646 -217 772
-27 33 -26 56 3 48 10 -2 51 -12 93 -21z m3447 -22 c-4 -23 -65 -63 -94 -63
-64 0 13 77 79 79 12 1 17 -5 15 -16z m-178 -91 c0 -5 -13 -21 -30 -37 -16
-16 -30 -36 -30 -46 0 -28 50 -53 125 -60 70 -6 70 -6 -30 -7 -163 -3 -224 27
-167 81 27 25 110 77 125 77 4 0 7 -4 7 -8z m705 -117 c39 -8 131 -33 205 -55
74 -21 177 -47 228 -56 50 -9 92 -18 92 -21 0 -14 -158 13 -318 54 l-177 46
-255 6 c-252 6 -254 6 -180 19 41 8 82 15 90 17 48 9 254 3 315 -10z m-1616
-131 c77 -149 115 -252 115 -314 l1 -55 -48 -3 c-95 -6 -220 81 -339 238 -46
61 -48 66 -31 78 10 7 63 44 118 83 57 40 108 69 119 67 13 -2 34 -33 65 -94z
m976 40 l130 -6 120 -77 c66 -43 142 -90 168 -105 56 -32 56 -42 0 -26 -93 27
-250 51 -403 61 -91 7 -174 15 -186 20 -21 7 -34 57 -34 127 0 23 3 24 38 19
20 -4 96 -9 167 -13z m-3465 -906 c30 -14 78 -33 105 -43 73 -27 77 -32 69
-79 -9 -59 -31 -95 -56 -96 -4 0 -23 14 -43 31 -55 49 -176 238 -137 216 4 -3
32 -16 62 -29z m2169 -638 c100 -79 186 -204 153 -224 -25 -15 -351 43 -371
67 -9 12 -2 21 124 170 13 15 28 27 33 27 6 0 33 -18 61 -40z"/>
<path d="M3061 7858 c-78 -11 -131 -32 -131 -52 0 -24 11 -25 90 -4 106 28
304 21 442 -15 189 -51 289 -125 403 -297 34 -52 69 -101 78 -109 30 -24 20
23 -20 107 -51 104 -188 244 -283 290 -159 75 -390 107 -579 80z"/>
<path d="M2205 7649 c-4 -6 -4 -13 -1 -17 10 -9 310 -7 325 3 29 17 -19 25
-166 25 -97 0 -154 -4 -158 -11z"/>
<path d="M2374 7555 c-102 -28 -234 -99 -234 -126 0 -16 25 -10 96 22 38 18
110 46 159 63 50 17 90 36 90 41 0 15 -55 16 -111 0z"/>
<path d="M3012 7429 c-12 -5 -22 -13 -22 -18 0 -14 34 -31 62 -31 71 0 225
-80 336 -173 80 -68 100 -39 25 34 -61 58 -89 77 -188 127 -95 48 -181 72
-213 61z"/>
<path d="M2615 7371 c-3 -6 27 -34 67 -64 40 -30 117 -99 170 -153 84 -86 114
-121 191 -228 9 -13 20 -17 31 -13 16 6 16 9 0 39 -57 110 -295 358 -386 401
-64 30 -65 31 -73 18z"/>
<path d="M2460 7311 c0 -6 25 -46 55 -91 48 -73 115 -218 115 -251 0 -26 24
-79 36 -79 21 0 23 27 8 92 -22 88 -94 234 -144 291 -38 43 -70 60 -70 38z"/>
<path d="M2215 7128 c-25 -55 -29 -79 -33 -184 -3 -81 -1 -123 6 -128 19 -11
29 26 35 124 3 54 15 122 26 158 25 75 26 92 7 92 -7 0 -26 -28 -41 -62z"/>
<path d="M3480 7015 c-105 -30 -210 -109 -181 -138 12 -12 11 -12 131 40 62
27 72 28 240 30 96 1 177 2 179 3 13 1 -40 45 -69 58 -52 22 -231 26 -300 7z"/>
<path d="M1416 6845 c-57 -57 -98 -213 -99 -380 -1 -171 22 -251 141 -485 146
-288 135 -238 142 -640 5 -315 8 -352 29 -430 49 -186 154 -346 272 -417 108
-65 166 -50 67 17 -184 124 -274 280 -308 537 -6 48 -10 196 -8 355 l3 273
-26 65 c-15 36 -65 144 -112 240 -123 254 -140 306 -145 465 -4 143 7 215 54
332 27 68 23 100 -10 68z"/>
<path d="M2243 6740 c-110 -39 -264 -162 -278 -222 -10 -41 8 -36 89 26 105
80 208 127 321 146 77 14 125 29 125 40 0 34 -171 41 -257 10z"/>
<path d="M4200 6676 c0 -17 90 -104 195 -189 92 -73 132 -116 172 -184 27 -47
28 -52 27 -183 -1 -125 -4 -144 -39 -260 -74 -246 -75 -254 -75 -405 0 -157
12 -220 60 -314 30 -60 67 -98 82 -83 5 5 -9 46 -31 93 -47 102 -71 195 -71
277 0 76 31 238 70 368 68 227 78 406 28 515 -33 72 -110 154 -221 236 -51 36
-112 84 -136 105 -47 41 -61 46 -61 24z"/>
<path d="M4254 5157 c-13 -35 39 -160 84 -200 40 -37 41 -7 2 76 -21 45 -40
93 -42 107 -3 28 -35 40 -44 17z"/>
<path d="M3268 6049 c-16 -10 -17 -9 70 -54 80 -42 95 -65 72 -119 -19 -46
-24 -86 -11 -86 18 0 51 39 67 77 21 49 10 87 -37 126 -41 36 -139 70 -161 56z"/>
<path d="M3495 5525 c-117 -56 -189 -70 -355 -67 -80 2 -158 4 -175 5 -45 3
-38 -25 10 -42 28 -10 86 -15 190 -15 130 -1 160 2 225 23 123 38 220 96 205
121 -9 15 -24 11 -100 -25z"/>
<path d="M3475 5275 c-48 -53 -58 -85 -26 -85 21 0 76 57 86 90 4 12 2 27 -4
33 -8 8 -23 -3 -56 -38z"/>
<path d="M3454 3446 c-8 -21 3 -107 15 -119 20 -20 33 6 29 55 -6 56 -32 95
-44 64z"/>
<path d="M3360 3405 c0 -52 25 -120 40 -110 24 15 1 155 -25 155 -11 0 -15
-12 -15 -45z"/>
<path d="M6449 3853 c-76 -40 -116 -80 -106 -107 11 -27 60 -18 128 23 70 42
105 81 96 105 -10 25 -39 19 -118 -21z"/>
<path d="M6087 3123 c-59 -9 -79 -96 -52 -232 17 -86 17 -88 -4 -127 -39 -72
-29 -90 76 -143 153 -76 300 -103 338 -61 17 19 17 22 1 63 -21 57 -20 76 8
181 46 165 44 227 -8 261 -44 29 -287 68 -359 58z m23 -78 c14 -43 37 -45 51
-5 14 39 39 40 39 1 0 -70 28 -81 55 -21 10 22 21 40 25 40 15 0 28 -26 35
-67 4 -24 10 -43 13 -43 4 0 16 17 27 38 15 27 26 37 45 37 25 0 25 -1 23 -75
-1 -53 -11 -104 -32 -171 -38 -116 -38 -129 -6 -157 27 -24 26 -42 -3 -42 -21
0 -148 40 -222 70 -84 33 -115 71 -71 85 26 8 30 31 14 85 -30 98 -38 260 -12
260 4 0 13 -16 19 -35z"/>
<path d="M5543 2515 c-209 -54 -267 -77 -271 -104 -3 -22 -2 -23 40 -16 24 4
102 22 175 41 192 49 255 76 239 103 -11 17 -40 13 -183 -24z"/>
<path d="M6470 2282 c-14 -2 -56 -14 -95 -27 -38 -13 -90 -29 -114 -35 -33 -9
-41 -14 -32 -23 22 -22 139 -11 229 22 45 17 92 31 103 31 12 0 19 5 17 13 -5
13 -68 24 -108 19z"/>
<path d="M6676 1555 c-101 -36 -78 -84 25 -53 33 9 39 15 39 40 0 32 -8 33
-64 13z"/>
<path d="M4872 1535 c-58 -14 -82 -30 -82 -53 0 -16 25 -15 168 12 80 14 87
18 79 41 -8 19 -87 19 -165 0z"/>
<path d="M6516 1504 c-8 -21 -8 -573 1 -707 6 -103 13 -126 28 -89 10 25 19
644 11 735 -5 53 -12 77 -21 77 -7 0 -16 -7 -19 -16z"/>
<path d="M6280 1434 c-206 -62 -350 -104 -650 -190 -162 -46 -324 -93 -360
-104 -36 -11 -155 -46 -265 -78 -218 -65 -275 -86 -275 -101 0 -16 36 -22 76
-12 22 5 77 20 124 34 47 14 171 50 275 81 105 30 235 69 290 86 103 32 294
89 690 204 221 64 275 85 275 106 0 18 -64 9 -180 -26z"/>
<path d="M5691 1381 c-19 -12 -7 -41 17 -41 25 0 125 30 137 41 12 12 -135 12
-154 0z"/>
<path d="M5260 1274 c-14 -2 -52 -11 -85 -19 -33 -8 -109 -26 -169 -40 -162
-38 -270 -95 -238 -127 5 -5 64 11 137 37 70 25 174 54 229 65 179 36 252 59
235 75 -8 6 -85 13 -109 9z"/>
<path d="M820 1187 c0 -60 250 -119 417 -98 86 11 177 39 203 63 46 43 12 54
-77 23 -127 -44 -297 -42 -451 5 -76 24 -92 25 -92 7z"/>
<path d="M435 1105 c-88 -25 -214 -58 -279 -75 -66 -17 -128 -36 -138 -41 -19
-10 -25 -59 -8 -59 9 0 508 135 585 159 44 13 85 33 85 42 0 10 -28 19 -58 18
-15 0 -99 -20 -187 -44z"/>
<path d="M1395 1003 c-79 -43 -146 -55 -327 -60 -98 -3 -178 -9 -178 -13 0
-22 88 -50 159 -50 69 0 253 31 310 52 58 22 106 61 96 78 -9 14 -25 12 -60
-7z"/>
<path d="M1377 856 c-100 -57 -204 -67 -416 -40 -49 6 -53 5 -49 -12 7 -39 52
-49 228 -49 160 0 167 1 222 28 49 24 98 74 98 101 0 13 -27 4 -83 -28z"/>
<path d="M2112 708 c6 -20 89 -58 126 -58 41 0 182 -34 237 -57 22 -10 56 -27
75 -40 64 -42 83 -18 29 37 -61 60 -137 86 -344 115 -124 18 -128 18 -123 3z"/>
<path d="M6692 649 c-13 -5 -125 -38 -250 -74 -125 -37 -312 -93 -417 -125
-104 -33 -239 -73 -300 -89 -60 -16 -301 -90 -535 -165 -234 -74 -465 -147
-515 -163 l-90 -28 109 -3 c59 -1 113 1 120 6 12 10 548 186 721 237 61 17
184 53 275 79 91 25 235 69 320 96 85 27 243 75 350 105 268 77 260 73 260
107 0 30 -9 33 -48 17z"/>
</g>
</svg>
