<?xml version="1.0" standalone="no"?>
<!DOCTYPE svg PUBLIC "-//W3C//DTD SVG 20010904//EN"
 "http://www.w3.org/TR/2001/REC-SVG-20010904/DTD/svg10.dtd">
<svg version="1.0" xmlns="http://www.w3.org/2000/svg"
 width="197.000000pt" height="255.000000pt" viewBox="0 0 197.000000 255.000000"
 preserveAspectRatio="xMidYMid meet">
<metadata>
Created by potrace 1.16, written by Peter Selinger 2001-2019
</metadata>
<g transform="translate(0.000000,255.000000) scale(0.100000,-0.100000)"
fill="#000000" stroke="none">
<path d="M204 2421 c-18 -11 -35 -24 -38 -30 -4 -6 -15 -2 -28 11 -17 17 -29
19 -70 16 -27 -3 -55 -11 -61 -18 -10 -10 -9 -12 5 -7 54 19 84 18 112 -4 23
-18 27 -28 24 -60 l-3 -39 36 6 c21 4 46 1 59 -6 18 -10 21 -18 17 -45 -5 -32
-4 -33 31 -40 48 -9 62 -21 62 -56 0 -49 -28 -59 -170 -60 -69 -1 -138 -5
-155 -9 -18 -5 34 -8 131 -7 144 2 164 4 183 21 26 23 28 81 4 108 -9 10 -11
18 -5 18 20 0 52 67 52 110 0 36 -6 48 -36 76 -29 28 -43 34 -77 34 -24 0 -56
-8 -73 -19z m147 -30 c40 -41 40 -88 -2 -136 -31 -35 -82 -49 -78 -22 5 43 -2
59 -37 73 -19 8 -44 12 -54 9 -17 -5 -19 -2 -15 27 10 77 127 108 186 49z"/>
<path d="M895 2317 l7 -54 -32 -12 c-37 -12 -44 -7 -77 61 -10 21 -21 38 -25
38 -13 0 -9 -13 21 -65 l29 -50 -29 -17 c-41 -25 -46 -23 -69 27 -11 25 -25
45 -30 45 -15 0 -12 -9 16 -58 l27 -46 -27 -23 -27 -23 -29 32 c-16 17 -33 29
-37 24 -4 -4 -3 -10 2 -14 6 -4 18 -17 29 -29 18 -22 18 -23 -8 -58 l-27 -36
-40 32 c-49 39 -52 25 -3 -17 36 -29 36 -31 21 -55 -26 -41 -47 -130 -47 -202
0 -49 -4 -73 -14 -81 -14 -11 -19 -45 -17 -113 1 -22 6 -33 16 -33 13 0 15
-25 15 -167 0 -93 -3 -232 -7 -311 l-6 -142 -26 -6 c-14 -3 -75 -21 -136 -39
-81 -25 -111 -31 -117 -22 -8 13 -28 102 -31 136 -1 12 -6 20 -12 18 -20 -7
-37 -83 -44 -197 -7 -116 -11 -115 -26 3 -4 26 -10 45 -15 42 -4 -3 -14 -37
-21 -75 l-12 -70 -31 62 c-35 74 -34 73 -42 66 -4 -5 8 -38 34 -92 3 -5 -1 -6
-7 -2 -8 6 -10 0 -5 -18 5 -21 3 -25 -10 -20 -11 4 -16 1 -15 -12 1 -23 17
-64 18 -46 2 22 21 13 21 -10 1 -13 8 -34 16 -48 l15 -25 -4 25 c-3 14 -8 34
-12 44 -5 12 -5 17 1 13 26 -16 44 19 45 88 0 25 1 27 8 10 4 -11 7 -35 5 -53
-1 -17 2 -32 6 -32 11 0 31 -60 24 -71 -3 -5 2 -6 11 -3 11 5 14 2 9 -9 -3 -9
-2 -22 2 -28 5 -9 10 -7 15 7 7 17 8 17 8 2 1 -10 6 -18 12 -18 6 0 9 10 7 23
-2 12 -9 21 -17 19 -9 -2 -12 8 -10 36 2 20 0 43 -5 50 -8 13 -7 186 1 239 3
18 10 30 15 27 5 -4 7 -15 4 -26 -2 -12 2 -27 10 -35 20 -20 17 -40 -6 -46
-16 -4 -19 -12 -17 -36 2 -17 7 -34 12 -39 5 -4 5 -1 0 7 -5 9 -3 12 6 9 8 -3
13 -11 12 -17 -2 -6 0 -10 5 -10 22 4 31 -5 38 -38 4 -21 7 -40 7 -43 0 -3 8
-14 18 -24 18 -19 19 -19 26 0 3 10 11 22 17 27 7 4 -15 31 -57 70 -37 34 -67
65 -67 69 0 7 90 38 205 68 44 12 88 24 98 26 14 4 17 -1 17 -29 0 -33 0 -34
-65 -47 -36 -7 -65 -17 -65 -20 0 -4 9 -15 20 -25 24 -21 26 -41 6 -52 -8 -5
-42 -34 -75 -66 l-61 -57 20 -36 20 -35 -20 -30 c-26 -36 -20 -58 26 -99 33
-28 38 -50 11 -50 -8 0 -8 3 1 9 10 6 4 16 -24 40 -21 17 -43 31 -49 31 -18 0
-14 52 6 73 10 11 16 23 13 26 -3 3 -10 -2 -15 -12 -13 -23 -25 -22 -32 3 -6
22 8 37 16 18 3 -8 6 -6 6 5 1 9 8 17 16 17 19 0 19 9 0 34 -8 11 -15 14 -15
8 0 -7 -3 -11 -7 -11 -23 4 -28 -5 -28 -46 0 -43 -8 -59 -18 -32 -3 8 -7 5
-13 -7 -5 -13 -3 -21 4 -24 7 -2 9 -8 6 -13 -3 -6 -1 -15 4 -22 5 -7 13 -27
17 -45 3 -18 11 -30 16 -26 5 3 21 -4 34 -15 25 -19 25 -20 5 -26 -12 -4 -27
-1 -35 5 -8 7 -15 9 -16 4 -1 -19 -18 33 -18 59 -1 15 -8 39 -17 52 -11 17
-14 34 -9 57 7 29 6 31 -9 19 -13 -11 -16 -11 -17 0 0 8 -4 5 -9 -6 -8 -19 -9
-18 -9 4 -1 13 -4 21 -8 17 -12 -11 -3 -98 12 -112 18 -19 29 -18 21 2 -3 8
-2 12 4 9 13 -8 13 -75 1 -75 -5 0 -12 8 -14 18 -4 16 -5 16 -6 -1 0 -10 -5
-15 -11 -12 -6 4 -11 -9 -11 -32 l-2 -38 -6 42 c-8 46 -21 69 -21 37 0 -16 -2
-17 -10 -4 -8 12 -10 9 -10 -13 0 -25 -2 -27 -15 -13 -16 16 -20 31 -6 22 5
-3 7 9 5 27 -5 53 -6 54 -15 8 -5 -25 -14 -48 -20 -52 -6 -3 -8 -15 -5 -26 4
-11 2 -31 -3 -44 -8 -21 -10 -17 -10 24 -1 26 -5 47 -11 47 -13 0 -13 -56 0
-81 6 -10 18 -19 27 -19 14 0 14 -2 -3 -15 -11 -8 -14 -15 -6 -15 6 0 12 -4
12 -9 0 -5 -10 -7 -22 -5 -13 2 -17 2 -10 -2 6 -3 12 -18 13 -32 0 -24 1 -25
9 -7 7 17 9 17 9 3 1 -10 6 -18 11 -18 6 0 8 11 4 28 -7 24 -6 26 9 14 9 -8
13 -20 9 -30 -5 -15 -4 -15 12 0 19 19 43 23 63 10 15 -9 25 -72 12 -72 -5 0
-9 5 -9 10 0 6 -9 10 -20 10 -11 0 -20 -5 -20 -12 0 -6 -7 -4 -18 5 -26 23
-32 21 -32 -10 0 -20 7 -31 26 -40 21 -10 25 -9 20 2 -2 7 2 16 10 19 24 9 31
7 14 -5 -12 -9 -10 -10 8 -6 15 4 25 0 29 -9 3 -8 10 -14 15 -14 6 0 8 6 5 14
-4 11 1 11 26 -2 l32 -16 -25 -7 c-47 -13 -60 -10 -61 14 -1 17 -3 15 -11 -10
-9 -26 -16 -33 -37 -32 l-26 0 25 11 c22 10 23 12 6 16 -11 2 -24 -2 -30 -10
-13 -17 -36 -12 -36 7 0 7 -7 18 -15 25 -12 10 -15 9 -15 -4 0 -10 -4 -15 -9
-12 -5 3 -9 -13 -9 -37 0 -28 2 -36 7 -23 7 18 8 18 14 2 10 -25 9 -38 -3 -31
-5 3 -10 1 -10 -4 0 -6 11 -11 25 -11 22 0 24 2 14 26 -5 15 -7 29 -4 32 3 3
5 1 5 -5 0 -9 49 -37 60 -33 3 1 4 8 2 17 -3 14 -2 14 13 -1 31 -31 53 -38 63
-20 6 11 16 15 26 11 10 -4 14 -11 11 -17 -4 -6 16 -10 54 -10 39 0 61 4 61
11 0 7 8 17 17 24 15 11 15 15 4 29 -21 26 -3 32 20 8 18 -20 27 -22 80 -17
37 3 59 2 59 -5 0 -6 -27 -10 -62 -11 -45 0 -57 -3 -43 -9 19 -8 19 -9 -2 -9
-12 -1 -24 -5 -27 -9 -6 -10 201 -15 216 -6 8 5 5 10 -8 15 -15 6 -12 8 14 8
32 1 47 21 15 21 -9 0 -14 3 -10 6 3 3 15 3 27 -1 16 -5 19 -10 11 -18 -6 -6
-11 -17 -11 -25 0 -11 36 -13 200 -11 135 2 200 6 200 13 0 6 5 4 10 -4 6 -10
12 -12 20 -4 7 7 29 8 63 3 89 -13 235 -11 241 4 5 9 7 9 12 0 3 -7 15 -13 26
-13 17 0 18 3 8 15 -11 13 -8 15 21 15 31 0 32 -1 13 -15 -18 -14 -17 -14 13
-15 17 0 34 6 36 13 4 9 7 9 14 0 10 -15 82 -15 100 0 7 5 21 6 30 2 10 -5 29
-10 43 -12 24 -3 24 -2 6 11 -17 14 -16 15 17 21 44 9 73 3 69 -14 -2 -10 9
-12 52 -7 30 4 57 3 60 -2 5 -8 15 -9 62 -3 7 1 12 31 12 81 l2 80 -22 -22
-21 -21 -19 22 c-15 20 -19 21 -24 7 -3 -9 -13 -16 -20 -16 -11 0 -12 4 -4 19
7 13 7 20 -1 23 -7 2 -7 12 0 31 13 35 14 137 2 137 -5 0 -12 -8 -14 -17 -3
-12 -5 -8 -6 9 0 15 -6 30 -11 33 -6 4 -8 11 -5 16 3 5 -1 6 -9 3 -9 -3 -16
-16 -17 -28 -1 -11 -5 -3 -10 19 -7 27 -6 41 1 43 5 2 10 8 10 13 0 5 -28 7
-62 4 -35 -2 -55 -2 -45 1 9 3 17 12 17 19 0 7 6 15 13 18 6 2 -8 5 -32 5 -50
1 -70 12 -22 12 52 0 32 25 -23 28 -38 3 -47 7 -44 20 2 9 14 19 28 23 16 4
19 7 8 8 -12 1 -18 9 -18 26 0 14 -5 25 -11 25 -6 0 -9 -7 -6 -15 10 -25 -15
-29 -34 -6 -17 20 -18 20 -28 4 -6 -10 -11 -14 -11 -9 0 5 -6 3 -14 -3 -10 -8
-16 -9 -21 -1 -8 13 -25 3 -25 -16 0 -8 10 -14 25 -14 14 0 25 -5 25 -10 0 -6
-3 -9 -7 -9 -19 3 -33 -2 -33 -12 0 -5 6 -7 13 -3 6 4 8 3 4 -1 -15 -17 -35
-13 -30 6 3 11 0 19 -6 19 -7 0 -9 -6 -5 -12 4 -7 -2 -5 -12 5 -16 15 -17 19
-4 27 8 5 11 10 5 10 -5 0 -3 6 5 13 8 7 16 18 18 26 2 11 0 12 -11 3 -8 -7
-17 -9 -20 -5 -4 3 -7 -3 -7 -15 0 -11 -4 -23 -9 -26 -6 -4 -6 5 -2 21 5 16
13 27 20 25 6 -1 11 5 11 14 0 8 -4 12 -10 9 -13 -8 -13 4 1 44 12 35 34 43
24 9 -6 -18 -4 -20 5 -12 9 9 9 21 1 49 -6 21 -9 41 -7 44 2 3 6 24 9 46 l6
40 -14 -30 c-7 -16 -12 -47 -10 -67 2 -21 -1 -38 -6 -38 -16 0 -10 69 12 128
12 31 23 67 26 79 5 21 23 33 23 16 0 -5 4 -35 10 -67 6 -41 6 -64 -1 -72 -6
-7 -7 -19 -3 -25 5 -9 9 -7 14 6 5 14 10 7 20 -28 12 -47 24 -59 33 -35 2 7 3
0 0 -17 -2 -16 -8 -31 -13 -33 -6 -2 -10 -8 -10 -14 0 -6 7 -7 16 -4 11 4 18
-1 21 -14 3 -11 12 -20 19 -20 8 0 14 -8 14 -17 0 -15 2 -16 10 -3 8 12 10 11
10 -8 0 -17 7 -24 30 -29 l31 -6 -26 -13 c-13 -7 -37 -15 -52 -18 -16 -2 10
-3 56 -2 65 2 85 6 93 19 5 10 17 17 26 17 15 0 15 -2 2 -10 -11 -7 -7 -10 18
-10 27 0 32 -3 28 -17 -2 -10 -7 -28 -11 -41 -4 -14 -1 -28 9 -38 9 -8 16 -11
16 -6 0 5 7 9 15 9 16 0 19 -26 9 -64 -4 -13 -11 -20 -20 -16 -9 3 -14 -1 -14
-12 0 -10 5 -15 13 -12 11 4 13 -5 9 -43 -2 -27 -1 -66 3 -87 l7 -38 14 25 c7
14 13 33 14 43 0 9 5 17 10 17 6 0 10 16 10 35 0 19 5 35 10 35 6 0 10 5 10
10 0 6 -7 10 -15 10 -8 0 -15 5 -15 11 0 6 7 9 15 5 9 -3 15 0 15 10 0 8 -4
13 -9 10 -13 -8 -43 30 -39 51 2 10 11 18 21 18 10 0 22 7 27 15 12 19 10 139
-3 165 -7 13 -6 20 2 23 19 6 12 65 -15 133 -21 49 -27 80 -26 131 1 38 -3 68
-8 68 -16 0 -49 -143 -53 -224 -1 -30 -5 -52 -9 -50 -10 6 -22 104 -19 153 4
61 -16 50 -47 -27 -14 -34 -26 -61 -27 -59 -1 1 1 52 4 114 3 62 3 122 0 135
-5 20 -9 17 -32 -28 -14 -29 -34 -83 -44 -120 l-17 -69 -8 40 c-4 22 -7 59 -7
82 -1 32 -4 41 -15 37 -16 -6 -31 -39 -46 -104 -28 -114 -25 -111 -39 -45 -7
33 -19 81 -27 107 -15 46 -14 50 9 110 30 76 93 277 105 333 7 36 11 40 35 37
27 -3 27 -3 27 60 l0 64 68 82 c100 123 112 142 112 176 0 17 -7 42 -16 55
-13 18 -23 22 -53 19 -20 -3 -42 -7 -50 -9 -9 -2 -17 8 -23 28 -5 18 -17 37
-28 43 -39 21 -101 -28 -115 -90 -6 -28 -6 -28 -35 -12 -27 15 -32 16 -57 2
-23 -13 -29 -24 -31 -58 -3 -47 23 -191 38 -206 5 -5 -1 -21 -16 -41 -31 -41
-30 -55 1 -55 14 0 25 -2 25 -4 0 -16 -83 -293 -91 -301 -5 -5 -9 71 -9 203 0
182 2 212 15 212 12 0 15 14 15 70 0 56 -3 70 -15 70 -11 0 -15 11 -15 43 0
75 -19 158 -50 225 -33 72 -34 70 30 99 25 12 30 18 18 20 -9 2 -34 -5 -56
-16 l-39 -20 -23 24 -22 23 48 28 c26 15 42 30 35 32 -7 2 -30 -8 -52 -22
l-39 -26 -30 22 c-17 12 -30 24 -30 27 0 3 14 20 32 38 18 18 27 33 21 33 -6
0 -25 -14 -43 -31 -28 -29 -33 -30 -60 -19 -17 7 -30 15 -30 18 0 3 11 20 25
38 27 36 30 44 15 44 -5 0 -20 -16 -32 -35 -21 -33 -26 -35 -58 -29 -19 3 -37
8 -39 10 -2 2 4 24 14 49 24 64 10 70 -17 7 l-22 -52 -47 0 c-51 0 -59 8 -59
60 0 16 -5 32 -11 36 -7 4 -9 -10 -4 -49z m104 -65 c9 -2 11 -10 7 -27 -4 -14
-2 -25 4 -25 5 0 10 6 10 13 1 30 15 38 49 26 25 -9 31 -16 28 -30 -6 -23 2
-25 17 -4 9 13 15 13 38 3 22 -11 26 -18 21 -38 -6 -24 -5 -24 13 -8 18 16 21
16 44 -2 20 -15 23 -21 13 -31 -20 -20 -15 -31 8 -18 18 9 25 7 43 -11 15 -16
17 -24 9 -27 -14 -5 -18 -33 -5 -33 4 0 13 5 19 11 26 26 83 -145 83 -250 0
-78 -18 -81 -78 -11 -61 71 -143 89 -227 51 -39 -17 -105 -81 -105 -101 0 -6
-4 -10 -10 -10 -5 0 -10 7 -10 15 0 27 -68 91 -108 103 -98 30 -184 -1 -238
-83 -11 -18 -25 -25 -47 -25 l-30 0 6 83 c5 74 30 166 56 206 8 12 12 13 25 1
9 -7 19 -10 23 -6 4 3 -2 12 -12 20 -17 12 -17 14 5 44 l24 32 21 -20 c12 -11
28 -20 36 -20 8 1 3 10 -14 23 l-27 23 26 24 c23 23 26 24 35 7 6 -9 17 -17
26 -17 14 0 14 3 -2 20 -21 23 -21 22 22 44 20 10 34 12 38 6 9 -15 28 -12 22
4 -3 8 5 18 21 26 23 10 28 9 37 -5 5 -9 16 -24 23 -33 12 -15 13 -15 9 3 -3
11 -8 27 -11 36 -7 16 3 17 63 11z m848 -378 c-3 -3 -12 -4 -19 -1 -8 3 -5 6
6 6 11 1 17 -2 13 -5z m-970 -50 c62 -26 101 -109 83 -174 -6 -19 -26 -56 -44
-81 -29 -39 -43 -49 -85 -59 -54 -13 -74 -10 -138 23 -78 40 -99 158 -42 236
54 75 132 94 226 55z m384 0 c34 -17 77 -68 85 -100 3 -13 3 -46 -1 -72 -10
-65 -73 -127 -140 -138 -117 -17 -224 69 -212 173 5 51 24 82 72 119 58 44
131 51 196 18z m-250 -255 c68 -96 237 -100 311 -8 20 25 40 39 55 39 l23 0 1
-192 c1 -106 3 -215 5 -242 3 -30 0 -54 -8 -64 -20 -24 -79 -57 -131 -75 -67
-22 -388 -34 -472 -18 -95 19 -183 51 -215 77 l-28 24 5 238 c3 165 8 239 16
244 22 14 35 8 55 -25 29 -49 82 -72 171 -72 l73 0 45 50 c24 28 47 61 50 74
l6 25 9 -23 c4 -13 17 -36 29 -52z m586 -113 c31 -10 33 -13 27 -46 -11 -58
-99 -328 -142 -433 l-40 -98 -7 118 c-7 117 -6 121 27 229 19 60 43 142 53
182 15 58 22 71 35 66 8 -4 30 -12 47 -18z m-967 -433 c0 4 15 1 33 -6 17 -8
37 -12 44 -10 7 2 21 -1 32 -7 17 -8 21 -21 21 -57 l0 -46 -60 6 c-35 3 -77
15 -102 29 l-43 23 -2 70 -3 69 40 -39 c22 -22 40 -36 40 -32z m767 -66 c-34
-28 -78 -45 -135 -53 l-52 -7 0 41 c0 35 3 40 18 35 9 -3 14 -3 10 2 -11 11
12 29 62 48 25 9 59 28 75 41 l30 24 7 -56 c7 -52 6 -59 -15 -75z m344 36 c-8
-15 -10 -15 -11 -2 0 17 10 32 18 25 2 -3 -1 -13 -7 -23z m-706 -24 c5 -5 16
-9 25 -8 11 0 9 3 -5 9 -17 8 -16 9 10 9 17 -1 43 2 58 5 50 11 69 -1 67 -42
-1 -21 -2 -84 -1 -141 1 -90 3 -102 17 -97 9 3 21 3 27 -1 7 -4 45 -6 85 -4
49 2 72 -1 72 -9 0 -6 5 -8 12 -4 8 5 9 2 5 -10 -4 -10 -7 -27 -7 -37 0 -12
-4 -17 -11 -14 -6 4 -10 1 -8 -6 5 -43 -8 -65 -85 -141 -45 -44 -77 -64 -60
-36 4 7 3 8 -5 4 -6 -4 -9 -11 -7 -15 3 -4 -15 -17 -39 -29 -25 -12 -45 -17
-45 -12 0 6 -8 10 -17 9 -11 0 -13 -3 -5 -6 16 -6 6 -23 -14 -23 -8 0 -12 4
-9 10 4 6 -11 10 -39 10 -24 0 -53 3 -63 7 -17 6 -17 5 1 -13 20 -19 20 -19
-2 -22 -45 -7 -164 19 -213 45 -41 23 -50 32 -46 50 2 12 1 20 -4 17 -4 -2
-12 3 -17 12 -6 11 -14 14 -22 9 -10 -6 -8 -10 8 -16 12 -5 22 -14 22 -20 0
-7 -4 -8 -12 -2 -73 54 -98 76 -98 86 0 7 7 4 14 -6 10 -13 16 -15 21 -6 7 11
-9 27 -28 27 -15 1 -48 46 -43 59 3 7 1 13 -4 13 -6 0 -10 15 -10 33 l0 33
100 2 c55 0 105 4 110 7 6 4 10 66 10 145 l0 139 123 -6 c67 -3 126 -9 132
-14z m601 -53 c0 -30 -5 -51 -9 -47 -11 11 -12 40 -4 74 11 41 15 33 13 -27z
m101 39 c0 -8 -4 -12 -9 -9 -5 3 -6 10 -3 15 9 13 12 11 12 -6z m-320 -120 l1
-115 -104 0 -104 0 0 75 c0 73 0 75 28 80 79 17 140 42 178 74 0 1 1 -51 1
-114z m-713 48 l56 -6 0 -78 0 -77 -72 -7 c-40 -4 -86 -5 -103 -3 l-30 3 -3
111 -3 111 49 -24 c27 -13 75 -27 106 -30z m1193 5 c-3 -7 -5 -2 -5 12 0 14 2
19 5 13 2 -7 2 -19 0 -25z m-190 -10 c-3 -7 -5 -2 -5 12 0 14 2 19 5 13 2 -7
2 -19 0 -25z m-1177 -39 c0 -26 -2 -29 -14 -20 -11 9 -19 9 -35 -1 -17 -11
-23 -10 -38 4 -14 14 -14 18 -2 22 8 2 28 9 44 14 44 15 45 15 45 -19z m1277
1 c0 -19 -4 -27 -10 -21 -5 5 -6 18 -2 30 9 29 12 26 12 -9z m84 -7 c-9 -16
-10 -14 -11 12 0 21 3 26 11 18 8 -8 8 -16 0 -30z m25 -18 c-2 -7 1 -16 8 -18
7 -3 16 -15 19 -27 4 -17 3 -19 -8 -10 -18 15 -29 -34 -19 -84 5 -27 3 -36 -7
-36 -11 0 -13 14 -11 57 2 32 3 77 3 101 0 25 4 40 10 36 6 -3 8 -12 5 -19z
m-312 0 c3 -8 1 -15 -4 -15 -6 0 -10 7 -10 15 0 8 2 15 4 15 2 0 6 -7 10 -15z
m183 -25 c-3 -11 -1 -20 4 -20 4 0 7 -13 6 -30 -1 -16 -6 -30 -11 -30 -5 0 -6
-25 -3 -55 5 -54 5 -55 -21 -55 -15 0 -32 4 -38 8 -17 11 -24 40 -11 45 18 6
37 -3 37 -19 0 -8 4 -14 10 -14 23 0 -8 45 -34 48 -14 2 -26 8 -26 13 0 5 12
8 27 7 25 -3 28 0 35 47 5 28 11 56 13 63 7 20 18 14 12 -8z m-146 -23 c-10
-9 -11 -8 -5 6 3 10 9 15 12 12 3 -3 0 -11 -7 -18z m236 -24 c-3 -10 -5 -4 -5
12 0 17 2 24 5 18 2 -7 2 -21 0 -30z m-1567 -20 c0 -20 -16 -8 -23 17 -4 17
-3 19 9 9 8 -6 14 -18 14 -26z m-243 5 c-3 -8 -6 -5 -6 6 -1 11 2 17 5 13 3
-3 4 -12 1 -19z m1583 12 c8 13 10 12 10 -2 0 -11 -8 -18 -20 -18 -12 0 -20 7
-20 18 0 14 2 15 10 2 9 -13 11 -13 20 0z m184 -22 c4 -17 2 -28 -4 -28 -5 0
-10 9 -10 20 0 11 -6 20 -12 20 -9 0 -8 3 2 10 17 11 15 12 24 -22z m-147 -46
c-2 -25 -4 -27 -42 -23 l-40 5 38 10 c20 5 37 15 37 23 0 7 2 13 5 13 2 0 3
-12 2 -28z m159 -18 c-6 16 -4 17 9 6 18 -15 19 -34 2 -48 -18 -15 -41 7 -45
42 l-3 30 21 -25 c17 -19 20 -20 16 -5z m-146 -28 c0 -3 -4 -8 -10 -11 -5 -3
-10 -1 -10 4 0 6 5 11 10 11 6 0 10 -2 10 -4z m-1350 -26 c0 -5 -4 -10 -9 -10
-6 0 -13 5 -16 10 -3 6 1 10 9 10 9 0 16 -4 16 -10z m1599 -42 c9 -35 8 -38
-12 -37 -12 0 -17 3 -10 5 14 6 -20 44 -39 44 -9 0 -9 3 0 12 8 8 15 8 27 -2
13 -11 15 -9 16 11 1 27 3 22 18 -33z m-41 -53 c-2 -12 -12 -21 -25 -23 -17
-3 -20 1 -16 17 3 12 9 19 13 16 4 -2 5 8 3 23 -4 26 -4 26 12 7 9 -11 14 -29
13 -40z m-358 31 c0 -8 -7 -16 -15 -20 -9 -3 -15 0 -15 10 0 8 5 12 10 9 6 -3
10 -1 10 4 0 6 2 11 5 11 3 0 5 -6 5 -14z m-1300 -24 c0 -15 -2 -15 -10 -2
-13 20 -13 33 0 25 6 -3 10 -14 10 -23z m-88 -4 c-7 -7 -12 -8 -12 -2 0 14 12
26 19 19 2 -3 -1 -11 -7 -17z m1219 -1 c-10 -9 -11 -8 -5 6 3 10 9 15 12 12 3
-3 0 -11 -7 -18z m252 6 c-7 -2 -19 -2 -25 0 -7 3 -2 5 12 5 14 0 19 -2 13 -5z
m-1000 -28 c10 -14 16 -25 14 -25 -7 0 -47 37 -47 44 0 13 16 4 33 -19z m773
-9 c0 -13 -4 -22 -8 -20 -4 3 -17 0 -28 -6 -11 -6 -20 -8 -20 -5 0 10 28 35
39 35 6 0 11 5 11 10 0 6 2 10 4 10 2 0 3 -11 2 -24z m114 20 c0 -9 -30 -14
-35 -6 -4 6 3 10 14 10 12 0 21 -2 21 -4z m105 -15 c-3 -5 3 -12 12 -14 10 -3
0 -4 -22 -2 -53 5 -53 5 -30 15 27 12 47 12 40 1z m-950 -41 c3 -5 2 -10 -4
-10 -5 0 -13 5 -16 10 -3 6 -2 10 4 10 5 0 13 -4 16 -10z m-370 -10 c3 -5 1
-10 -4 -10 -6 0 -11 5 -11 10 0 6 2 10 4 10 3 0 8 -4 11 -10z m305 -9 c0 -11
-31 -24 -39 -16 -3 3 1 10 9 15 19 12 30 12 30 1z m687 -18 c-9 -9 -19 -14
-22 -11 -3 3 2 13 11 22 9 9 19 14 22 11 3 -3 -2 -13 -11 -22z m89 15 c5 -8 0
-9 -14 -6 -12 4 -22 2 -22 -3 0 -5 5 -9 10 -9 6 0 10 -7 10 -16 0 -17 1 -17
90 0 32 6 61 9 80 7 26 -2 -11 -21 -42 -21 -16 0 -28 -4 -28 -10 0 -15 -104 1
-114 19 -8 13 -10 13 -17 -4 -6 -16 -7 -14 -7 10 1 17 3 33 5 38 6 11 41 8 49
-5z m114 8 c0 -2 -9 -6 -20 -9 -11 -3 -18 -1 -14 4 5 9 34 13 34 5z m260 -6
c0 -5 -5 -10 -11 -10 -5 0 -7 5 -4 10 3 6 8 10 11 10 2 0 4 -4 4 -10z m-1300
-17 c3 -3 -11 -4 -30 -2 -19 2 -41 0 -48 -4 -8 -6 -10 -3 -6 7 4 11 15 13 42
9 20 -3 39 -8 42 -10z m90 5 c0 -5 -2 -8 -4 -8 -2 0 -11 -3 -19 -6 -8 -3 -17
1 -19 8 -4 8 3 13 18 13 13 0 24 -3 24 -7z m1050 2 c0 -5 -4 -10 -10 -10 -5 0
-10 5 -10 10 0 6 5 10 10 10 6 0 10 -4 10 -10z m193 -71 c5 -4 8 -12 6 -17 -5
-14 -69 16 -69 31 0 6 8 19 17 29 17 19 18 19 27 -9 5 -15 13 -31 19 -34z
m-1728 30 c-5 -13 -2 -25 6 -30 11 -6 10 -9 -4 -15 -26 -10 -31 1 -17 36 14
34 25 41 15 9z m115 0 c0 -11 -4 -18 -10 -14 -5 3 -7 12 -3 20 7 21 13 19 13
-6z m1467 -1 c-3 -8 -6 -5 -6 6 -1 11 2 17 5 13 3 -3 4 -12 1 -19z m53 6 c0
-14 -3 -14 -15 -4 -8 7 -15 14 -15 16 0 2 7 4 15 4 8 0 15 -7 15 -16z m-1450
-4 c0 -5 -4 -10 -10 -10 -5 0 -10 5 -10 10 0 6 5 10 10 10 6 0 10 -4 10 -10z
m70 3 c0 -12 -33 -43 -46 -43 -7 0 -14 -5 -16 -12 -5 -15 -28 -1 -28 18 0 8 3
13 8 12 14 -3 62 14 62 23 0 5 5 9 10 9 6 0 10 -3 10 -7z m73 0 c-7 -2 -19 -2
-25 0 -7 3 -2 5 12 5 14 0 19 -2 13 -5z m227 -3 c0 -5 -15 -10 -32 -9 -28 0
-30 2 -13 9 28 12 45 12 45 0z m453 3 c-7 -2 -19 -2 -25 0 -7 3 -2 5 12 5 14
0 19 -2 13 -5z m532 -52 c-4 -23 -11 -41 -15 -41 -5 0 -7 9 -5 20 5 25 -9 34
-25 15 -17 -21 -30 -19 -30 4 0 12 -11 24 -27 30 l-28 11 33 -5 c17 -2 32 0
32 5 0 6 9 10 20 10 11 0 20 -4 20 -10 0 -5 5 -10 11 -10 6 0 8 7 4 18 -5 13
-3 14 5 5 8 -7 10 -26 5 -52z m-288 17 c-3 -7 -5 -2 -5 12 0 14 2 19 5 13 2
-7 2 -19 0 -25z m-627 13 c0 -11 -39 -21 -45 -11 -2 4 -2 10 2 14 10 9 43 7
43 -3z m-210 -10 c0 -5 8 -11 18 -13 14 -3 13 -5 -6 -10 -12 -3 -20 -2 -16 3
3 5 0 9 -5 9 -6 0 -11 5 -11 10 0 6 5 10 10 10 6 0 10 -4 10 -9z m986 -31 c-6
-34 2 -44 23 -28 9 7 13 8 9 4 -12 -14 12 -36 37 -36 13 0 25 6 27 12 3 8 9 4
17 -10 10 -18 9 -22 -4 -22 -8 0 -15 -4 -15 -10 0 -5 9 -10 20 -10 11 0 20 -4
20 -10 0 -5 -16 -9 -36 -8 -32 1 -35 4 -31 25 4 20 1 24 -14 20 -11 -3 -17 -1
-14 4 4 5 -12 16 -34 25 -23 9 -41 20 -41 26 0 5 4 7 9 3 16 -9 24 15 10 31
-8 10 -15 12 -23 4 -13 -13 -56 -13 -56 -1 0 11 55 18 83 12 15 -3 18 -10 13
-31z m-1283 10 c3 -11 1 -18 -4 -14 -5 3 -9 12 -9 20 0 20 7 17 13 -6z m787
10 c0 -5 7 -10 15 -10 8 0 15 5 15 10 0 6 10 10 23 10 16 0 18 -3 8 -9 -9 -6
-10 -11 -2 -15 6 -4 11 -26 11 -48 0 -23 -3 -38 -7 -34 -4 4 -7 24 -6 44 2 31
1 33 -6 12 -7 -25 -7 -25 -13 -2 -3 12 -14 22 -23 22 -12 0 -15 -6 -11 -22 3
-13 3 -17 0 -9 -5 11 -8 11 -16 0 -8 -11 -8 -10 -4 4 3 11 0 20 -9 23 -22 9
-18 34 5 34 11 0 20 -4 20 -10z m685 -6 c20 -15 20 -16 -4 -12 -14 2 -26 9
-29 16 -5 16 9 15 33 -4z m-960 -13 c-3 -6 -22 -11 -42 -11 -42 0 -38 9 9 19
37 9 43 7 33 -8z m601 10 c5 -5 25 -11 44 -14 24 -3 17 -4 -22 -5 -54 -2 -68
4 -51 21 9 9 17 9 29 -2z m217 -11 c4 -17 2 -18 -14 -9 -22 11 -25 29 -5 29 7
0 16 -9 19 -20z m412 10 c3 -5 1 -10 -4 -10 -6 0 -11 5 -11 10 0 6 2 10 4 10
3 0 8 -4 11 -10z m-1319 -18 c-3 -5 -21 -13 -41 -16 -19 -4 -48 -18 -65 -33
l-31 -25 12 26 c7 14 19 26 26 26 8 0 12 3 10 8 -3 4 14 8 36 9 23 1 43 6 45
13 2 6 6 9 9 6 3 -2 2 -9 -1 -14z m1241 -14 c-3 -8 -6 -5 -6 6 -1 11 2 17 5
13 3 -3 4 -12 1 -19z m-1683 -20 c-3 -4 1 -8 9 -8 9 0 17 -14 21 -35 8 -41 33
-55 82 -48 18 3 34 1 38 -5 3 -6 -18 -9 -54 -8 -33 0 -60 -2 -60 -6 0 -5 -4
-8 -10 -8 -5 0 -10 17 -10 38 0 20 -7 46 -15 56 -8 11 -15 29 -15 40 0 17 2
18 9 6 6 -8 7 -18 5 -22z m1243 26 c-3 -3 -12 -4 -19 -1 -8 3 -5 6 6 6 11 1
17 -2 13 -5z m236 -14 c-5 -17 0 -20 28 -21 22 -1 27 -3 14 -6 -11 -3 -23 -10
-27 -17 -6 -8 -8 -7 -8 2 0 6 -6 12 -14 12 -8 0 -13 8 -11 18 2 9 4 20 4 25 1
4 5 7 10 7 5 0 7 -9 4 -20z m67 -1 c0 -4 -7 -6 -15 -3 -8 4 -15 10 -15 15 0 4
7 6 15 3 8 -4 15 -10 15 -15z m-1240 1 c0 -5 -13 -10 -29 -10 -16 0 -36 -3
-45 -6 -10 -4 -16 -1 -16 7 0 7 3 10 6 7 3 -3 17 -2 32 2 38 12 52 12 52 0z
m-172 -6 c27 -8 29 -24 2 -24 -11 0 -20 4 -20 9 0 6 -15 12 -32 14 l-33 4 30
1 c17 1 40 -1 53 -4z m1242 2 c0 -3 -4 -8 -10 -11 -5 -3 -10 -1 -10 4 0 6 5
11 10 11 6 0 10 -2 10 -4z m225 -6 c4 -6 -5 -10 -20 -10 -15 0 -24 4 -20 10 3
6 12 10 20 10 8 0 17 -4 20 -10z m132 -27 c-3 -10 -5 -4 -5 12 0 17 2 24 5 18
2 -7 2 -21 0 -30z m-924 -30 c-7 -55 -13 -68 -14 -32 l-1 24 -7 -25 c-6 -22
-13 -25 -51 -26 l-45 -2 40 7 c28 4 41 12 43 25 3 11 10 26 18 33 7 8 11 20 8
28 -4 8 -1 15 5 15 7 0 9 -16 4 -47z m836 26 c-16 -10 -23 -4 -14 10 3 6 11 8
17 5 6 -4 5 -9 -3 -15z m36 -32 c-8 -20 -22 -37 -30 -37 -22 0 -18 15 10 46
14 15 25 32 26 38 0 8 2 8 5 0 2 -6 -2 -27 -11 -47z m-1405 30 c0 -8 -7 -14
-15 -14 -8 0 -15 6 -15 14 0 7 7 13 15 13 8 0 15 -6 15 -13z m-43 -13 c-3 -3
-12 -4 -19 -1 -8 3 -5 6 6 6 11 1 17 -2 13 -5z m1300 0 c-3 -3 -12 -4 -19 -1
-8 3 -5 6 6 6 11 1 17 -2 13 -5z m-33 -37 c-3 -9 -11 -17 -16 -17 -6 0 -7 7
-4 16 3 9 6 21 6 27 0 8 3 8 10 1 6 -6 8 -18 4 -27z m-1154 -10 c21 -25 22
-27 5 -21 -11 4 -17 3 -12 -1 4 -5 33 -12 64 -16 32 -4 59 -13 61 -18 2 -7 10
-8 20 -3 26 13 119 15 127 3 4 -8 -17 -11 -63 -11 -47 0 -71 -4 -75 -12 -3 -9
-25 -12 -68 -11 -100 2 -96 2 -79 13 35 22 -70 26 -125 4 -17 -7 -18 -6 -7 8
10 13 10 17 0 21 -7 3 21 4 63 2 82 -3 86 0 63 60 -4 11 -5 18 -3 15 2 -3 15
-18 29 -33z m477 1 c-3 -7 -5 -2 -5 12 0 14 2 19 5 13 2 -7 2 -19 0 -25z
m-539 9 c25 -12 30 -34 7 -34 -8 0 -15 3 -15 7 0 12 -48 30 -52 19 -2 -6 -12
-7 -22 -3 -19 7 -19 8 0 15 27 10 55 8 82 -4z m635 -32 c20 -7 34 -9 31 -4 -3
5 2 9 11 9 10 0 13 -5 9 -12 -5 -8 2 -9 24 -5 22 4 32 2 36 -9 10 -25 7 -34
-9 -34 -8 0 -15 8 -15 18 0 14 -2 15 -10 2 -5 -8 -10 -10 -10 -5 0 6 -5 3 -10
-5 -6 -10 -10 -11 -10 -2 0 6 -9 12 -21 12 -11 0 -17 -5 -14 -10 8 -13 -45
-13 -65 0 -11 8 -7 9 15 5 26 -6 28 -5 14 7 -9 7 -14 18 -12 25 2 6 -1 14 -6
18 -6 3 -11 14 -10 23 0 15 1 14 8 -2 4 -10 24 -24 44 -31z m664 30 c-2 -5
-15 -10 -28 -10 -13 0 -29 -3 -36 -8 -7 -4 -10 -1 -7 10 4 13 15 18 40 18 18
0 32 -4 31 -10z m33 5 c0 -5 -4 -10 -10 -10 -5 0 -10 5 -10 10 0 6 5 10 10 10
6 0 10 -4 10 -10z m-265 -11 c-4 -6 3 -13 15 -16 16 -4 18 -8 8 -14 -17 -12
-31 -11 -23 0 3 5 1 12 -5 16 -10 6 -5 25 6 25 3 0 2 -5 -1 -11z m-897 -26
c-10 -2 -26 -2 -35 0 -10 3 -2 5 17 5 19 0 27 -2 18 -5z m49 1 c-3 -3 -12 -4
-19 -1 -8 3 -5 6 6 6 11 1 17 -2 13 -5z m569 -21 c-2 -16 -1 -23 1 -16 2 6 11
14 20 17 12 5 14 1 10 -15 -12 -45 26 -76 53 -44 7 8 23 15 36 15 17 0 25 7
30 25 5 21 12 25 43 24 34 0 35 -1 11 -11 -24 -10 -24 -10 -5 -18 18 -7 16 -8
-10 -12 l-30 -5 30 -1 c17 -1 41 7 55 18 30 24 56 25 76 5 21 -20 31 -19 44 5
10 19 9 20 -14 14 -16 -4 -26 -2 -26 5 0 10 21 16 43 12 5 -1 35 -2 67 -2 40
-1 60 -5 64 -15 4 -10 -3 -14 -22 -15 -49 -2 -55 -4 -59 -16 -3 -9 6 -13 26
-13 17 0 31 -4 31 -8 0 -11 61 -3 76 10 8 5 14 3 18 -8 5 -13 9 -14 20 -5 11
9 17 8 28 -6 14 -20 39 -24 50 -8 4 6 8 1 8 -11 0 -23 -31 -27 -52 -6 -15 15
-55 16 -64 1 -4 -7 -9 -7 -13 -2 -8 13 -114 25 -106 13 6 -9 -2 -12 -21 -9 -4
0 -11 -5 -15 -13 -7 -10 -9 -10 -9 2 0 11 -2 12 -8 3 -6 -10 -14 -9 -37 3 -16
8 -34 13 -41 10 -7 -3 -15 2 -19 11 -4 13 -8 14 -18 4 -9 -9 -9 -14 3 -21 11
-7 3 -10 -28 -10 -26 0 -41 4 -37 10 3 6 12 10 20 10 8 0 16 4 20 9 3 6 -7 8
-22 6 -16 -2 -46 -5 -68 -6 -31 -2 -34 -3 -12 -6 15 -2 27 -9 27 -15 0 -6 -11
-8 -25 -6 -19 4 -25 1 -25 -13 0 -11 -5 -19 -10 -19 -5 0 -9 6 -7 13 1 6 -8
12 -20 12 -12 0 -25 4 -29 8 -4 4 -16 7 -26 7 -11 0 -16 5 -13 10 4 7 -2 9
-17 7 -12 -2 -17 -2 -10 0 11 4 10 9 -4 24 -15 17 -16 22 -4 44 17 32 20 31
16 -2z m-449 11 c-3 -3 -12 -4 -19 -1 -8 3 -5 6 6 6 11 1 17 -2 13 -5z m-524
-11 c-7 -2 -21 -2 -30 0 -10 3 -4 5 12 5 17 0 24 -2 18 -5z m717 -3 c18 -6 8
-8 -40 -9 -45 0 -60 2 -50 9 18 11 55 11 90 0z m369 0 c24 7 31 6 28 -3 -3 -7
-9 -11 -15 -10 -6 2 -29 -4 -52 -12 -38 -13 -41 -13 -36 1 3 9 6 20 6 25 0 6
7 6 19 0 12 -7 30 -7 50 -1z m-496 -7 c-7 -2 -19 -2 -25 0 -7 3 -2 5 12 5 14
0 19 -2 13 -5z m1002 -13 c3 -5 1 -10 -4 -10 -6 0 -11 5 -11 10 0 6 2 10 4 10
3 0 8 -4 11 -10z m44 -3 c-9 -7 -14 -19 -12 -27 3 -9 -1 -7 -8 4 -9 14 -8 20
2 27 21 13 36 10 18 -4z m-963 -12 c9 -9 11 -15 4 -15 -21 0 1 -20 23 -21 20
-1 20 -1 -3 -8 -29 -8 -120 -2 -120 8 0 4 15 15 33 24 l32 16 -47 0 c-65 1
-78 -6 -78 -43 l-1 -31 -13 25 c-8 14 -12 29 -9 34 4 5 -10 6 -31 2 -22 -4
-36 -3 -36 3 0 10 50 15 173 19 41 1 63 -3 73 -13z m131 -25 c3 -10 2 -11 -4
-3 -5 6 -31 14 -58 16 l-50 4 54 -1 c39 -1 56 -5 58 -16z m49 -5 c-5 -18 -3
-23 7 -19 8 3 14 -1 14 -9 0 -14 -65 -15 -99 -2 -11 4 -18 3 -18 -4 0 -6 -10
-11 -22 -10 -13 0 -18 3 -11 5 7 3 10 11 7 17 -3 8 12 12 48 12 35 0 53 4 54
13 2 20 4 22 15 22 7 0 9 -10 5 -25z m29 15 c3 -5 1 -10 -4 -10 -6 0 -11 5
-11 10 0 6 2 10 4 10 3 0 8 -4 11 -10z m-962 -7 c-7 -2 -19 -2 -25 0 -7 3 -2
5 12 5 14 0 19 -2 13 -5z m557 -7 c0 -19 -26 -40 -35 -26 -3 5 -1 10 4 10 6 0
11 7 11 15 0 8 5 15 10 15 6 0 10 -6 10 -14z m-153 -12 c-3 -3 -12 -4 -19 -1
-8 3 -5 6 6 6 11 1 17 -2 13 -5z m1349 -21 c-10 -10 -19 5 -10 18 6 11 8 11
12 0 2 -7 1 -15 -2 -18z m-1689 -5 c-3 -8 -6 -5 -6 6 -1 11 2 17 5 13 3 -3 4
-12 1 -19z m53 -4 c0 -8 -4 -12 -10 -9 -5 3 -10 10 -10 16 0 5 5 9 10 9 6 0
10 -7 10 -16z m607 -10 c-3 -3 -12 -4 -19 -1 -8 3 -5 6 6 6 11 1 17 -2 13 -5z"/>
<path d="M742 1694 c-45 -31 -16 -124 39 -124 34 0 57 18 64 50 9 43 -2 67
-37 79 -39 14 -39 14 -66 -5z"/>
<path d="M1121 1684 c-12 -15 -21 -33 -21 -40 0 -24 39 -54 69 -54 37 0 61 23
61 60 0 61 -71 83 -109 34z"/>
<path d="M730 1371 c0 -20 126 -71 197 -80 106 -13 239 21 282 73 19 23 8 20
-43 -13 -58 -36 -149 -56 -218 -47 -67 9 -145 34 -180 57 -29 21 -38 23 -38
10z"/>
<path d="M1353 1028 c-41 -21 -65 -58 -37 -58 8 0 14 7 14 15 0 9 16 25 35 36
19 12 35 23 35 25 0 5 1 6 -47 -18z"/>
<path d="M1273 975 c0 -8 4 -12 9 -9 5 3 6 10 3 15 -9 13 -12 11 -12 -6z"/>
<path d="M1070 930 c-12 -8 -11 -10 8 -10 12 0 22 5 22 10 0 13 -11 13 -30 0z"/>
<path d="M931 902 c-54 -3 -87 -24 -73 -47 3 -5 5 -45 3 -87 -1 -43 1 -79 6
-79 4 -1 59 -2 121 -4 107 -2 114 0 122 19 4 12 5 28 3 36 -3 10 1 8 11 -4 15
-19 16 -18 16 17 0 20 -4 37 -10 37 -5 0 -7 -7 -4 -15 4 -8 1 -15 -6 -15 -7 0
-11 15 -9 45 2 24 0 47 -4 51 -4 4 -7 16 -7 26 0 10 -3 18 -7 19 -27 3 -116 4
-162 1z m80 -49 l1 -28 8 30 c4 17 8 23 9 15 1 -10 4 -11 9 -4 4 6 15 11 25
11 20 0 25 -47 5 -48 -10 0 -10 -2 0 -6 7 -3 12 -25 12 -61 0 -41 -3 -53 -10
-42 -8 12 -10 12 -10 1 0 -9 -8 -12 -25 -9 -14 3 -25 0 -26 -6 0 -6 -3 -5 -6
3 -5 11 -7 11 -14 0 -6 -10 -9 -10 -9 -2 0 9 -8 9 -32 1 -23 -8 -33 -8 -36 0
-2 6 -9 9 -15 6 -9 -3 -11 18 -10 78 1 46 2 84 3 86 0 1 27 2 60 2 59 0 60 -1
61 -27z"/>
<path d="M1031 814 c0 -11 3 -14 6 -6 3 7 2 16 -1 19 -3 4 -6 -2 -5 -13z"/>
<path d="M1031 774 c0 -11 3 -14 6 -6 3 7 2 16 -1 19 -3 4 -6 -2 -5 -13z"/>
<path d="M1055 780 c3 -5 8 -10 11 -10 2 0 4 5 4 10 0 6 -5 10 -11 10 -5 0 -7
-4 -4 -10z"/>
<path d="M830 809 c0 -5 -4 -7 -10 -4 -5 3 -10 1 -10 -4 0 -6 7 -11 15 -11 8
0 15 7 15 15 0 8 -2 15 -5 15 -3 0 -5 -5 -5 -11z"/>
<path d="M1125 810 c3 -5 8 -10 11 -10 2 0 4 5 4 10 0 6 -5 10 -11 10 -5 0 -7
-4 -4 -10z"/>
<path d="M1150 809 c0 -5 5 -7 10 -4 6 3 10 8 10 11 0 2 -4 4 -10 4 -5 0 -10
-5 -10 -11z"/>
<path d="M1151 735 c1 -28 17 -65 19 -45 3 24 -1 44 -11 55 -5 5 -9 2 -8 -10z"/>
<path d="M1261 641 c-14 -9 -5 -18 18 -17 18 1 27 26 9 26 -7 0 -19 -4 -27 -9z"/>
<path d="M1160 629 c-12 -8 -9 -9 12 -5 22 5 25 3 21 -14 -4 -15 0 -20 13 -20
14 0 15 3 6 8 -7 5 -10 16 -6 25 7 20 -22 23 -46 6z"/>
<path d="M721 564 c0 -11 3 -14 6 -6 3 7 2 16 -1 19 -3 4 -6 -2 -5 -13z"/>
<path d="M816 551 c8 -8 43 -8 38 0 -2 4 -13 7 -24 6 -10 -1 -17 -3 -14 -6z"/>
<path d="M1040 533 c1 -14 27 -43 39 -43 8 0 5 9 -6 25 -18 24 -33 32 -33 18z"/>
<path d="M1085 530 c3 -5 8 -10 11 -10 2 0 4 5 4 10 0 6 -5 10 -11 10 -5 0 -7
-4 -4 -10z"/>
<path d="M1299 513 c-13 -16 -12 -17 4 -4 16 13 21 21 13 21 -2 0 -10 -8 -17
-17z"/>
<path d="M650 516 c0 -2 7 -6 15 -10 8 -3 15 -1 15 4 0 6 -7 10 -15 10 -8 0
-15 -2 -15 -4z"/>
<path d="M1156 501 c-15 -6 -16 -10 -7 -15 8 -5 20 -2 29 8 17 17 9 19 -22 7z"/>
<path d="M1028 403 c6 -2 18 -2 25 0 6 3 1 5 -13 5 -14 0 -19 -2 -12 -5z"/>
<path d="M1771 734 c0 -11 3 -14 6 -6 3 7 2 16 -1 19 -3 4 -6 -2 -5 -13z"/>
<path d="M515 120 c3 -5 27 -9 53 -9 42 1 44 2 17 9 -45 11 -77 11 -70 0z"/>
<path d="M1645 130 c4 -6 11 -8 16 -5 14 9 11 15 -7 15 -8 0 -12 -5 -9 -10z"/>
<path d="M1537 88 c2 -5 13 -8 24 -8 10 0 28 -5 39 -12 22 -14 39 -3 22 14
-12 12 -93 18 -85 6z"/>
<path d="M1335 60 c3 -5 8 -10 11 -10 2 0 4 5 4 10 0 6 -5 10 -11 10 -5 0 -7
-4 -4 -10z"/>
<path d="M1854 2359 c-50 -14 -90 -59 -99 -107 -6 -38 -9 -41 -31 -36 -36 9
-74 -20 -74 -57 0 -17 -4 -28 -9 -25 -15 10 -69 -5 -90 -26 -25 -23 -27 -61
-4 -84 15 -15 34 -16 188 -10 93 4 186 11 205 17 23 5 -13 6 -100 2 -262 -14
-299 -10 -300 30 0 22 51 57 85 57 30 0 35 3 35 23 0 43 22 61 68 54 l42 -5 0
40 c0 21 4 48 10 58 13 24 75 60 104 60 26 0 56 -28 56 -53 0 -17 11 -22 23
-11 6 6 -2 19 -40 60 -24 26 -24 26 -69 13z"/>
<path d="M1486 912 c-3 -6 -1 -14 5 -17 14 -9 20 -2 10 14 -6 8 -11 9 -15 3z"/>
<path d="M1483 785 c0 -8 4 -15 9 -15 4 0 8 4 8 9 0 6 -4 12 -8 15 -5 3 -9 -1
-9 -9z"/>
<path d="M1530 750 c0 -15 -6 -32 -12 -39 -11 -11 -10 -12 1 -6 11 6 13 4 8
-9 -11 -27 9 -54 40 -53 l28 0 -26 11 c-22 9 -25 15 -18 33 5 15 3 34 -6 55
-13 31 -14 32 -15 8z"/>
<path d="M210 738 c0 -9 5 -20 11 -23 6 -4 8 -12 6 -19 -2 -6 -1 -20 4 -31 5
-13 7 -5 4 24 -4 43 -25 84 -25 49z"/>
<path d="M1491 704 c0 -11 3 -14 6 -6 3 7 2 16 -1 19 -3 4 -6 -2 -5 -13z"/>
<path d="M254 688 c3 -15 26 -23 26 -8 0 6 -4 9 -9 6 -5 -4 -12 -1 -14 4 -3 6
-4 5 -3 -2z"/>
<path d="M13 645 c1 -19 5 -35 9 -35 11 0 10 57 -1 64 -5 3 -9 -10 -8 -29z"/>
<path d="M107 649 c-7 -28 -6 -31 10 -14 6 6 8 18 3 24 -5 9 -9 5 -13 -10z"/>
<path d="M82 585 c0 -16 2 -22 5 -12 2 9 2 23 0 30 -3 6 -5 -1 -5 -18z"/>
<path d="M10 590 c-10 -6 -11 -10 -3 -10 7 0 10 -6 8 -12 -5 -15 2 -27 28 -47
16 -12 17 -10 17 29 0 24 -3 40 -7 37 -3 -4 -11 -3 -17 3 -7 5 -17 5 -26 0z
m37 -42 c-3 -8 -6 -5 -6 6 -1 11 2 17 5 13 3 -3 4 -12 1 -19z"/>
<path d="M104 555 c3 -8 0 -14 -7 -12 -7 1 -12 -10 -12 -28 0 -19 5 -29 13
-27 6 1 12 -2 12 -8 0 -5 5 -10 10 -10 6 0 10 7 10 15 0 8 -5 15 -10 15 -7 0
-8 13 -4 35 4 24 3 35 -6 35 -7 0 -10 -7 -6 -15z"/>
<path d="M1825 540 c4 -6 11 -8 16 -5 14 9 11 15 -7 15 -8 0 -12 -5 -9 -10z"/>
<path d="M1735 526 l-30 -14 31 1 c19 0 31 5 31 13 0 8 -1 14 -1 14 -1 -1 -14
-7 -31 -14z"/>
<path d="M1786 527 c3 -8 11 -14 19 -14 11 0 12 4 4 14 -6 7 -15 13 -20 13 -5
0 -6 -6 -3 -13z"/>
<path d="M13 501 c3 -11 0 -22 -7 -25 -6 -2 -3 -5 6 -5 11 -1 16 -8 13 -21 -5
-26 11 -35 18 -10 3 11 1 23 -4 26 -6 3 -7 14 -4 24 3 11 -1 20 -11 24 -13 5
-15 2 -11 -13z"/>
<path d="M1740 501 c0 -5 5 -13 10 -16 6 -3 10 -2 10 4 0 5 -4 13 -10 16 -5 3
-10 2 -10 -4z"/>
<path d="M1933 453 c-23 -9 -14 -20 12 -15 14 2 22 8 19 13 -6 10 -12 10 -31
2z"/>
<path d="M1840 440 c0 -6 -10 -15 -22 -21 -21 -9 -21 -9 5 -4 15 3 27 1 27 -4
0 -5 7 -8 15 -7 18 3 33 16 17 16 -6 0 -18 7 -26 16 -9 8 -16 10 -16 4z"/>
<path d="M250 411 c0 -5 7 -12 16 -15 24 -9 28 -7 14 9 -14 17 -30 20 -30 6z"/>
<path d="M1955 328 c-10 -32 -9 -105 1 -101 7 2 11 27 10 59 0 54 -3 65 -11
42z"/>
<path d="M1 224 c0 -11 3 -14 6 -6 3 7 2 16 -1 19 -3 4 -6 -2 -5 -13z"/>
<path d="M107 210 c3 -11 8 -20 12 -20 4 0 7 9 7 20 0 11 -6 20 -12 20 -7 0
-10 -8 -7 -20z"/>
<path d="M26 174 c-4 -14 -5 -29 -2 -31 3 -3 8 7 12 21 3 15 4 29 1 32 -2 3
-8 -7 -11 -22z"/>
<path d="M1921 164 c0 -11 3 -14 6 -6 3 7 2 16 -1 19 -3 4 -6 -2 -5 -13z"/>
<path d="M65 100 c-3 -5 -1 -10 4 -10 6 0 11 5 11 10 0 6 -2 10 -4 10 -3 0 -8
-4 -11 -10z"/>
<path d="M1728 13 c7 -3 16 -2 19 1 4 3 -2 6 -13 5 -11 0 -14 -3 -6 -6z"/>
</g>
</svg>
