<?xml version="1.0" standalone="no"?>
<!DOCTYPE svg PUBLIC "-//W3C//DTD SVG 20010904//EN"
 "http://www.w3.org/TR/2001/REC-SVG-20010904/DTD/svg10.dtd">
<svg version="1.0" xmlns="http://www.w3.org/2000/svg"
 width="512.000000pt" height="512.000000pt" viewBox="0 0 512.000000 512.000000"
 preserveAspectRatio="xMidYMid meet">
<metadata>
Created by potrace 1.16, written by Peter Selinger 2001-2019
</metadata>
<g transform="translate(0.000000,512.000000) scale(0.100000,-0.100000)"
fill="#000000" stroke="none">
<path d="M0 2560 l0 -2560 1893 0 1892 0 33 60 c44 80 63 80 81 0 12 -53 16
-60 37 -60 21 0 23 4 18 25 -5 20 -1 30 18 45 36 28 65 102 90 233 20 108 23
115 41 105 40 -21 64 43 43 115 -5 15 -4 27 0 26 16 -4 98 23 148 48 58 29 50
35 118 -80 l41 -68 5 -225 c5 -223 5 -224 27 -224 l22 0 -1 342 c-1 308 1 351
18 417 11 41 28 83 38 93 39 39 142 9 172 -50 33 -65 48 -185 51 -417 2 -126
1 -218 -1 -202 -3 15 -10 25 -15 22 -5 -4 -9 -1 -9 6 0 6 -9 0 -21 -15 -11
-14 -29 -26 -39 -26 -11 0 -20 -8 -22 -22 -3 -20 -38 -36 -38 -17 0 5 -11 9
-25 9 -21 0 -25 -5 -25 -29 0 -36 -25 -61 -34 -33 -4 10 -13 19 -21 19 -11 0
-12 -4 -5 -11 5 -5 10 -15 10 -20 0 -6 -5 -4 -10 4 -7 11 -10 4 -10 -27 l0
-43 300 0 300 0 0 564 0 565 -107 -1 c-112 0 -232 19 -298 46 l-38 16 53 28
c61 33 140 108 140 134 0 23 -12 23 -58 -1 -143 -72 -337 -68 -498 11 -94 46
-156 105 -195 186 -27 57 -33 81 -37 159 -4 78 -2 93 11 93 8 0 20 -7 27 -14
6 -8 31 -23 56 -32 138 -53 344 85 344 230 0 50 -34 129 -90 211 -81 120 -111
189 -117 270 -9 122 27 235 122 377 113 169 157 294 141 400 -9 57 -85 177
-124 196 -41 19 -38 6 10 -46 79 -85 106 -163 87 -254 -17 -77 -39 -123 -125
-257 l-77 -121 -46 0 c-26 0 -125 9 -221 20 -96 10 -236 24 -310 31 -77 6
-147 18 -164 26 -22 11 -30 12 -36 3 -9 -14 -339 5 -355 21 -25 25 4 227 56
389 53 162 182 362 294 454 130 107 233 141 403 134 87 -4 124 -11 200 -38
l94 -32 141 70 c78 39 183 85 234 101 97 32 323 81 376 81 18 0 49 3 70 6 l37
7 0 543 0 544 -526 0 c-476 0 -526 -2 -520 -16 3 -9 6 -27 6 -40 0 -15 6 -24
16 -24 14 0 15 -12 9 -96 -6 -73 -5 -98 5 -104 8 -5 10 -17 6 -34 -4 -15 -11
-24 -16 -21 -6 4 -13 -1 -17 -11 -4 -10 0 -20 9 -25 12 -7 15 -27 13 -95 -1
-50 -6 -89 -13 -93 -6 -3 -12 -33 -14 -66 -3 -51 -6 -61 -25 -70 -15 -6 -21
-16 -18 -26 3 -9 -4 -28 -16 -43 -17 -21 -19 -30 -9 -36 8 -5 9 -9 1 -14 -6
-4 -11 -2 -11 3 0 6 -7 11 -15 11 -8 0 -15 -4 -15 -9 0 -5 -11 -23 -25 -39
-13 -16 -22 -32 -19 -35 3 -2 -9 -15 -25 -27 -17 -12 -31 -27 -31 -35 0 -7 -7
-15 -15 -19 -8 -3 -15 -13 -15 -22 0 -10 -7 -25 -16 -35 -14 -16 -14 -18 5
-28 11 -6 24 -11 28 -10 19 3 33 -2 33 -11 0 -5 -6 -10 -13 -10 -28 0 -67 -26
-78 -52 -9 -23 -14 -26 -30 -18 -14 8 -25 4 -51 -20 -25 -22 -29 -29 -15 -30
9 0 17 5 17 10 0 6 5 10 10 10 24 0 7 -21 -22 -27 l-33 -7 50 -12 50 -13 -47
3 c-27 2 -48 0 -48 -5 0 -5 -6 -9 -13 -9 -7 0 -18 -9 -25 -21 -9 -14 -19 -18
-32 -14 -16 5 -20 2 -20 -14 0 -25 8 -26 34 -6 11 8 25 15 30 15 6 0 -6 -11
-26 -25 -20 -14 -42 -25 -47 -25 -6 0 -11 -4 -11 -9 0 -5 -21 -26 -47 -47 -27
-20 -42 -31 -35 -24 17 20 15 35 -3 20 -10 -9 -15 -9 -15 -1 0 10 15 15 23 9
2 -2 11 5 21 15 10 9 23 17 31 17 20 0 41 55 24 66 -5 3 -9 -4 -9 -16 0 -14
-9 -24 -30 -31 -16 -6 -27 -15 -24 -20 3 -5 0 -9 -6 -9 -6 0 -22 -11 -34 -25
-20 -21 -24 -22 -22 -8 0 10 10 24 21 31 19 12 19 13 -2 7 -16 -5 -23 -2 -23
8 0 8 -14 17 -31 21 -44 9 -49 8 -49 -8 0 -12 -20 -14 -96 -15 -58 0 -101 -4
-110 -12 -10 -8 -14 -8 -14 0 0 6 -6 11 -13 11 -7 0 -18 9 -25 20 -16 26 -52
26 -59 1 -3 -14 -15 -21 -37 -23 -23 -2 -32 -8 -34 -26 -5 -30 -45 -49 -114
-51 -45 -2 -58 1 -58 12 0 17 -41 30 -64 21 -11 -4 -16 -1 -16 10 0 9 -4 16
-10 16 -5 0 -10 -4 -10 -10 0 -5 -13 -10 -30 -10 -17 0 -30 -5 -30 -12 0 -7
-11 4 -25 24 -28 41 -31 53 -12 42 7 -4 9 -3 4 2 -5 5 -12 9 -15 9 -4 0 -27
22 -52 49 -141 154 -316 277 -485 341 -108 41 -240 75 -286 75 -41 0 -42 1
-25 19 26 29 56 116 56 165 0 87 -19 96 -78 39 -38 -39 -117 -85 -162 -97
l-25 -7 24 14 c14 9 19 16 12 18 -9 3 -10 11 -2 32 9 22 8 27 -5 27 -11 0 -13
6 -9 21 10 29 -13 79 -36 79 -15 0 -19 8 -19 39 0 30 -7 46 -30 69 -25 26 -30
38 -30 81 0 48 1 50 40 67 51 23 51 34 -2 35 -24 0 -36 3 -28 6 50 16 60 27
60 65 0 21 -4 38 -10 38 -17 0 -11 26 10 45 24 22 25 32 5 37 -11 2 -8 11 15
35 17 18 30 34 30 37 0 4 -150 6 -334 6 -310 0 -335 -1 -339 -17 -4 -17 -5
-17 -6 0 -1 16 -29 17 -441 17 l-440 0 0 -2560z m670 2510 c0 -5 -4 -10 -10
-10 -5 0 -10 5 -10 10 0 6 5 10 10 10 6 0 10 -4 10 -10z m578 -38 c2 -13 -3
-25 -13 -28 -23 -9 -38 10 -30 36 9 27 39 22 43 -8z m172 18 c0 -5 -7 -10 -16
-10 -8 0 -12 5 -9 10 3 6 10 10 16 10 5 0 9 -4 9 -10z m13 -216 c9 -9 -4 -35
-14 -28 -5 3 -9 12 -9 20 0 14 12 19 23 8z m90 -471 c-7 -2 -19 -2 -25 0 -7 3
-2 5 12 5 14 0 19 -2 13 -5z m2751 -114 c-3 -5 -10 -7 -15 -3 -5 3 -7 10 -3
15 3 5 10 7 15 3 5 -3 7 -10 3 -15z m-214 -13 c0 -3 -4 -8 -10 -11 -5 -3 -10
-1 -10 4 0 6 5 11 10 11 6 0 10 -2 10 -4z m68 -25 c4 -25 -11 -41 -39 -41 -20
0 -32 26 -23 52 9 29 58 21 62 -11z m182 -32 c0 -11 -4 -17 -10 -14 -5 3 -10
13 -10 21 0 8 5 14 10 14 6 0 10 -9 10 -21z m-295 -44 c0 -11 -8 -21 -17 -23
-14 -3 -18 3 -18 23 0 20 4 26 18 23 9 -2 17 -12 17 -23z m-100 -5 c3 -5 1
-10 -4 -10 -6 0 -11 5 -11 10 0 6 2 10 4 10 3 0 8 -4 11 -10z m690 0 c4 -6 1
-18 -6 -26 -11 -13 -14 -13 -27 0 -8 8 -11 19 -8 25 9 14 33 14 41 1z m-589
-115 c3 -8 3 -19 -1 -25 -10 -16 -35 7 -28 26 7 18 22 18 29 -1z m-259 -111
c-3 -3 -12 -4 -19 -1 -8 3 -5 6 6 6 11 1 17 -2 13 -5z m-47 -44 c0 -5 -9 -14
-20 -20 -19 -10 -20 -10 -8 9 13 22 28 28 28 11z m40 6 c0 -2 -7 -6 -15 -10
-8 -3 -15 -1 -15 4 0 6 7 10 15 10 8 0 15 -2 15 -4z m-286 -207 c-3 -5 -10 -7
-15 -3 -5 3 -7 10 -3 15 3 5 10 7 15 3 5 -3 7 -10 3 -15z m-476 -257 c2 -13
-3 -25 -13 -28 -23 -9 -38 10 -30 36 9 27 39 22 43 -8z m-1772 -14 c5 -4 21
-5 35 -2 20 4 21 3 4 -4 -16 -7 -10 -12 38 -30 32 -12 63 -22 70 -21 7 0 -1 5
-18 11 -16 6 -39 18 -50 26 -19 14 -19 14 5 7 14 -3 79 -9 145 -12 l121 -6
-83 -43 c-46 -24 -101 -49 -123 -55 -86 -26 -29 -45 125 -42 71 2 137 9 185
22 135 35 243 71 272 89 25 16 37 17 84 9 47 -9 55 -14 60 -36 3 -14 10 -43
16 -63 13 -44 6 -222 -18 -438 -8 -80 -12 -164 -9 -188 8 -54 61 -108 122
-125 24 -6 43 -17 43 -25 0 -19 -29 -73 -52 -99 -20 -21 -20 -23 -4 -64 27
-68 39 -148 25 -165 -28 -34 -224 -5 -346 50 -29 14 -53 20 -53 15 0 -14 92
-55 170 -75 36 -10 103 -18 148 -18 l84 -1 -4 -55 c-10 -142 -147 -317 -297
-382 -51 -22 -151 -38 -172 -27 -8 4 -50 12 -94 19 -73 11 -293 76 -305 90 -3
3 -32 21 -65 39 -84 47 -158 106 -244 195 -40 42 -78 76 -83 76 -6 0 -8 7 -5
15 4 8 2 17 -3 20 -5 3 -23 30 -40 60 -23 40 -39 57 -58 61 -99 21 -129 29
-142 38 -8 6 -33 20 -54 31 -48 24 -76 68 -76 117 0 28 7 42 32 63 28 23 37
26 76 20 43 -6 44 -6 40 17 -3 19 11 8 66 -48 39 -39 97 -88 129 -109 76 -50
88 -40 54 47 -34 85 -37 97 -52 190 l-13 80 37 -38 c49 -51 119 -94 153 -94
15 0 28 1 28 3 0 2 -11 31 -24 64 -50 122 -46 191 31 477 46 173 50 219 27
319 -6 27 -6 27 22 15 16 -6 34 -15 40 -20z m1839 -18 c10 -16 -16 -43 -28
-31 -11 11 -2 41 12 41 5 0 13 -5 16 -10z m-637 -377 c-5 -25 -28 -28 -28 -4
0 12 6 21 16 21 9 0 14 -7 12 -17z m-1844 -115 c2 -7 12 -47 21 -88 10 -41 28
-97 42 -125 l24 -50 -23 27 c-62 74 -143 99 -196 62 -22 -15 -62 -83 -62 -104
0 -17 18 -11 24 8 3 9 19 32 35 50 56 61 133 35 203 -68 21 -30 38 -58 38 -61
0 -4 -18 -9 -41 -13 -26 -4 -52 -17 -71 -37 -28 -28 -30 -34 -26 -85 3 -35 13
-65 27 -85 l22 -30 -28 7 c-51 12 -87 37 -154 103 -69 70 -127 171 -136 240
-17 125 114 259 255 260 26 1 44 -4 46 -11z m3091 -110 c28 -11 61 -25 75 -31
14 -5 34 -12 44 -14 36 -6 28 -11 -51 -28 -43 -9 -101 -28 -130 -42 l-52 -24
5 -67 c13 -165 45 -274 97 -330 28 -30 82 -58 128 -67 114 -21 231 86 295 270
15 44 28 81 28 82 1 1 26 -5 56 -13 30 -8 70 -12 88 -9 l32 6 0 -45 c0 -66 33
-143 110 -261 38 -57 76 -118 85 -135 19 -37 22 -108 5 -140 -28 -52 -93 -110
-146 -130 -94 -35 -152 -25 -216 37 l-36 35 -15 -28 c-23 -45 -30 -114 -17
-183 13 -74 13 -75 -90 -115 -110 -43 -261 -58 -344 -35 -47 13 -143 104 -174
164 -24 48 -42 130 -42 189 l0 43 118 6 c115 5 182 19 182 39 0 6 -8 7 -17 3
-43 -17 -196 -37 -238 -31 l-45 7 0 90 c0 78 -2 90 -20 101 -11 7 -33 30 -47
51 -24 35 -25 40 -11 48 38 21 103 76 129 109 33 42 59 133 59 210 0 30 5 103
12 162 l11 108 41 -6 c23 -4 64 -15 91 -26z m265 -9 c153 -14 198 -30 64 -23
-97 5 -200 22 -224 36 -11 7 -10 8 5 4 11 -3 81 -10 155 -17z m216 -35 c-5
-14 -4 -15 9 -4 9 8 25 10 42 5 26 -7 26 -8 8 -15 -11 -5 -38 -9 -60 -9 -22 1
-34 3 -27 6 10 4 10 8 1 19 -9 11 -7 14 11 14 16 0 21 -4 16 -16z m-72 -50
c13 -5 16 -16 14 -48 -2 -25 -8 -40 -15 -39 -6 2 -60 5 -120 9 -118 7 -270 -7
-326 -31 -19 -8 -37 -11 -41 -8 -11 11 -7 50 7 60 22 18 102 44 178 58 73 14
265 14 303 -1z m222 -31 c-3 -16 -9 -51 -12 -79 l-6 -51 -52 5 c-71 6 -118 27
-114 49 2 14 17 19 63 24 66 7 97 17 90 28 -2 4 -29 3 -59 -2 -62 -12 -86 -6
-86 22 0 24 15 28 109 30 l73 1 -6 -27z m-282 -73 c32 -5 61 -12 63 -14 8 -7
-17 -105 -39 -157 l-19 -46 -132 5 c-73 2 -133 5 -134 6 -1 1 4 20 12 42 8 23
17 65 20 95 4 30 8 60 10 67 5 15 132 16 219 2z m-244 -10 c0 -5 -6 -10 -12
-10 -7 0 -31 -3 -53 -6 -28 -5 -37 -3 -30 4 9 9 29 14 83 21 6 0 12 -3 12 -9z
m0 -50 c0 -22 -15 -25 -69 -14 -55 11 -34 30 37 33 26 1 32 -3 32 -19z m-870
-9 c0 -11 -4 -22 -8 -25 -14 -9 -35 12 -29 28 9 23 37 20 37 -3z m829 -27 c27
-6 32 -11 29 -33 -3 -29 -15 -30 -72 -6 -24 10 -34 20 -30 30 7 16 24 18 73 9z
m-3415 -30 c3 -8 2 -12 -4 -9 -6 3 -10 10 -10 16 0 14 7 11 14 -7z m3426 -60
c0 -16 -17 -27 -68 -47 l-43 -16 -10 25 c-7 20 -5 32 11 54 l21 29 44 -17 c25
-9 45 -22 45 -28z m-3340 -29 c0 -5 -5 -3 -10 5 -5 8 -10 20 -10 25 0 6 5 3
10 -5 5 -8 10 -19 10 -25z m3559 -21 c17 -4 31 -10 31 -15 0 -13 -70 -88 -94
-101 -73 -39 -161 -26 -220 34 l-40 40 27 15 c54 28 216 43 296 27z m-3489
-19 c8 5 11 4 6 -3 -3 -5 -3 -12 1 -15 5 -2 2 -2 -4 -1 -7 2 -13 -2 -13 -8 0
-19 -14 1 -17 25 -2 16 -1 18 6 8 5 -8 14 -10 21 -6z m123 -77 c-4 -7 4 -9 20
-6 15 3 24 2 22 -3 -11 -16 19 -21 31 -5 13 18 21 12 20 -14 -1 -17 -42 -15
-63 2 -7 6 -22 8 -33 5 -13 -3 -20 0 -20 10 0 9 -5 11 -12 7 -10 -6 -9 -3 0 8
14 18 46 13 35 -4z m-37 -27 c-3 -5 6 -12 20 -15 15 -4 24 -9 22 -12 -3 -2
-19 1 -37 7 -24 9 -29 14 -19 20 17 11 20 11 14 0z m174 -8 c0 -10 -4 -14 -8
-8 -4 6 -11 13 -16 18 -5 4 -2 7 7 7 10 0 17 -8 17 -17z m55 -3 c-3 -5 1 -10
9 -10 9 0 16 5 16 11 0 12 39 3 55 -13 7 -7 3 -8 -12 -4 -13 4 -31 3 -40 -3
-11 -6 -13 -11 -5 -11 7 0 10 -4 7 -10 -3 -5 1 -10 11 -10 13 0 14 3 4 15 -10
12 -10 15 3 15 22 0 31 -18 15 -33 -9 -8 -32 -10 -73 -6 -33 3 -54 6 -47 7 7
1 10 7 7 12 -3 6 1 10 10 10 9 0 13 -4 10 -10 -4 -6 6 -10 22 -9 15 0 22 3 15
6 -6 2 -10 9 -6 14 3 5 -1 9 -9 9 -8 0 -17 7 -21 15 -4 10 1 15 15 15 11 0 17
-4 14 -10z m-115 -42 c10 -6 7 -7 -10 -2 -14 3 -32 11 -40 16 -10 6 -7 7 10 2
14 -3 32 -11 40 -16z m245 -51 c13 -20 14 -27 5 -25 -8 2 -16 -5 -18 -16 -2
-11 0 -16 6 -12 6 3 14 -4 18 -16 6 -20 7 -21 19 -4 14 18 32 5 20 -14 -4 -6
-1 -9 6 -8 7 2 14 -3 15 -9 3 -26 5 -28 12 -15 6 9 12 6 22 -12 15 -29 6 -61
-15 -53 -9 4 -12 1 -8 -9 3 -9 -2 -14 -16 -14 -14 0 -21 -6 -21 -20 0 -11 5
-20 11 -20 7 0 10 -12 7 -30 -3 -17 0 -30 6 -30 6 0 2 -7 -8 -15 -18 -14 -18
-16 -3 -32 11 -13 13 -23 6 -36 -6 -9 -7 -22 -4 -27 3 -6 1 -10 -4 -10 -6 0
-11 7 -11 16 0 9 -9 18 -21 21 -14 4 -19 12 -16 24 3 11 1 19 -3 19 -4 0 -6 9
-3 21 4 14 9 17 16 10 6 -6 15 -11 19 -11 14 0 8 20 -12 40 -27 27 -40 25 -40
-5 0 -14 -3 -25 -7 -25 -5 0 -9 32 -10 70 -1 50 -7 75 -18 87 -13 13 -15 28
-11 72 3 31 8 72 9 91 7 74 2 74 52 -3z m-68 -19 c-3 -7 -5 -2 -5 12 0 14 2
19 5 13 2 -7 2 -19 0 -25z m1938 -108 c0 -8 -8 -16 -17 -18 -13 -2 -18 3 -18
18 0 15 5 20 18 18 9 -2 17 -10 17 -18z m-1912 -279 c-2 -2 -3 1 -3 9 0 10 -3
10 -17 -1 -15 -11 -16 -11 -5 1 8 9 13 52 14 120 l2 105 5 -115 c3 -63 5 -117
4 -119z m255 142 c-12 -15 -22 -18 -14 -4 4 5 0 11 -6 14 -7 3 -3 4 9 4 17 -1
19 -4 11 -14z m-14 -62 c4 -5 -3 -7 -14 -4 -12 3 -20 0 -20 -8 0 -7 -3 -10 -6
-6 -9 9 5 27 21 27 8 0 16 -4 19 -9z m126 -16 c0 -11 -29 -11 -33 -1 -4 10 1
12 14 9 10 -3 19 -7 19 -8z m-5 -64 c-5 -4 -95 48 -95 54 0 3 22 -7 49 -22 27
-16 48 -30 46 -32z m131 24 c40 -19 82 -35 93 -35 12 0 21 -4 21 -9 0 -5 10
-7 22 -3 13 3 19 1 15 -5 -4 -6 -1 -10 6 -10 31 2 98 -16 86 -24 -7 -4 5 -5
27 -2 21 3 55 1 74 -5 l35 -9 -48 -8 c-84 -13 -362 27 -392 56 -7 7 -4 8 9 3
14 -5 17 -3 14 7 -3 8 -10 14 -16 14 -6 0 -20 7 -30 16 -10 8 -23 14 -30 11
-6 -2 -19 1 -29 7 -15 10 -14 10 8 5 19 -4 28 -1 32 10 9 23 21 20 103 -19z
m-295 -13 c-7 -2 -18 1 -23 6 -8 8 -4 9 13 5 13 -4 18 -8 10 -11z m-191 -117
c14 -8 21 -14 15 -14 -5 0 -21 6 -35 14 -14 8 -20 14 -15 14 6 0 21 -6 35 -14z
m-87 -28 c-3 -6 -1 -7 5 -3 14 9 323 -144 316 -155 -3 -5 2 -6 10 -3 23 9 29
-18 17 -78 -5 -29 -13 -77 -16 -105 -6 -46 -9 -51 -22 -38 -8 8 -11 20 -7 26
4 7 3 9 -2 6 -6 -3 -25 11 -44 31 -19 20 -26 30 -15 22 17 -13 16 -11 -4 18
-12 17 -25 32 -28 32 -3 0 0 -7 7 -15 20 -24 1 -17 -34 12 -17 14 -30 30 -28
35 1 5 -2 7 -7 4 -5 -4 -15 0 -23 7 -31 31 -117 83 -159 97 l-47 15 19 62 c19
60 20 62 44 51 13 -6 22 -15 18 -21z m177 17 c0 -2 -7 -4 -15 -4 -8 0 -15 4
-15 10 0 5 7 7 15 4 8 -4 15 -8 15 -10z m-35 -14 c3 -5 1 -10 -4 -10 -6 0 -11
5 -11 10 0 6 2 10 4 10 3 0 8 -4 11 -10z m3127 -44 c-3 -5 0 -6 6 -2 12 7 16
-4 13 -36 -1 -9 6 -18 16 -20 10 -3 -16 -10 -57 -17 -85 -15 -234 -9 -315 12
l-50 13 60 1 c70 0 235 32 235 44 0 5 9 9 20 9 11 0 20 4 20 8 0 5 10 14 23
19 17 8 23 7 28 -6 4 -9 4 -20 1 -25z m-2815 -323 c-3 -2 -8 5 -12 16 -3 12
-11 19 -16 16 -11 -7 -12 8 -2 19 4 4 13 -5 21 -20 7 -14 11 -28 9 -31z m23
-48 c0 -5 -5 -3 -10 5 -5 8 -10 20 -10 25 0 6 5 3 10 -5 5 -8 10 -19 10 -25z
m-22 -206 l-3 -34 -17 36 c-8 20 -19 47 -23 60 l-7 24 27 -26 c21 -20 26 -33
23 -60z m3106 19 c-38 -74 -244 -371 -244 -352 0 13 91 176 133 239 38 55 114
145 124 145 2 0 -4 -14 -13 -32z m-4244 -2 c0 -3 -4 -8 -10 -11 -5 -3 -10 -1
-10 4 0 6 5 11 10 11 6 0 10 -2 10 -4z m1385 -219 c10 -37 1 -150 -12 -154
-16 -6 -26 67 -18 127 7 53 21 65 30 27z m2979 -62 c-7 -38 -13 -94 -14 -124
l0 -55 -44 66 -44 65 57 60 c31 33 57 60 57 59 1 0 -4 -32 -12 -71z m-2826 5
c2 -62 -11 -96 -28 -70 -5 8 -10 41 -10 73 0 50 2 58 18 55 13 -2 18 -15 20
-58z m2447 -146 c29 -31 28 -31 15 -39 -6 -4 -9 -1 -8 7 2 8 -6 13 -20 12 -18
-1 -20 1 -11 12 9 11 7 14 -12 14 -27 0 -84 -39 -59 -40 13 0 13 -2 0 -9 -8
-6 -17 -8 -21 -5 -9 5 -59 -58 -59 -73 0 -6 -7 -17 -17 -24 -15 -13 -15 -12
-3 11 42 80 121 160 158 160 7 0 24 -12 37 -26z m-84 -74 c20 -11 25 -35 10
-44 -5 -4 -7 3 -4 14 4 15 0 20 -16 20 -15 0 -21 -6 -21 -22 0 -12 -3 -18 -7
-15 -3 4 -12 -1 -20 -11 -8 -9 -4 2 9 25 26 48 23 46 49 33z m103 -26 c7 -19
2 -18 -19 6 -16 17 -16 20 -3 15 9 -4 19 -13 22 -21z m-233 -87 c-10 -9 -11
-8 -5 6 3 10 9 15 12 12 3 -3 0 -11 -7 -18z m-1707 -183 c8 -21 8 -108 0 -129
-12 -31 -24 7 -24 78 0 63 11 86 24 51z m2589 -19 c-3 -9 -8 -14 -10 -11 -3 3
-2 9 2 15 9 16 15 13 8 -4z m-26 -17 c-3 -8 -6 -5 -6 6 -1 11 2 17 5 13 3 -3
4 -12 1 -19z"/>
<path d="M1460 3346 c0 -2 7 -7 16 -10 8 -3 12 -2 9 4 -6 10 -25 14 -25 6z"/>
<path d="M1388 3323 c7 -3 16 -2 19 1 4 3 -2 6 -13 5 -11 0 -14 -3 -6 -6z"/>
<path d="M1435 3320 c-19 -8 -19 -9 2 -9 12 -1 25 4 28 9 7 12 -2 12 -30 0z"/>
<path d="M1652 3200 c-71 -25 -112 -52 -160 -104 -121 -132 -158 -358 -83
-511 48 -97 122 -150 231 -165 104 -14 208 28 294 120 71 76 88 124 94 261 4
101 1 125 -17 182 -38 112 -100 184 -189 217 -65 25 -102 25 -170 0z m194 -40
c50 -28 107 -94 132 -153 17 -39 16 -43 -17 -56 -62 -26 -127 -123 -152 -226
-6 -28 -13 -56 -15 -64 -3 -9 -12 -11 -27 -6 -88 26 -186 50 -272 64 l-100 17
-3 32 c-7 74 43 218 104 298 15 19 47 49 71 65 97 67 195 78 279 29z m-290
-475 c133 -22 364 -95 364 -115 0 -16 -84 -82 -130 -102 -56 -25 -159 -27
-213 -4 -85 35 -150 111 -171 199 -9 37 0 49 32 43 15 -3 68 -12 118 -21z"/>
<path d="M1361 2391 c-17 -11 -8 -39 15 -48 8 -3 23 1 31 10 13 13 14 19 3 31
-14 18 -28 20 -49 7z"/>
<path d="M3728 2723 c7 -3 16 -2 19 1 4 3 -2 6 -13 5 -11 0 -14 -3 -6 -6z"/>
<path d="M3970 2166 c0 -21 21 -31 30 -15 5 7 6 17 4 21 -9 14 -34 9 -34 -6z"/>
<path d="M3624 2159 c-10 -17 13 -36 27 -22 12 12 4 33 -11 33 -5 0 -12 -5
-16 -11z"/>
<path d="M3800 2107 c0 -19 10 -27 26 -20 21 8 17 33 -6 33 -11 0 -20 -6 -20
-13z"/>
<path d="M870 2124 c0 -8 5 -12 10 -9 6 4 8 11 5 16 -9 14 -15 11 -15 -7z"/>
<path d="M886 2093 c-6 -14 -5 -15 5 -6 7 7 10 15 7 18 -3 3 -9 -2 -12 -12z"/>
<path d="M867 2063 c-8 -8 -9 -53 -1 -53 3 0 14 5 25 11 22 11 15 33 -8 25
-11 -4 -13 -2 -9 9 6 16 3 19 -7 8z"/>
<path d="M900 1970 c0 -5 16 -10 36 -10 21 0 33 4 29 10 -3 6 -19 10 -36 10
-16 0 -29 -4 -29 -10z"/>
<path d="M1395 1690 c3 -5 8 -10 11 -10 2 0 4 5 4 10 0 6 -5 10 -11 10 -5 0
-7 -4 -4 -10z"/>
<path d="M750 1572 c0 -5 7 -9 15 -9 8 0 12 4 9 9 -3 4 -9 8 -15 8 -5 0 -9 -4
-9 -8z"/>
<path d="M740 1480 c8 -5 20 -10 25 -10 6 0 3 5 -5 10 -8 5 -19 10 -25 10 -5
0 -3 -5 5 -10z"/>
<path d="M1070 1240 c0 -5 5 -10 11 -10 5 0 7 5 4 10 -3 6 -8 10 -11 10 -2 0
-4 -4 -4 -10z"/>
<path d="M1521 4914 c0 -11 3 -14 6 -6 3 7 2 16 -1 19 -3 4 -6 -2 -5 -13z"/>
<path d="M1450 4770 c0 -5 5 -10 10 -10 6 0 10 5 10 10 0 6 -4 10 -10 10 -5 0
-10 -4 -10 -10z"/>
<path d="M3647 3942 c-23 -25 -21 -34 6 -30 14 2 23 11 25 26 4 27 -9 28 -31
4z"/>
<path d="M3172 3811 c-10 -6 -9 -11 4 -22 13 -11 18 -11 21 -1 3 6 12 12 21
12 15 0 15 2 2 10 -18 12 -31 12 -48 1z"/>
<path d="M4579 3731 c-60 -19 -119 -51 -119 -63 0 -12 7 -10 53 14 51 26 131
48 175 48 17 0 32 5 32 10 0 16 -79 11 -141 -9z"/>
<path d="M3980 3641 c-135 -52 -285 -204 -374 -378 -29 -58 -30 -63 -17 -63 5
0 12 9 16 20 10 32 104 171 158 233 64 75 153 143 224 171 65 27 59 42 -7 17z"/>
<path d="M4513 3619 c-48 -14 -40 -28 10 -18 65 13 157 10 217 -5 56 -15 66
-14 56 2 -17 28 -210 42 -283 21z"/>
<path d="M4172 3526 c-16 -19 -44 -55 -61 -79 -55 -81 -120 -267 -108 -314 5
-22 7 -15 31 81 22 92 74 200 137 281 52 68 53 90 1 31z"/>
<path d="M4412 67 c-7 -20 -19 -37 -26 -37 -7 0 -21 -7 -32 -15 -17 -13 -14
-14 39 -13 56 1 57 1 57 29 0 16 -4 29 -9 29 -5 0 -11 10 -13 22 -2 17 -5 15
-16 -15z"/>
</g>
</svg>
