<?xml version="1.0" standalone="no"?>
<!DOCTYPE svg PUBLIC "-//W3C//DTD SVG 20010904//EN"
 "http://www.w3.org/TR/2001/REC-SVG-20010904/DTD/svg10.dtd">
<svg version="1.0" xmlns="http://www.w3.org/2000/svg"
 width="225.000000pt" height="225.000000pt" viewBox="0 0 225.000000 225.000000"
 preserveAspectRatio="xMidYMid meet">

<g transform="translate(0.000000,225.000000) scale(0.100000,-0.100000)"
fill="#000000" stroke="none">
<path d="M905 1758 c-175 -19 -393 -81 -526 -148 -141 -71 -284 -201 -333
-303 -58 -117 -58 -240 0 -363 37 -81 164 -207 269 -268 321 -187 794 -245
1224 -150 249 56 447 157 576 296 270 288 113 653 -360 837 -238 93 -567 131
-850 99z m535 -53 c361 -65 627 -220 728 -424 33 -68 37 -83 37 -156 0 -74 -3
-88 -38 -158 -101 -204 -364 -356 -732 -423 -142 -26 -480 -26 -620 0 -326 60
-572 186 -692 354 -249 348 99 723 757 818 127 18 432 12 560 -11z"/>
<path d="M1007 1643 c-4 -3 -7 -31 -7 -62 -1 -31 -5 -89 -9 -129 -7 -61 -14
-79 -37 -104 -78 -82 -188 -78 -245 8 -34 52 -23 126 31 211 11 16 12 25 3 34
-16 16 -242 -62 -344 -119 -99 -56 -205 -156 -240 -227 -36 -75 -34 -189 4
-267 15 -31 49 -80 75 -109 72 -81 250 -190 286 -176 13 5 12 14 -9 59 -81
173 41 239 197 107 26 -21 50 -39 55 -39 4 0 27 23 51 50 34 39 50 50 73 50
70 0 125 -59 186 -200 33 -77 60 -100 70 -60 10 38 72 160 99 196 32 42 72 64
113 64 23 0 39 -11 73 -50 24 -27 47 -50 51 -50 5 0 29 18 55 39 156 132 278
66 197 -107 -21 -46 -23 -54 -9 -59 21 -8 111 37 190 93 78 55 136 121 171
193 24 47 28 69 28 136 0 72 -3 86 -34 143 -68 126 -221 231 -439 302 -133 43
-161 43 -132 -3 72 -113 67 -203 -16 -258 -33 -21 -103 -25 -137 -8 -41 21
-87 72 -92 103 -4 17 -9 78 -13 135 -5 68 -11 106 -19 108 -7 3 -26 -18 -44
-46 -27 -45 -35 -51 -64 -51 -29 0 -37 6 -64 50 -30 49 -41 57 -54 43z m-343
-128 c-18 -44 -18 -128 0 -163 34 -65 96 -102 172 -102 52 0 95 19 142 63 36
34 47 67 57 172 6 59 9 66 18 48 9 -20 17 -23 72 -23 55 0 63 3 72 23 9 18 12
11 18 -48 10 -105 21 -138 57 -172 47 -44 90 -63 142 -63 76 0 138 37 172 102
18 35 18 119 -1 164 -11 27 -12 35 -2 32 6 -3 49 -17 94 -32 159 -53 322 -172
374 -274 33 -65 33 -168 1 -234 -41 -84 -144 -181 -249 -237 -22 -11 -22 -10
-13 14 6 15 10 48 10 75 0 40 -5 56 -27 80 -53 59 -143 50 -243 -23 l-44 -33
-41 43 c-36 37 -47 43 -84 43 -84 0 -132 -41 -202 -173 l-36 -68 -19 43 c-59
132 -131 198 -215 198 -37 0 -48 -6 -84 -43 l-41 -43 -62 43 c-34 23 -78 45
-97 49 -92 17 -155 -30 -155 -116 0 -27 4 -60 10 -75 l10 -26 -52 28 c-69 37
-189 156 -217 215 -32 67 -38 143 -16 207 37 112 200 240 388 307 51 18 95 33
99 33 4 1 0 -15 -8 -34z"/>
</g>
</svg>
